<svg width="60" height="60" viewBox="0 0 60 60" fill="none" xmlns="http://www.w3.org/2000/svg">
<path d="M60 30C60 46.5685 46.5685 60 30 60C13.4315 60 0 46.5685 0 30C0 13.4315 13.4315 0 30 0C46.5685 0 60 13.4315 60 30Z" fill="url(#paint0_radial_4814_10122)"/>
<path d="M26.5697 22.4466C26.314 22.1128 25.9648 21.8359 25.555 21.6652C25.2342 21.5287 24.8811 21.4604 24.5238 21.4566H24.5076C23.716 21.4604 22.9285 21.8321 22.4577 22.4391L22.482 22.4542L22.2303 22.7918C21.9787 23.2812 21.9055 23.8502 22.0436 24.3812C22.2263 25.1057 22.7987 25.7354 23.5416 26.0237C24.2884 26.312 25.1814 26.2437 25.8715 25.8378C26.59 25.413 27.0569 24.6429 27.0569 23.8274C27.0569 23.4481 26.9512 23.0725 26.7646 22.7349L26.5697 22.4429V22.4466ZM42.9 21.4566C42.1167 21.4604 41.3414 21.8208 40.8664 22.4163C40.3184 23.1029 40.2088 24.074 40.6188 24.863C41.0328 25.6595 41.9543 26.2058 42.9163 26.202C43.8215 26.202 44.7025 25.7126 45.1408 24.9578C45.5751 24.2143 45.5426 23.247 45.0271 22.5187C44.5644 21.8663 43.7445 21.449 42.9 21.4528V21.4566ZM40.3671 26.8317V32.1764C41.0613 31.6643 41.9258 31.3532 42.8433 31.3418H42.9205C43.8337 31.3418 44.735 31.6415 45.4494 32.1688V26.8355C45.3317 26.9227 45.2058 27.0062 45.0758 27.082C44.2113 27.5865 43.1396 27.7724 42.1329 27.5941C41.4915 27.4803 40.8786 27.2148 40.3671 26.8355V26.8317ZM20.6067 24.973L15.8613 31.3456C15.9425 31.3418 16.0197 31.3418 16.1009 31.3418C17.1319 31.3456 18.1548 31.725 18.9059 32.3926C19.4091 32.8364 19.7867 33.4054 19.9978 34.0237L23.5536 29.248C23.5536 29.248 20.9963 25.8037 20.9111 25.652C20.7853 25.4357 20.6879 25.2119 20.6107 24.9806L20.6067 24.973ZM28.4247 24.973C28.1366 25.8189 27.5317 26.5661 26.7321 27.0517C26.0055 27.4917 25.1245 27.7003 24.26 27.6548L29.0256 34.0578C29.1635 33.6368 29.3747 33.2347 29.6588 32.8819C30.4016 31.9526 31.6032 31.3608 32.8737 31.3456H32.9509C33.0239 31.3456 33.0929 31.3456 33.1661 31.3494L28.4207 24.9768L28.4247 24.973ZM18.3619 36.2124C18.6378 35.6775 18.707 35.0403 18.5081 34.4561C18.2929 33.8188 17.7773 33.2764 17.1197 32.9995C16.799 32.8629 16.4418 32.7947 16.0887 32.7909H16.0724C15.3581 32.7909 14.6597 33.0943 14.1808 33.5912L13.8317 34.0578C13.4501 34.7368 13.4421 35.5978 13.8399 36.2882C14.197 36.9104 14.8709 37.3694 15.6137 37.4983C16.4053 37.6349 17.2538 37.3996 17.8382 36.8762C17.8585 36.8572 17.8787 36.8382 17.8992 36.8193L18.3577 36.2048L18.3619 36.2124ZM45.4453 35.101C45.4169 34.2209 44.8322 33.375 43.9434 33.0033C43.6226 32.8667 43.2654 32.7985 42.9123 32.7947H42.896C42.1572 32.7947 41.4306 33.1171 40.9516 33.6482C40.3387 34.3347 40.1805 35.3513 40.6066 36.1859C40.9476 36.8572 41.6457 37.3655 42.4293 37.5059C43.0382 37.6121 43.6916 37.5059 44.2275 37.1987C44.9581 36.7813 45.4371 36.0113 45.4453 35.1958V35.173V35.1048V35.101ZM34.8587 33.6178C34.3837 33.1171 33.6815 32.7985 32.9509 32.7985H32.9347C31.9158 32.8023 30.9293 33.4206 30.56 34.3423C30.3002 34.9986 30.3691 35.7534 30.7426 36.3641L30.978 36.6828C31.453 37.2177 32.1877 37.5476 32.9387 37.5476C33.7383 37.5476 34.534 37.1722 35.0048 36.5538C35.5488 35.8445 35.634 34.8506 35.1795 34.0578L34.8547 33.6178H34.8587ZM47 35.173C47 35.3475 46.9878 35.522 46.9635 35.6965C46.8011 36.8041 46.0907 37.8245 45.0799 38.42C43.9799 39.065 42.5429 39.1863 41.3291 38.7122C40.2047 38.2759 39.3117 37.3504 38.9667 36.2466C38.857 35.9014 38.8043 35.5372 38.8043 35.1768V23.6226H38.8165C38.8368 23.2698 38.9057 22.917 39.0276 22.5794C39.5026 21.3011 40.7325 20.2959 42.1897 20.0569C42.4293 20.019 42.6728 20 42.9163 20C43.9474 20.0038 44.9704 20.3831 45.7212 21.0507C46.4723 21.7146 46.931 22.6477 46.9918 23.6226H47V35.1692V35.173ZM20.8948 22.0446C21.4753 21.0204 22.5673 20.2617 23.8054 20.0569C24.0448 20.019 24.2884 20 24.532 20C25.563 20.0038 26.5859 20.3831 27.3368 21.0507C27.6454 21.3238 27.9052 21.6463 28.1081 21.9952L36.0845 32.7074C36.2429 32.8819 36.3809 33.0716 36.5027 33.2688L36.5595 33.3447H36.5515C36.7544 33.7013 36.9005 34.0844 36.9777 34.4789C37.1766 35.4993 36.9086 36.5955 36.2511 37.43C35.6462 38.2039 34.7207 38.75 33.71 38.9284C32.6911 39.1066 31.5992 38.9094 30.7304 38.3859C30.3489 38.1545 30.012 37.8662 29.7319 37.5324L29.7075 37.4983C29.6303 37.4035 29.5573 37.3048 29.4883 37.2024L24.5076 30.5149L19.7299 36.9332C19.6405 37.0925 19.539 37.2479 19.4294 37.3959C18.6745 38.3784 17.412 38.9967 16.0969 38.9967C15.155 38.9967 14.2214 38.6857 13.4908 38.1204C12.6788 37.4946 12.1431 36.5727 12.0254 35.5903C11.932 34.8241 12.0984 34.0275 12.4922 33.3447H12.4881L12.5246 33.2916C12.5774 33.2005 12.6383 33.1095 12.7033 33.0261C12.7885 32.9085 12.8777 32.7985 12.9752 32.6923L20.907 22.0408L20.8948 22.0446Z" fill="white"/>
<defs>
<radialGradient id="paint0_radial_4814_10122" cx="0" cy="0" r="1" gradientUnits="userSpaceOnUse" gradientTransform="translate(30 8.5) rotate(90) scale(51.5)">
<stop stop-color="#13A9D2"/>
<stop offset="1" stop-color="#6C0DC7"/>
</radialGradient>
</defs>
</svg>
