<svg width="68" height="68" viewBox="0 0 68 68" fill="none" xmlns="http://www.w3.org/2000/svg">
<g filter="url(#filter0_d_4668_10422)">
<rect x="4" width="60" height="60" rx="30" fill="url(#paint0_radial_4668_10422)" shape-rendering="crispEdges"/>
<path d="M30.5697 22.4457C30.314 22.1119 29.9648 21.835 29.555 21.6643C29.2342 21.5277 28.8811 21.4594 28.5238 21.4556H28.5076C27.716 21.4594 26.9285 21.8312 26.4577 22.4381L26.482 22.4533L26.2303 22.7909C25.9787 23.2802 25.9055 23.8492 26.0436 24.3802C26.2263 25.1048 26.7987 25.7344 27.5416 26.0227C28.2884 26.311 29.1814 26.2427 29.8715 25.8368C30.59 25.412 31.0569 24.642 31.0569 23.8264C31.0569 23.4471 30.9512 23.0716 30.7646 22.734L30.5697 22.4419V22.4457ZM46.9 21.4556C46.1167 21.4594 45.3414 21.8198 44.8664 22.4153C44.3184 23.1019 44.2088 24.073 44.6188 24.862C45.0328 25.6586 45.9543 26.2048 46.9163 26.201C47.8215 26.201 48.7025 25.7117 49.1408 24.9568C49.5751 24.2133 49.5426 23.246 49.0271 22.5177C48.5644 21.8653 47.7445 21.448 46.9 21.4518V21.4556ZM44.3671 26.8307V32.1754C45.0613 31.6633 45.9258 31.3523 46.8433 31.3409H46.9205C47.8337 31.3409 48.735 31.6405 49.4494 32.1678V26.8345C49.3317 26.9217 49.2058 27.0052 49.0758 27.081C48.2113 27.5855 47.1396 27.7714 46.1329 27.5931C45.4915 27.4793 44.8786 27.2138 44.3671 26.8345V26.8307ZM24.6067 24.972L19.8613 31.3447C19.9425 31.3409 20.0197 31.3409 20.1009 31.3409C21.1319 31.3447 22.1548 31.724 22.9059 32.3916C23.4091 32.8354 23.7867 33.4044 23.9978 34.0227L27.5536 29.247C27.5536 29.247 24.9963 25.8027 24.9111 25.651C24.7853 25.4348 24.6879 25.211 24.6107 24.9796L24.6067 24.972ZM32.4247 24.972C32.1366 25.8179 31.5317 26.5652 30.7321 27.0507C30.0055 27.4907 29.1245 27.6993 28.26 27.6538L33.0256 34.0568C33.1635 33.6358 33.3747 33.2337 33.6588 32.8809C34.4016 31.9516 35.6032 31.3598 36.8737 31.3447H36.9509C37.0239 31.3447 37.0929 31.3447 37.1661 31.3484L32.4207 24.9758L32.4247 24.972ZM22.3619 36.2114C22.6378 35.6765 22.707 35.0393 22.5081 34.4551C22.2929 33.8179 21.7773 33.2754 21.1197 32.9985C20.799 32.862 20.4418 32.7937 20.0887 32.7899H20.0724C19.3581 32.7899 18.6597 33.0934 18.1808 33.5903L17.8317 34.0568C17.4501 34.7358 17.4421 35.5969 17.8399 36.2872C18.197 36.9094 18.8709 37.3684 19.6137 37.4973C20.4053 37.6339 21.2538 37.3986 21.8382 36.8753C21.8585 36.8563 21.8787 36.8372 21.8992 36.8184L22.3577 36.2038L22.3619 36.2114ZM49.4453 35.1C49.4169 34.2199 48.8322 33.3741 47.9434 33.0023C47.6226 32.8658 47.2654 32.7975 46.9123 32.7937H46.896C46.1572 32.7937 45.4306 33.1161 44.9516 33.6472C44.3387 34.3338 44.1805 35.3503 44.6065 36.1849C44.9476 36.8563 45.6457 37.3645 46.4293 37.505C47.0382 37.6111 47.6916 37.505 48.2275 37.1977C48.9581 36.7803 49.4371 36.0103 49.4453 35.1948V35.1721V35.1038V35.1ZM38.8587 33.6168C38.3837 33.1161 37.6815 32.7975 36.9509 32.7975H36.9347C35.9158 32.8013 34.9293 33.4196 34.56 34.3413C34.3002 34.9976 34.3691 35.7525 34.7426 36.3631L34.978 36.6818C35.453 37.2167 36.1877 37.5466 36.9387 37.5466C37.7383 37.5466 38.534 37.1712 39.0048 36.5529C39.5488 35.8435 39.634 34.8496 39.1795 34.0568L38.8547 33.6168H38.8587ZM51 35.1721C51 35.3466 50.9878 35.521 50.9635 35.6956C50.8011 36.8031 50.0907 37.8235 49.0799 38.419C47.9799 39.064 46.5429 39.1853 45.3291 38.7112C44.2047 38.275 43.3117 37.3494 42.9667 36.2456C42.857 35.9004 42.8043 35.5362 42.8043 35.1759V23.6216H42.8165C42.8368 23.2688 42.9057 22.916 43.0276 22.5784C43.5026 21.3001 44.7325 20.2949 46.1897 20.0559C46.4293 20.018 46.6728 19.999 46.9163 19.999C47.9474 20.0028 48.9704 20.3821 49.7212 21.0498C50.4723 21.7136 50.931 22.6467 50.9918 23.6216H51V35.1683V35.1721ZM24.8948 22.0436C25.4753 21.0194 26.5673 20.2608 27.8054 20.0559C28.0448 20.018 28.2884 19.999 28.532 19.999C29.563 20.0028 30.5859 20.3821 31.3368 21.0498C31.6454 21.3229 31.9052 21.6453 32.1081 21.9943L40.0845 32.7064C40.2429 32.8809 40.3809 33.0706 40.5027 33.2678L40.5595 33.3437H40.5515C40.7544 33.7003 40.9005 34.0834 40.9777 34.4779C41.1766 35.4983 40.9086 36.5945 40.2511 37.429C39.6462 38.2029 38.7207 38.7491 37.71 38.9274C36.6911 39.1056 35.5992 38.9084 34.7304 38.3849C34.3489 38.1535 34.012 37.8653 33.7319 37.5315L33.7075 37.4973C33.6303 37.4025 33.5573 37.3039 33.4883 37.2014L28.5076 30.5139L23.7299 36.9322C23.6405 37.0915 23.539 37.2469 23.4294 37.3949C22.6745 38.3774 21.412 38.9957 20.0969 38.9957C19.155 38.9957 18.2214 38.6847 17.4908 38.1194C16.6788 37.4936 16.1431 36.5717 16.0254 35.5893C15.932 34.8231 16.0984 34.0265 16.4922 33.3437H16.4881L16.5246 33.2906C16.5774 33.1996 16.6383 33.1085 16.7033 33.0251C16.7885 32.9075 16.8777 32.7975 16.9752 32.6913L24.907 22.0398L24.8948 22.0436Z" fill="white"/>
</g>
<defs>
<filter id="filter0_d_4668_10422" x="0" y="0" width="68" height="68" filterUnits="userSpaceOnUse" color-interpolation-filters="sRGB">
<feFlood flood-opacity="0" result="BackgroundImageFix"/>
<feColorMatrix in="SourceAlpha" type="matrix" values="0 0 0 0 0 0 0 0 0 0 0 0 0 0 0 0 0 0 127 0" result="hardAlpha"/>
<feOffset dy="4"/>
<feGaussianBlur stdDeviation="2"/>
<feComposite in2="hardAlpha" operator="out"/>
<feColorMatrix type="matrix" values="0 0 0 0 0 0 0 0 0 0 0 0 0 0 0 0 0 0 0.25 0"/>
<feBlend mode="normal" in2="BackgroundImageFix" result="effect1_dropShadow_4668_10422"/>
<feBlend mode="normal" in="SourceGraphic" in2="effect1_dropShadow_4668_10422" result="shape"/>
</filter>
<radialGradient id="paint0_radial_4668_10422" cx="0" cy="0" r="1" gradientUnits="userSpaceOnUse" gradientTransform="translate(34 8.5) rotate(90) scale(51.5)">
<stop stop-color="#13A9D2"/>
<stop offset="1" stop-color="#6C0DC7"/>
</radialGradient>
</defs>
</svg>
