<svg xmlns="http://www.w3.org/2000/svg" xmlns:xlink="http://www.w3.org/1999/xlink" width="1280" zoomAndPan="magnify" viewBox="0 0 960 540.000001" height="720" preserveAspectRatio="xMidYMid meet" version="1.0"><defs><clipPath id="102e3de90b"><path d="M 223.902344 73 L 455 73 L 455 466.398438 L 223.902344 466.398438 Z M 223.902344 73 " clip-rule="nonzero"/></clipPath></defs><g clip-path="url(#102e3de90b)"><path fill="#aa52ff" d="M 448.230469 74.785156 C 444.246094 72.867188 439.492188 73.410156 436.015625 76.179688 L 323.765625 165.980469 L 235.480469 165.980469 C 229.109375 165.980469 223.9375 171.152344 223.9375 177.523438 L 223.9375 362.199219 C 223.9375 368.582031 229.109375 373.742188 235.480469 373.742188 L 323.765625 373.742188 L 436.027344 463.554688 C 438.105469 465.226562 440.667969 466.082031 443.230469 466.082031 C 444.925781 466.082031 446.636719 465.710938 448.230469 464.9375 C 452.234375 463.011719 454.773438 458.972656 454.773438 454.539062 L 454.773438 85.183594 C 454.773438 80.75 452.234375 76.699219 448.230469 74.785156 Z M 448.230469 74.785156 " fill-opacity="1" fill-rule="nonzero"/></g><path fill="#aa52ff" d="M 543.730469 194.753906 C 539.21875 190.242188 531.921875 190.242188 527.410156 194.753906 C 522.894531 199.269531 522.894531 206.574219 527.410156 211.074219 C 542.679688 226.347656 551.09375 246.636719 551.09375 268.210938 C 551.09375 289.78125 542.679688 310.0625 527.410156 325.34375 C 522.894531 329.859375 522.894531 337.152344 527.410156 341.664062 C 529.660156 343.917969 532.613281 345.046875 535.570312 345.046875 C 538.523438 345.046875 541.480469 343.917969 543.730469 341.664062 C 563.363281 322.03125 574.179688 295.945312 574.179688 268.210938 C 574.179688 240.472656 563.375 214.386719 543.730469 194.753906 Z M 543.730469 194.753906 " fill-opacity="1" fill-rule="nonzero"/><path fill="#aa52ff" d="M 641.679688 96.816406 C 637.164062 92.304688 629.871094 92.304688 625.359375 96.816406 C 620.84375 101.332031 620.84375 108.625 625.359375 113.136719 C 710.851562 198.644531 710.851562 337.777344 625.359375 423.292969 C 620.84375 427.804688 620.84375 435.101562 625.359375 439.613281 C 627.609375 441.863281 630.5625 442.996094 633.519531 442.996094 C 636.472656 442.996094 639.429688 441.863281 641.679688 439.613281 C 736.164062 345.105469 736.164062 191.316406 641.679688 96.816406 Z M 641.679688 96.816406 " fill-opacity="1" fill-rule="nonzero"/><path fill="#aa52ff" d="M 592.714844 145.78125 C 588.203125 141.265625 580.90625 141.265625 576.394531 145.78125 C 571.882812 150.292969 571.882812 157.589844 576.394531 162.101562 C 604.753906 190.472656 620.382812 228.148438 620.382812 268.199219 C 620.382812 308.25 604.753906 345.9375 576.394531 374.296875 C 571.882812 378.808594 571.882812 386.105469 576.394531 390.617188 C 578.644531 392.867188 581.601562 394 584.554688 394 C 587.511719 394 590.464844 392.867188 592.714844 390.617188 C 625.4375 357.894531 643.457031 314.414062 643.457031 268.199219 C 643.457031 221.984375 625.4375 178.503906 592.714844 145.78125 Z M 592.714844 145.78125 " fill-opacity="1" fill-rule="nonzero"/></svg>