<svg width="13" height="14" viewBox="0 0 13 14" fill="none" xmlns="http://www.w3.org/2000/svg">
<path id="Vector" d="M12.334 3.43222C10.299 3.23056 8.25176 3.12667 6.21065 3.12667C5.00065 3.12667 3.79065 3.18778 2.58065 3.31L1.33398 3.43222M4.6951 2.815L4.82954 2.01444C4.92732 1.43389 5.00065 1 6.03343 1H7.63454C8.66732 1 8.74676 1.45833 8.83843 2.02056L8.97287 2.815M11.0201 5.36333L10.6229 11.5172C10.5557 12.4767 10.5007 13.2222 8.79565 13.2222H4.87232C3.16732 13.2222 3.11232 12.4767 3.0451 11.5172L2.64787 5.36333M5.81343 9.86111H7.84843M5.30621 7.41667H8.36176" stroke="#B3A9BC" stroke-linecap="round" stroke-linejoin="round"/>
</svg>
