<svg width="13" height="14" viewBox="0 0 13 14" fill="none" xmlns="http://www.w3.org/2000/svg">
<path id="Vector" d="M12 3.43222C9.965 3.23056 7.91778 3.12667 5.87667 3.12667C4.66667 3.12667 3.45667 3.18778 2.24667 3.31L1 3.43222M4.36111 2.815L4.49556 2.01444C4.59333 1.43389 4.66667 1 5.69944 1H7.30056C8.33333 1 8.41278 1.45833 8.50444 2.02056L8.63889 2.815M10.6861 5.36333L10.2889 11.5172C10.2217 12.4767 10.1667 13.2222 8.46167 13.2222H4.53833C2.83333 13.2222 2.77833 12.4767 2.71111 11.5172L2.31389 5.36333M5.47944 9.86111H7.51444M4.97222 7.41667H8.02778" stroke="#DE2B2B" stroke-linecap="round" stroke-linejoin="round"/>
</svg>
