<svg width="16" height="17" viewBox="0 0 16 17" fill="none" xmlns="http://www.w3.org/2000/svg">
<g id="trash-can">
<path id="Vector" d="M14 4.48671C11.78 4.26671 9.54667 4.15337 7.32 4.15337C6 4.15337 4.68 4.22004 3.36 4.35337L2 4.48671M5.66667 3.81337L5.81333 2.94004C5.92 2.30671 6 1.83337 7.12667 1.83337H8.87333C10 1.83337 10.0867 2.33337 10.1867 2.94671L10.3333 3.81337M12.5667 6.59337L12.1333 13.3067C12.06 14.3534 12 15.1667 10.14 15.1667H5.86C4 15.1667 3.94 14.3534 3.86667 13.3067L3.43333 6.59337M6.88667 11.5H9.10667M6.33333 8.83337H9.66667" stroke="#7200E0" stroke-linecap="round" stroke-linejoin="round"/>
</g>
</svg>
