<svg width="16" height="17" viewBox="0 0 16 17" fill="none" xmlns="http://www.w3.org/2000/svg">
<g id="Frame 1332">
<g id="Group 1220">
<path id="Vector" d="M7.37066 2.54297H6.15266C3.10765 2.54297 1.88965 3.76097 1.88965 6.80598V10.46C1.88965 13.505 3.10765 14.723 6.15266 14.723H9.80667C12.8517 14.723 14.0697 13.505 14.0697 10.46V9.24198" stroke="#7200E0" stroke-linecap="round" stroke-linejoin="round"/>
<path id="Vector_2" d="M10.4404 3.16346L5.64148 7.96239C5.45877 8.14509 5.27607 8.50441 5.23953 8.76628L4.97766 10.5994C4.88022 11.2632 5.34915 11.726 6.01297 11.6347L7.84606 11.3728C8.10184 11.3363 8.46115 11.1536 8.64994 10.9709L13.4489 6.17193C14.2771 5.34369 14.6669 4.38147 13.4489 3.16346C12.2309 1.94546 11.2687 2.33522 10.4404 3.16346Z" stroke="#7200E0" stroke-miterlimit="10" stroke-linecap="round" stroke-linejoin="round"/>
<path id="Vector_3" d="M9.75195 3.85181C9.95389 4.56889 10.3366 5.2221 10.8634 5.74887C11.3901 6.27565 12.0433 6.65833 12.7604 6.86027" stroke="#7200E0" stroke-miterlimit="10" stroke-linecap="round" stroke-linejoin="round"/>
</g>
</g>
</svg>
