<svg width="108" height="79" viewBox="0 0 108 79" fill="none" xmlns="http://www.w3.org/2000/svg">
<path fill-rule="evenodd" clip-rule="evenodd" d="M28.529 48.001C28.1538 48.316 27.7857 48.6415 27.4254 48.9775C27.396 49.0049 27.3667 49.0324 27.3374 49.0599C27.1401 49.2454 26.9452 49.4341 26.7527 49.626C26.7527 49.626 26.7481 49.6305 26.752 49.6267L26.7527 49.626C26.4242 49.9534 25.5289 51.1286 25.2314 51.537C23.2789 54.2172 21.8843 57.2723 21.1414 60.5213C20.496 62.3936 20.2636 64.3836 20.4603 66.3543C20.6569 68.325 21.278 70.2297 22.2807 71.9377C23.4632 73.3247 24.9601 74.4091 26.6466 75.1006C28.333 75.792 30.1603 76.0705 31.9761 75.9128C41.6716 75.9128 54.3968 69.635 57.6448 67.9383C63.6803 64.7873 70.7095 60.5455 71.4124 55.6735C71.496 54.3482 71.2524 53.0227 70.7029 51.8138C70.1534 50.6049 69.3149 49.5497 68.2614 48.7413C57.8913 38.5782 39.9089 38.4487 28.529 48.001ZM69.8452 46.9263C57.9004 35.3364 37.0126 36.0205 24.971 48.036C21.9646 51.4019 19.8517 55.4682 18.8253 59.8616C18.0989 62.026 17.8402 64.3204 18.067 66.5931C18.2981 68.9094 19.0281 71.148 20.2065 73.1553L20.3134 73.3374L20.4504 73.4981C21.8816 75.1767 23.6931 76.4891 25.7342 77.3259C27.7423 78.1493 29.9154 78.4888 32.078 78.3178C37.335 78.2963 43.219 76.6157 48.0653 74.8166C52.9921 72.9877 57.0826 70.9455 58.7585 70.0701C61.801 68.4816 65.2363 66.5474 68.0235 64.3351C70.7187 62.196 73.3024 59.4163 73.7929 56.017L73.8067 55.9214L73.8128 55.825C73.9212 54.106 73.6052 52.3867 72.8924 50.8186C72.2006 49.2965 71.1556 47.9623 69.8452 46.9263Z" fill="#FFCA0F"/>
<path fill-rule="evenodd" clip-rule="evenodd" d="M14.9364 58.3393C5.96808 53.7581 2.23529 46.5835 3.54418 35.7973C4.04869 30.8825 5.66377 26.1466 8.26721 21.9475C10.8706 17.7484 14.3943 14.1959 18.5722 11.5586C28.2657 5.00757 40.9246 2.57912 53.0145 2.56609C53.0148 2.56609 53.0151 2.56609 53.0154 2.56609C53.0245 2.56608 53.0336 2.56607 53.0427 2.56607C53.0659 2.56609 53.0891 2.56613 53.1123 2.56617C60.4684 2.58082 67.7894 3.58348 74.8788 5.54739C88.2585 9.42558 104.862 22.8296 105.225 33.6643C105.419 39.5058 101.057 44.0626 92.2579 47.2622C82.9772 50.9357 72.8683 52.0003 63.026 50.3405C62.0565 50.1224 60.2628 49.5406 58.1783 48.8619C49.4039 46.1229 41.2112 43.6991 37.4542 46.1229C36.9115 46.4891 36.459 46.9741 36.1315 47.541C35.8039 48.108 35.6097 48.742 35.5635 49.3952C35.4138 50.7255 35.7273 52.0668 36.4515 53.1927C37.1756 54.3187 38.2661 55.1605 39.5387 55.576C42.2605 56.6066 45.1036 57.2828 47.998 57.5879L48.0516 57.5963C52.2032 58.2479 56.3902 58.9052 57.6935 60.8601C57.9306 61.2668 58.0771 61.7198 58.1231 62.1883C58.1691 62.6568 58.1135 63.1298 57.9601 63.5748C57.8474 63.939 57.6503 64.2715 57.385 64.5452C57.1197 64.819 56.7935 65.0263 56.433 65.1503C53.0881 66.6774 45.3075 66.2653 34.4728 63.9868C27.8098 62.6719 21.2732 60.7824 14.9364 58.3393ZM33.9926 66.3436C27.1984 65.0019 20.533 63.0747 14.0712 60.5834L13.9541 60.5382L13.8423 60.4811C9.01679 58.0162 5.41421 54.7523 3.24286 50.4862C1.08082 46.2383 0.463568 41.2441 1.15389 35.5295C1.69819 30.26 3.43149 25.1827 6.22306 20.6801C9.01193 16.1819 12.7843 12.3748 17.2565 9.5449C27.4931 2.63986 40.6773 0.173773 53.0154 0.160939L53.1123 0.160889C60.6854 0.175538 68.2224 1.20769 75.5209 3.22953L75.5346 3.23334L75.5484 3.23732C82.6309 5.29025 90.4341 9.80755 96.5265 15.1955C99.5828 17.8983 102.273 20.8762 104.238 23.9497C106.193 27.006 107.519 30.296 107.629 33.5836L107.629 33.5845C107.877 41.0419 102.176 46.2075 93.1116 49.5109C83.4316 53.336 72.89 54.4431 62.6261 52.7122L62.5617 52.7013L62.4981 52.687C61.3967 52.4392 59.4821 51.8158 57.4772 51.1631L57.4478 51.1535C53.0379 49.777 48.9476 48.5375 45.512 47.9241C43.7992 47.6183 42.3454 47.4869 41.1621 47.5454C39.9862 47.6035 39.2386 47.8415 38.7794 48.1304C38.5479 48.2909 38.3548 48.5006 38.214 48.7443C38.0691 48.9951 37.9832 49.2757 37.9627 49.5648L37.9592 49.6146L37.9536 49.6643C37.8657 50.4447 38.0497 51.2314 38.4744 51.8917C38.8991 52.5521 39.5387 53.0459 40.2853 53.2896L40.3383 53.307L40.3904 53.3267C42.9193 54.2842 45.5609 54.9125 48.2501 55.196L48.3108 55.2024L48.5056 55.2329C50.5114 55.5477 52.7073 55.8922 54.5716 56.4184C56.3418 56.918 58.5145 57.7557 59.6947 59.526L59.7348 59.5862L59.7713 59.6487C60.1827 60.3544 60.4369 61.1405 60.5167 61.9532C60.5954 62.7538 60.503 63.5618 60.2458 64.3238C60.0194 65.0346 59.6314 65.6833 59.1121 66.2192C58.6128 66.7343 58.0053 67.1314 57.3343 67.382C55.1001 68.3661 51.8543 68.5945 48.1343 68.3974C44.2549 68.1919 39.4758 67.4961 33.9926 66.3436ZM53.1123 2.56617L53.0154 2.56609C53.0245 2.56608 53.0336 2.56607 53.0427 2.56607C53.0659 2.56609 53.0891 2.56613 53.1123 2.56617Z" fill="#AA52FF"/>
<path fill-rule="evenodd" clip-rule="evenodd" d="M14.7066 49.3722C13.9906 42.2695 20.3282 34.0541 22.6066 31.7453C27.8451 26.413 34.1586 22.2568 41.1274 19.553C51.7767 15.3327 63.5765 15.0199 74.4345 18.67C80.9529 20.8819 86.3406 26.1546 87.4213 31.3756C87.7699 33.1968 87.6181 35.0785 86.9821 36.8203C86.3461 38.5621 85.2497 40.0988 83.8095 41.2668C77.939 46.3557 71.1821 50.3211 63.8766 52.9649C58.6967 54.9543 53.3581 56.503 47.9177 57.5943C42.169 58.814 36.3074 59.4226 30.4308 59.4099C26.8042 59.634 23.1803 58.9321 19.8996 57.3704C18.4789 56.5245 17.2716 55.3632 16.3712 53.9763C15.4707 52.5895 14.9012 51.0142 14.7066 49.3722ZM30.5009 61.8152C26.4934 62.0496 22.4912 61.2679 18.8658 59.542L18.765 59.4941L18.6691 59.437C16.9316 58.4024 15.4551 56.9822 14.3539 55.2861C13.2527 53.59 12.5562 51.6634 12.3181 49.6553L12.3157 49.6343L12.3135 49.6134C11.8823 45.335 13.5654 40.9796 15.4271 37.6004C17.3153 34.1732 19.6021 31.3662 20.8928 30.0578C26.3681 24.485 32.9664 20.1408 40.2494 17.3138C51.425 12.8872 63.8069 12.56 75.2009 16.3902L75.2073 16.3924C82.264 18.787 88.4722 24.5869 89.7765 30.8882L89.7801 30.9058L89.7835 30.9234C90.2139 33.1718 90.0266 35.4949 89.2414 37.6453C88.4609 39.7828 87.1187 41.6701 85.3564 43.1089C79.2754 48.3741 72.2798 52.4786 64.7171 55.2186C59.4219 57.2508 53.9648 58.8335 48.4039 59.9498C42.5181 61.1977 36.5174 61.8229 30.5009 61.8152Z" fill="#00DEFE"/>
</svg>
