<svg width="32" height="32" viewBox="0 0 32 32" fill="none" xmlns="http://www.w3.org/2000/svg">
<path d="M16.3122 9.28834V13.2546M16.336 4C11.9529 4 8.40351 7.54938 8.40351 11.9325V14.4337C8.40351 15.2437 8.07001 16.4586 7.65314 17.1494L6.14048 19.6744C5.21145 21.2347 5.85463 22.9737 7.56976 23.5454C13.2646 25.4392 19.4193 25.4392 25.1142 23.5454C25.4899 23.4201 25.8328 23.2119 26.1173 22.9362C26.4018 22.6606 26.6207 22.3246 26.7579 21.953C26.8951 21.5814 26.9471 21.1837 26.91 20.7893C26.8729 20.3949 26.7476 20.0139 26.5435 19.6744L25.0308 17.1494C24.6139 16.4586 24.2804 15.2318 24.2804 14.4337V11.9325C24.2685 7.5732 20.6953 4 16.336 4Z" stroke="#7B7382" stroke-width="1.5" stroke-miterlimit="10" stroke-linecap="round"/>
<mask id="path-2-inside-1_424_3993" fill="white">
<path d="M20.2782 24.0338C20.2782 26.2134 18.4916 28 16.312 28C15.2281 28 14.2276 27.5474 13.5129 26.8328C12.7983 26.1181 12.3457 25.1176 12.3457 24.0338"/>
</mask>
<path d="M18.7782 24.0338C18.7782 25.385 17.6632 26.5 16.312 26.5V29.5C19.32 29.5 21.7782 27.0418 21.7782 24.0338H18.7782ZM16.312 26.5C15.6479 26.5 15.0229 26.2214 14.5736 25.7721L12.4523 27.8934C13.4323 28.8734 14.8082 29.5 16.312 29.5V26.5ZM14.5736 25.7721C14.1243 25.3228 13.8457 24.6978 13.8457 24.0338H10.8457C10.8457 25.5375 11.4723 26.9134 12.4523 27.8934L14.5736 25.7721Z" fill="#7B7382" mask="url(#path-2-inside-1_424_3993)"/>
</svg>
