<svg width="56" height="52" viewBox="0 0 56 52" fill="none" xmlns="http://www.w3.org/2000/svg">
<rect width="56" height="52" rx="12" fill="#7200E0"/>
<path d="M32.7732 25.9999C32.7732 28.6399 30.6399 30.7732 27.9999 30.7732C25.3599 30.7732 23.2266 28.6399 23.2266 25.9999C23.2266 23.3599 25.3599 21.2266 27.9999 21.2266C30.6399 21.2266 32.7732 23.3599 32.7732 25.9999Z" stroke="white" stroke-width="2" stroke-linecap="round" stroke-linejoin="round"/>
<path d="M27.9998 37.0266C32.7065 37.0266 37.0931 34.2533 40.1465 29.4533C41.3465 27.5733 41.3465 24.4133 40.1465 22.5333C37.0931 17.7333 32.7065 14.96 27.9998 14.96C23.2931 14.96 18.9065 17.7333 15.8531 22.5333C14.6531 24.4133 14.6531 27.5733 15.8531 29.4533C18.9065 34.2533 23.2931 37.0266 27.9998 37.0266Z" stroke="white" stroke-width="2" stroke-linecap="round" stroke-linejoin="round"/>
</svg>
