<svg width="32" height="33" viewBox="0 0 32 33" fill="none" xmlns="http://www.w3.org/2000/svg">
<g filter="url(#filter0_d_3250_9281)">
<circle cx="16" cy="14" r="12" fill="white"/>
<circle cx="16" cy="14" r="11.5" stroke="#F2F1F3"/>
</g>
<path d="M13 19.4562H14.2381L15.5318 19.999H19.9291C20.3245 19.9994 20.7059 19.8479 20.9985 19.5742C21.2912 19.3005 21.4741 18.9242 21.5114 18.519L22 13.3019C22 13.2219 22 13.1419 22 13.0619C22 12.7315 21.8725 12.4147 21.6455 12.181C21.4185 11.9474 21.1106 11.8162 20.7896 11.8162H18.1968L18.4855 11.1933C18.713 10.7067 18.8307 10.1734 18.8297 9.63332C18.8297 9.41871 18.7887 9.20619 18.7089 9.00791C18.6291 8.80963 18.5121 8.62947 18.3646 8.47771C18.2172 8.32595 18.0421 8.20557 17.8495 8.12344C17.6568 8.04131 17.4504 7.99904 17.2418 7.99904C17.1024 7.99828 16.9641 8.02599 16.8351 8.08058C16.7061 8.13516 16.5889 8.21552 16.4903 8.31702C16.3917 8.41852 16.3136 8.53914 16.2606 8.6719C16.2076 8.80466 16.1806 8.94693 16.1814 9.09047C16.1807 9.84734 15.9366 10.5827 15.4874 11.1819L14.1937 12.8962H13" stroke="#8A2BE5" stroke-width="1.5" stroke-miterlimit="10"/>
<path d="M13 11.999H10V19.999H13V11.999Z" stroke="#8A2BE5" stroke-width="1.5" stroke-miterlimit="10"/>
<defs>
<filter id="filter0_d_3250_9281" x="0" y="0.04" width="32" height="32" filterUnits="userSpaceOnUse" color-interpolation-filters="sRGB">
<feFlood flood-opacity="0" result="BackgroundImageFix"/>
<feColorMatrix in="SourceAlpha" type="matrix" values="0 0 0 0 0 0 0 0 0 0 0 0 0 0 0 0 0 0 127 0" result="hardAlpha"/>
<feOffset dy="2.04"/>
<feGaussianBlur stdDeviation="2"/>
<feComposite in2="hardAlpha" operator="out"/>
<feColorMatrix type="matrix" values="0 0 0 0 0.45098 0 0 0 0 0.45098 0 0 0 0 0.45098 0 0 0 0.25 0"/>
<feBlend mode="normal" in2="BackgroundImageFix" result="effect1_dropShadow_3250_9281"/>
<feBlend mode="normal" in="SourceGraphic" in2="effect1_dropShadow_3250_9281" result="shape"/>
</filter>
</defs>
</svg>
