<svg width="20" height="21" viewBox="0 0 20 21" fill="none" xmlns="http://www.w3.org/2000/svg">
<g id="align-left/align-center/justify/justify-left/Trash-can">
<path id="Vector" d="M17.5 5.48366C14.725 5.20866 11.9333 5.06699 9.15 5.06699C7.5 5.06699 5.85 5.15033 4.2 5.31699L2.5 5.48366M7.08333 4.64199L7.26667 3.55033C7.4 2.75866 7.5 2.16699 8.90833 2.16699H11.0917C12.5 2.16699 12.6083 2.79199 12.7333 3.55866L12.9167 4.64199M15.7083 8.11699L15.1667 16.5087C15.075 17.817 15 18.8337 12.675 18.8337H7.325C5 18.8337 4.925 17.817 4.83333 16.5087L4.29167 8.11699M8.60833 14.2503H11.3833M7.91667 10.917H12.0833" stroke="#7200E0" stroke-width="1.5" stroke-linecap="round" stroke-linejoin="round"/>
</g>
</svg>
