<svg width="20" height="20" viewBox="0 0 20 20" fill="none" xmlns="http://www.w3.org/2000/svg">
<g id="trash-can">
<path id="Vector" d="M17.5 4.98366C14.725 4.70866 11.9333 4.56699 9.15 4.56699C7.5 4.56699 5.85 4.65033 4.2 4.81699L2.5 4.98366M7.08333 4.14199L7.26667 3.05033C7.4 2.25866 7.5 1.66699 8.90833 1.66699H11.0917C12.5 1.66699 12.6083 2.29199 12.7333 3.05866L12.9167 4.14199M15.7083 7.61699L15.1667 16.0087C15.075 17.317 15 18.3337 12.675 18.3337H7.325C5 18.3337 4.925 17.317 4.83333 16.0087L4.29167 7.61699M8.60833 13.7503H11.3833M7.91667 10.417H12.0833" stroke="#505050" stroke-width="1.5" stroke-linecap="round" stroke-linejoin="round"/>
</g>
</svg>
