<svg width="16" height="17" viewBox="0 0 16 17" fill="none" xmlns="http://www.w3.org/2000/svg">
<g id="trash-can">
<path id="Vector" d="M14 4.48634C11.78 4.26634 9.54667 4.15301 7.32 4.15301C6 4.15301 4.68 4.21967 3.36 4.35301L2 4.48634M5.66667 3.81301L5.81333 2.93967C5.92 2.30634 6 1.83301 7.12667 1.83301H8.87333C10 1.83301 10.0867 2.33301 10.1867 2.94634L10.3333 3.81301M12.5667 6.59301L12.1333 13.3063C12.06 14.353 12 15.1663 10.14 15.1663H5.86C4 15.1663 3.94 14.353 3.86667 13.3063L3.43333 6.59301M6.88667 11.4997H9.10667M6.33333 8.83301H9.66667" stroke="white" stroke-linecap="round" stroke-linejoin="round"/>
</g>
</svg>
