<svg width="24" height="24" viewBox="0 0 24 24" fill="none" xmlns="http://www.w3.org/2000/svg">
<path d="M17.25 8.5C18.2165 8.5 19 7.7165 19 6.75C19 5.7835 18.2165 5 17.25 5C16.2835 5 15.5 5.7835 15.5 6.75C15.5 7.7165 16.2835 8.5 17.25 8.5Z" stroke="#7B7382" stroke-width="1.5" stroke-miterlimit="10"/>
<path d="M6.75 13.75C7.7165 13.75 8.5 12.9665 8.5 12C8.5 11.0335 7.7165 10.25 6.75 10.25C5.7835 10.25 5 11.0335 5 12C5 12.9665 5.7835 13.75 6.75 13.75Z" stroke="#7B7382" stroke-width="1.5" stroke-miterlimit="10"/>
<path d="M17.25 19C18.2165 19 19 18.2165 19 17.25C19 16.2835 18.2165 15.5 17.25 15.5C16.2835 15.5 15.5 16.2835 15.5 17.25C15.5 18.2165 16.2835 19 17.25 19Z" stroke="#7B7382" stroke-width="1.5" stroke-miterlimit="10"/>
<path d="M15.5 7.625L8.5 11.125" stroke="#7B7382" stroke-width="1.5" stroke-miterlimit="10"/>
<path d="M15.5 16.375L8.5 12.875" stroke="#7B7382" stroke-width="1.5" stroke-miterlimit="10"/>
</svg>
