<svg width="24" height="24" viewBox="0 0 24 24" fill="none" xmlns="http://www.w3.org/2000/svg">
<path d="M8.62439 10.1768C8.47318 9.78192 8.07715 9.4873 7.65252 9.4873H3.82766C3.34162 9.4873 2.9954 9.87273 3.0404 10.3544L3 17.8687C3 17.8905 3.001 17.9115 3.004 17.9335C3.0714 18.4327 3.53224 18.839 4.03207 18.839H8.91401C9.39064 18.839 9.72826 18.4671 9.69906 17.9985L8.63979 10.1708C8.63439 10.1728 8.62939 10.175 8.62439 10.1768Z" fill="#7B7382"/>
<path d="M20.9925 12.7304C20.9443 12.1622 20.6567 11.7453 20.2821 11.4475C20.5643 11.2467 20.7325 10.9547 20.7685 10.5867C20.8167 10.0942 20.6879 9.32156 20.1692 8.76252C19.9068 8.48051 19.4366 8.14448 18.6881 8.14448H15.2069C15.2001 7.64045 15.2001 6.85039 15.2363 6.14874C15.2897 5.13607 14.7231 3.90099 14.1628 3.25334C13.8682 2.91192 13.5696 2.72071 13.2744 2.68431C13.1796 2.6725 13.0818 2.6665 12.9822 2.6665C12.3403 2.6665 11.5815 2.92292 11.4334 3.48576C11.3682 3.73038 11.4288 3.9888 11.4938 4.26121C11.5789 4.62384 11.6865 5.07487 11.5741 5.70471C11.384 6.77399 9.76893 9.35857 9.24609 9.8332L10.3356 17.8854C11.0526 18.1636 12.7101 18.7692 13.581 18.7692H17.9355C18.2317 18.7692 19.2224 18.7046 19.5204 17.8718C19.663 17.4705 19.6088 17.0921 19.47 16.7693C19.4684 16.7379 19.4672 16.7111 19.4664 16.6931C19.4664 16.6863 19.4654 16.6785 19.4652 16.6705C20.009 16.5253 20.3611 16.1634 20.4545 15.6276C20.5669 14.9806 20.3725 14.5329 20.1772 14.2631C20.7527 13.9949 21.0535 13.457 20.9925 12.7304Z" fill="#7B7382"/>
</svg>
