<svg width="26" height="24" viewBox="0 0 26 24" fill="none" xmlns="http://www.w3.org/2000/svg">
<path d="M14.4424 3.53587H16.394V9.01467H16.4835C16.6864 8.45366 17.0147 8.02395 17.4683 7.72554C17.9338 7.4152 18.4769 7.26002 19.0976 7.26002C20.2793 7.26002 21.1924 7.68973 21.837 8.54915C22.4815 9.39663 22.8038 10.5903 22.8038 12.1301C22.8038 13.6699 22.4815 14.8695 21.837 15.7289C21.1924 16.5764 20.2793 17.0001 19.0976 17.0001C18.4769 17.0001 17.9338 16.8449 17.4683 16.5346C17.0147 16.2242 16.6864 15.7945 16.4835 15.2455H16.394V16.7853H14.4424V3.53587ZM18.5067 15.3171C19.1871 15.3171 19.7302 15.1022 20.136 14.6725C20.5419 14.2309 20.7448 13.652 20.7448 12.9358V11.3244C20.7448 10.6082 20.5419 10.0352 20.136 9.60552C19.7302 9.16388 19.1871 8.94305 18.5067 8.94305C17.9099 8.94305 17.4086 9.09226 17.0027 9.39067C16.5969 9.67714 16.394 10.0591 16.394 10.5366V13.7236C16.394 14.201 16.5969 14.589 17.0027 14.8874C17.4086 15.1738 17.9099 15.3171 18.5067 15.3171Z" fill="#7B7382"/>
<path d="M11.4376 16.7854C10.9243 16.7854 10.5304 16.6422 10.2559 16.3557C9.98132 16.0573 9.81421 15.6813 9.75453 15.2277H9.66501C9.48596 15.8126 9.15771 16.2542 8.68026 16.5526C8.2028 16.851 7.62389 17.0002 6.94351 17.0002C5.97667 17.0002 5.23064 16.7496 4.70544 16.2483C4.19218 15.7469 3.93555 15.0725 3.93555 14.225C3.93555 13.294 4.26977 12.5957 4.9382 12.1302C5.61858 11.6647 6.6093 11.4319 7.91036 11.4319H9.59339V10.6441C9.59339 10.0712 9.43822 9.62953 9.12787 9.31919C8.81753 9.00884 8.3341 8.85367 7.6776 8.85367C7.12853 8.85367 6.68091 8.97303 6.33476 9.21176C5.9886 9.45049 5.69616 9.75486 5.45744 10.1249L4.29364 9.06852C4.60398 8.54332 5.03966 8.11361 5.60067 7.77939C6.16168 7.43324 6.89577 7.26016 7.80293 7.26016C9.00851 7.26016 9.93358 7.54067 10.5781 8.10168C11.2227 8.66269 11.545 9.46839 11.545 10.5188V15.1919H12.5297V16.7854H11.4376ZM7.49856 15.5142C8.10731 15.5142 8.60864 15.3829 9.00254 15.1203C9.39644 14.8457 9.59339 14.4817 9.59339 14.0281V12.6852H7.94617C6.59736 12.6852 5.92295 13.103 5.92295 13.9386V14.2608C5.92295 14.6786 6.06022 14.9949 6.33476 15.2098C6.62123 15.4127 7.00916 15.5142 7.49856 15.5142Z" fill="#7B7382"/>
<path d="M1 12.0002H25" stroke="#7B7382" stroke-width="1.5" stroke-linecap="round"/>
</svg>
