<svg width="24" height="24" viewBox="0 0 24 24" fill="none" xmlns="http://www.w3.org/2000/svg">
<rect x="0.75" y="0.75" width="22.5" height="22.5" rx="11.25" stroke="#7200E0" stroke-width="1.5"/>
<path d="M11.9201 13.916V13.5466C11.9201 12.3504 12.6589 11.7171 13.3978 11.207C14.119 10.7144 14.8401 10.0812 14.8401 8.92017C14.8401 7.3018 13.5384 6 11.9201 6C10.3017 6 9 7.3018 9 8.92017" stroke="#7200E0" stroke-width="1.5" stroke-linecap="round" stroke-linejoin="round"/>
<mask id="path-3-inside-1_1312_7059" fill="white">
<path fill-rule="evenodd" clip-rule="evenodd" d="M11.9136 18.1208H11.9295H11.9136Z"/>
</mask>
<path d="M11.9136 16.6208C11.0852 16.6208 10.4136 17.2923 10.4136 18.1208C10.4136 18.9492 11.0852 19.6208 11.9136 19.6208V16.6208ZM11.9295 19.6208C12.7579 19.6208 13.4295 18.9492 13.4295 18.1208C13.4295 17.2923 12.7579 16.6208 11.9295 16.6208V19.6208ZM11.9136 19.6208H11.9295V16.6208H11.9136V19.6208Z" fill="#7200E0" mask="url(#path-3-inside-1_1312_7059)"/>
</svg>
