<svg width="30" height="30" viewBox="0 0 30 30" fill="none" xmlns="http://www.w3.org/2000/svg">
<g filter="url(#filter0_d_1312_7076)">
<rect x="3" y="1" width="24" height="24" rx="2" fill="#F1E6FC" shape-rendering="crispEdges"/>
<rect x="3.5" y="1.5" width="23" height="23" rx="1.5" stroke="#C596F2" shape-rendering="crispEdges"/>
<path d="M7.75 7.75C7.75 6.64543 8.64543 5.75 9.75 5.75H20.25C21.3546 5.75 22.25 6.64543 22.25 7.75V15.25C22.25 16.3546 21.3546 17.25 20.25 17.25H17.625L15 20.25L12.375 17.25H9.75C8.64543 17.25 7.75 16.3546 7.75 15.25V7.75Z" stroke="#7200E0" stroke-width="1.5" stroke-linecap="round" stroke-linejoin="round"/>
<path d="M12.5 12C12.5 12.2761 12.2761 12.5 12 12.5C11.7239 12.5 11.5 12.2761 11.5 12C11.5 11.7239 11.7239 11.5 12 11.5C12.2761 11.5 12.5 11.7239 12.5 12Z" stroke="#7200E0" stroke-linecap="round" stroke-linejoin="round"/>
<path d="M15.5 12C15.5 12.2761 15.2761 12.5 15 12.5C14.7239 12.5 14.5 12.2761 14.5 12C14.5 11.7239 14.7239 11.5 15 11.5C15.2761 11.5 15.5 11.7239 15.5 12Z" stroke="#7200E0" stroke-linecap="round" stroke-linejoin="round"/>
<path d="M18.5 12C18.5 12.2761 18.2761 12.5 18 12.5C17.7239 12.5 17.5 12.2761 17.5 12C17.5 11.7239 17.7239 11.5 18 11.5C18.2761 11.5 18.5 11.7239 18.5 12Z" stroke="#7200E0" stroke-linecap="round" stroke-linejoin="round"/>
</g>
<defs>
<filter id="filter0_d_1312_7076" x="0.5" y="0.5" width="29" height="29" filterUnits="userSpaceOnUse" color-interpolation-filters="sRGB">
<feFlood flood-opacity="0" result="BackgroundImageFix"/>
<feColorMatrix in="SourceAlpha" type="matrix" values="0 0 0 0 0 0 0 0 0 0 0 0 0 0 0 0 0 0 127 0" result="hardAlpha"/>
<feOffset dy="2"/>
<feGaussianBlur stdDeviation="1.25"/>
<feComposite in2="hardAlpha" operator="out"/>
<feColorMatrix type="matrix" values="0 0 0 0 0 0 0 0 0 0 0 0 0 0 0 0 0 0 0.25 0"/>
<feBlend mode="normal" in2="BackgroundImageFix" result="effect1_dropShadow_1312_7076"/>
<feBlend mode="normal" in="SourceGraphic" in2="effect1_dropShadow_1312_7076" result="shape"/>
</filter>
</defs>
</svg>
