<svg width="24" height="24" viewBox="0 0 24 24" fill="none" xmlns="http://www.w3.org/2000/svg">
<path d="M12 24C18.6274 24 24 18.6274 24 12C24 5.37258 18.6274 0 12 0C5.37258 0 0 5.37258 0 12C0 18.6274 5.37258 24 12 24Z" fill="#D0E4C4"/>
<path d="M7.64648 14.7397C7.84285 15.067 8.08284 15.3725 8.35557 15.6452C10.3628 17.6525 13.6247 17.6525 15.6428 15.6452C16.461 14.827 16.9301 13.7906 17.0828 12.7324" stroke="black" stroke-width="1.5" stroke-linecap="round" stroke-linejoin="round"/>
<path d="M6.91602 11.2717C7.06874 10.2027 7.53784 9.17715 8.35602 8.35897C10.3633 6.3517 13.6251 6.3517 15.6433 8.35897C15.9269 8.64261 16.156 8.94808 16.3524 9.26444" stroke="black" stroke-width="1.5" stroke-linecap="round" stroke-linejoin="round"/>
<path d="M7.43945 17.652V14.7393H10.3522" stroke="black" stroke-width="1.5" stroke-linecap="round" stroke-linejoin="round"/>
<path d="M16.5592 6.35107V9.26378H13.6465" stroke="black" stroke-width="1.5" stroke-linecap="round" stroke-linejoin="round"/>
</svg>
