<svg width="24" height="24" viewBox="0 0 24 24" fill="none" xmlns="http://www.w3.org/2000/svg">
<path d="M8.62439 10.1769C8.47318 9.78206 8.07715 9.48744 7.65252 9.48744H3.82766C3.34162 9.48744 2.9954 9.87286 3.0404 10.3545L3 17.8688C3 17.8906 3.001 17.9116 3.004 17.9336C3.0714 18.4329 3.53224 18.8391 4.03207 18.8391H8.91401C9.39064 18.8391 9.72826 18.4673 9.69906 17.9986L8.63979 10.1709C8.63439 10.1729 8.62939 10.1751 8.62439 10.1769Z" fill="#8A2BE5"/>
<path d="M20.9925 12.7306C20.9443 12.1623 20.6567 11.7455 20.2821 11.4477C20.5643 11.2469 20.7325 10.9548 20.7685 10.5868C20.8167 10.0944 20.6879 9.32173 20.1692 8.76269C19.9068 8.48067 19.4366 8.14464 18.6881 8.14464H15.2069C15.2001 7.64061 15.2001 6.85055 15.2363 6.14891C15.2897 5.13624 14.7231 3.90115 14.1628 3.25351C13.8682 2.91208 13.5696 2.72087 13.2744 2.68447C13.1796 2.67267 13.0818 2.66667 12.9822 2.66667C12.3403 2.66667 11.5815 2.92308 11.4334 3.48592C11.3682 3.73054 11.4288 3.98896 11.4938 4.26138C11.5789 4.624 11.6865 5.07503 11.5741 5.70488C11.384 6.77415 9.76893 9.35873 9.24609 9.83336L10.3356 17.8855C11.0526 18.1637 12.7101 18.7694 13.581 18.7694H17.9355C18.2317 18.7694 19.2224 18.7048 19.5204 17.8719C19.663 17.4707 19.6088 17.0923 19.47 16.7694C19.4684 16.738 19.4672 16.7112 19.4664 16.6932C19.4664 16.6864 19.4654 16.6786 19.4652 16.6706C20.009 16.5254 20.3611 16.1636 20.4545 15.6278C20.5669 14.9807 20.3725 14.5331 20.1772 14.2633C20.7527 13.995 21.0535 13.4572 20.9925 12.7306Z" fill="#8A2BE5"/>
</svg>
