<svg width="39" height="32" viewBox="0 0 39 32" fill="none" xmlns="http://www.w3.org/2000/svg">
<g style="mix-blend-mode:multiply">
<path fill-rule="evenodd" clip-rule="evenodd" d="M0 20C0 20.5523 0.447715 21 1 21H27C27.5523 21 28 20.5523 28 20V4C28 3.44772 27.5523 3 27 3H1C0.447715 3 0 3.44772 0 4V20Z" fill="#FFFCB7"/>
</g>
<path d="M9.786 17L8.967 14.543H5.574L4.781 17H3.286L6.38 7.926H8.226L11.32 17H9.786ZM7.303 9.278H7.238L5.925 13.282H8.603L7.303 9.278ZM12.6214 7.38H14.0384V11.358H14.1034C14.2508 10.9507 14.4891 10.6387 14.8184 10.422C15.1564 10.1967 15.5508 10.084 16.0014 10.084C16.8594 10.084 17.5224 10.396 17.9904 11.02C18.4584 11.6353 18.6924 12.502 18.6924 13.62C18.6924 14.738 18.4584 15.609 17.9904 16.233C17.5224 16.8483 16.8594 17.156 16.0014 17.156C15.5508 17.156 15.1564 17.0433 14.8184 16.818C14.4891 16.5927 14.2508 16.2807 14.1034 15.882H14.0384V17H12.6214V7.38ZM15.5724 15.934C16.0664 15.934 16.4608 15.778 16.7554 15.466C17.0501 15.1453 17.1974 14.725 17.1974 14.205V13.035C17.1974 12.515 17.0501 12.099 16.7554 11.787C16.4608 11.4663 16.0664 11.306 15.5724 11.306C15.1391 11.306 14.7751 11.4143 14.4804 11.631C14.1858 11.839 14.0384 12.1163 14.0384 12.463V14.777C14.0384 15.1237 14.1858 15.4053 14.4804 15.622C14.7751 15.83 15.1391 15.934 15.5724 15.934ZM22.9278 17.156C22.4424 17.156 22.0091 17.0737 21.6278 16.909C21.2464 16.7443 20.9258 16.5103 20.6658 16.207C20.4058 15.895 20.2064 15.5223 20.0678 15.089C19.9291 14.647 19.8598 14.1573 19.8598 13.62C19.8598 13.0827 19.9291 12.5973 20.0678 12.164C20.2064 11.722 20.4058 11.3493 20.6658 11.046C20.9258 10.734 21.2464 10.4957 21.6278 10.331C22.0091 10.1663 22.4424 10.084 22.9278 10.084C23.6038 10.084 24.1584 10.2357 24.5918 10.539C25.0251 10.8423 25.3414 11.2453 25.5408 11.748L24.3708 12.294C24.2754 11.982 24.1064 11.735 23.8638 11.553C23.6298 11.3623 23.3178 11.267 22.9278 11.267C22.4078 11.267 22.0134 11.4317 21.7448 11.761C21.4848 12.0817 21.3548 12.502 21.3548 13.022V14.231C21.3548 14.751 21.4848 15.1757 21.7448 15.505C22.0134 15.8257 22.4078 15.986 22.9278 15.986C23.3438 15.986 23.6731 15.8863 23.9158 15.687C24.1671 15.479 24.3664 15.206 24.5138 14.868L25.5928 15.44C25.3674 15.9947 25.0294 16.4193 24.5788 16.714C24.1281 17.0087 23.5778 17.156 22.9278 17.156Z" fill="black"/>
<g filter="url(#filter0_d_1312_7067)">
<path d="M30.9308 20.3967C31.2969 21.1734 32.0884 21.7143 33 21.7143C33.6857 21.7143 34.1429 22.1714 34.1429 22.8571C34.1429 23.5429 33.6857 24 33 24C32.0715 24 31.1954 23.6857 30.4781 23.199C29.9581 22.8461 29.2106 22.8712 28.6943 23.2294C27.9716 23.7308 27.0841 24 26.1429 24C25.4571 24 25 23.5429 25 22.8571C25 22.1714 25.4571 21.7143 26.1429 21.7143C27.0545 21.7143 27.8459 21.1734 28.2121 20.3967C28.4476 19.8971 27.9809 19.4286 27.4286 19.4286H27.1429C26.5906 19.4286 26.1429 18.9809 26.1429 18.4286V18.1429C26.1429 17.5906 26.5906 17.1429 27.1429 17.1429H27.4286C27.9809 17.1429 28.4286 16.6951 28.4286 16.1429V4.57143C28.4286 3.31429 27.4 2.28571 26.1429 2.28571C25.4571 2.28571 25 1.82857 25 1.14286C25 0.457143 25.4571 0 26.1429 0C27.0713 0 27.9474 0.314294 28.6647 0.801027C29.1847 1.15387 29.9322 1.12879 30.4486 0.770586C31.1713 0.269178 32.0587 0 33 0C33.6857 0 34.1429 0.457143 34.1429 1.14286C34.1429 1.82857 33.6857 2.28571 33 2.28571C31.7429 2.28571 30.7143 3.31429 30.7143 4.57143V16.1429C30.7143 16.6951 31.162 17.1429 31.7143 17.1429H32C32.5523 17.1429 33 17.5906 33 18.1429V18.4286C33 18.9809 32.5523 19.4286 32 19.4286H31.7143C31.162 19.4286 30.6952 19.8971 30.9308 20.3967Z" fill="#6F6F6F"/>
</g>
<defs>
<filter id="filter0_d_1312_7067" x="21" y="0" width="17.1426" height="32" filterUnits="userSpaceOnUse" color-interpolation-filters="sRGB">
<feFlood flood-opacity="0" result="BackgroundImageFix"/>
<feColorMatrix in="SourceAlpha" type="matrix" values="0 0 0 0 0 0 0 0 0 0 0 0 0 0 0 0 0 0 127 0" result="hardAlpha"/>
<feOffset dy="4"/>
<feGaussianBlur stdDeviation="2"/>
<feComposite in2="hardAlpha" operator="out"/>
<feColorMatrix type="matrix" values="0 0 0 0 0 0 0 0 0 0 0 0 0 0 0 0 0 0 0.25 0"/>
<feBlend mode="normal" in2="BackgroundImageFix" result="effect1_dropShadow_1312_7067"/>
<feBlend mode="normal" in="SourceGraphic" in2="effect1_dropShadow_1312_7067" result="shape"/>
</filter>
</defs>
</svg>
