<svg width="48" height="48" viewBox="0 0 48 48" fill="none" xmlns="http://www.w3.org/2000/svg">
<path d="M0 8C0 3.58172 3.58172 0 8 0H40C44.4183 0 48 3.58172 48 8V40C48 44.4183 44.4183 48 40 48H8C3.58172 48 0 44.4183 0 40V8Z" fill="#FBF7FE"/>
<path d="M9.5 13.5C9.5 11.2909 11.2909 9.5 13.5 9.5H34.5C36.7092 9.5 38.5 11.2909 38.5 13.5V34.5C38.5 36.7092 36.7092 38.5 34.5 38.5H13.5C11.2909 38.5 9.5 36.7092 9.5 34.5V13.5Z" stroke="#301B72" stroke-width="2" stroke-linecap="round" stroke-linejoin="round"/>
<path d="M17.5 30.5V19.5" stroke="#301B72" stroke-width="2" stroke-linecap="round" stroke-linejoin="round"/>
<path d="M30.5 30.5V19.5" stroke="#301B72" stroke-width="2" stroke-linecap="round" stroke-linejoin="round"/>
<path d="M24 30.5V25.5" stroke="#301B72" stroke-width="2" stroke-linecap="round" stroke-linejoin="round"/>
</svg>
