<svg width="48" height="48" viewBox="0 0 48 48" fill="none" xmlns="http://www.w3.org/2000/svg">
<path d="M0 8C0 3.58172 3.58172 0 8 0H40C44.4183 0 48 3.58172 48 8V40C48 44.4183 44.4183 48 40 48H8C3.58172 48 0 44.4183 0 40V8Z" fill="#FBF7FE"/>
<path d="M24 29C26.7614 29 29 26.7614 29 24C29 21.2386 26.7614 19 24 19C21.2386 19 19 21.2386 19 24C19 26.7614 21.2386 29 24 29Z" stroke="#301B72" stroke-width="2" stroke-miterlimit="10" stroke-linecap="round" stroke-linejoin="round"/>
<path d="M8 25.3985V22.6015C8 20.9488 9.35932 19.5821 11.0385 19.5821C13.933 19.5821 15.1164 17.548 13.6612 15.053C12.8296 13.6227 13.3253 11.7634 14.7806 10.937L17.5472 9.36376C18.8106 8.61685 20.4418 9.06182 21.1934 10.3173L21.3693 10.6192C22.8086 13.1142 25.1754 13.1142 26.6307 10.6192L26.8066 10.3173C27.5582 9.06182 29.1894 8.61685 30.4528 9.36376L33.2194 10.937C34.6747 11.7634 35.1704 13.6227 34.3388 15.053C32.8836 17.548 34.067 19.5821 36.9615 19.5821C38.6247 19.5821 40 20.9329 40 22.6015V25.3985C40 27.0512 38.6407 28.4179 36.9615 28.4179C34.067 28.4179 32.8836 30.452 34.3388 32.947C35.1704 34.3932 34.6747 36.2366 33.2194 37.063L30.4528 38.6362C29.1894 39.3831 27.5582 38.9382 26.8066 37.6827L26.6307 37.3808C25.1914 34.8858 22.8246 34.8858 21.3693 37.3808L21.1934 37.6827C20.4418 38.9382 18.8106 39.3831 17.5472 38.6362L14.7806 37.063C13.3253 36.2366 12.8296 34.3773 13.6612 32.947C15.1164 30.452 13.933 28.4179 11.0385 28.4179C9.35932 28.4179 8 27.0512 8 25.3985Z" stroke="#301B72" stroke-width="2" stroke-miterlimit="10" stroke-linecap="round" stroke-linejoin="round"/>
</svg>
