<svg width="32" height="32" viewBox="0 0 32 32" fill="none" xmlns="http://www.w3.org/2000/svg">
<path d="M12.9508 9.28515C12.7236 8.98844 12.4132 8.74229 12.0489 8.59057C11.7637 8.46918 11.4499 8.40849 11.1323 8.40512H11.1178C10.4142 8.40849 9.71419 8.73892 9.29572 9.27842L9.3173 9.2919L9.09362 9.59198C8.86995 10.0269 8.80491 10.5327 8.92769 11.0048C9.09005 11.6488 9.59886 12.2085 10.2592 12.4648C10.923 12.721 11.7168 12.6603 12.3303 12.2995C12.9688 11.9219 13.3839 11.2374 13.3839 10.5125C13.3839 10.1753 13.29 9.8415 13.1241 9.54141L12.9508 9.28178V9.28515ZM27.4667 8.40512C26.7704 8.40849 26.0812 8.72881 25.659 9.25818C25.1719 9.86848 25.0745 10.7317 25.4389 11.433C25.8069 12.1411 26.626 12.6266 27.4811 12.6232C28.2858 12.6232 29.0689 12.1883 29.4585 11.5173C29.8445 10.8564 29.8157 9.9966 29.3574 9.34922C28.9461 8.76927 28.2173 8.39837 27.4667 8.40175V8.40512ZM25.2152 13.1829V17.9338C25.8322 17.4786 26.6007 17.2021 27.4163 17.192H27.4849C28.2967 17.192 29.0977 17.4584 29.7328 17.927V13.1863C29.6281 13.2639 29.5162 13.338 29.4007 13.4055C28.6322 13.8539 27.6797 14.0191 26.7848 13.8607C26.2147 13.7595 25.6699 13.5235 25.2152 13.1863V13.1829ZM7.65038 11.5308L3.43228 17.1954C3.50446 17.192 3.57306 17.192 3.64524 17.192C4.56166 17.1954 5.47094 17.5325 6.13854 18.126C6.58589 18.5205 6.92147 19.0262 7.10913 19.5758L10.2699 15.3308C10.2699 15.3308 7.99668 12.2692 7.92094 12.1343C7.80917 11.9421 7.72256 11.7432 7.65395 11.5375L7.65038 11.5308ZM14.5997 11.5308C14.3436 12.2827 13.8059 12.9469 13.0952 13.3785C12.4493 13.7696 11.6662 13.9551 10.8977 13.9146L15.1338 19.6062C15.2565 19.2319 15.4441 18.8745 15.6967 18.5609C16.357 17.7349 17.4251 17.2088 18.5544 17.1954H18.623C18.6879 17.1954 18.7492 17.1954 18.8143 17.1987L14.5962 11.5341L14.5997 11.5308ZM5.65503 21.5214C5.90028 21.0459 5.96175 20.4795 5.78495 19.9602C5.59372 19.3938 5.13536 18.9116 4.5508 18.6655C4.26581 18.5441 3.94823 18.4834 3.63438 18.48H3.61994C2.98494 18.48 2.36421 18.7498 1.93845 19.1915L1.62816 19.6062C1.28901 20.2097 1.28186 20.9751 1.63546 21.5887C1.95288 22.1418 2.55188 22.5498 3.21218 22.6644C3.9158 22.7858 4.67 22.5767 5.18953 22.1115C5.20753 22.0946 5.22554 22.0777 5.2437 22.0609L5.65131 21.5146L5.65503 21.5214ZM29.7292 20.5334C29.7039 19.7512 29.1842 18.9993 28.3941 18.6688C28.109 18.5475 27.7914 18.4868 27.4776 18.4834H27.4631C26.8064 18.4834 26.1605 18.77 25.7348 19.242C25.1899 19.8523 25.0493 20.756 25.428 21.4978C25.7312 22.0946 26.3518 22.5463 27.0482 22.6712C27.5895 22.7656 28.1703 22.6712 28.6467 22.398C29.2961 22.0271 29.7219 21.3426 29.7292 20.6177V20.5975V20.5368V20.5334ZM20.3188 19.2151C19.8966 18.77 19.2725 18.4868 18.623 18.4868H18.6086C17.7029 18.4901 16.8261 19.0397 16.4978 19.8591C16.2668 20.4424 16.3281 21.1134 16.6601 21.6562L16.8694 21.9395C17.2916 22.415 17.9446 22.7082 18.6122 22.7082C19.3229 22.7082 20.0303 22.3745 20.4487 21.8249C20.9323 21.1943 21.008 20.3109 20.604 19.6062L20.3153 19.2151H20.3188ZM31.1111 20.5975C31.1111 20.7526 31.1002 20.9077 31.0787 21.0628C30.9343 22.0473 30.3029 22.9543 29.4043 23.4837C28.4266 24.057 27.1493 24.1648 26.0703 23.7434C25.0709 23.3556 24.2771 22.5329 23.9704 21.5517C23.8729 21.2449 23.826 20.9212 23.826 20.6009V10.3304H23.8369C23.8549 10.0168 23.9162 9.70325 24.0245 9.40317C24.4467 8.26687 25.54 7.37335 26.8353 7.16093C27.0482 7.12721 27.2648 7.11035 27.4811 7.11035C28.3977 7.11372 29.307 7.4509 29.9744 8.04434C30.642 8.63441 31.0498 9.46386 31.1038 10.3304H31.1111V20.5941V20.5975ZM7.9065 8.92774C8.42245 8.01736 9.39319 7.34301 10.4937 7.16093C10.7065 7.12721 10.923 7.11035 11.1396 7.11035C12.056 7.11372 12.9653 7.4509 13.6327 8.04434C13.907 8.28711 14.138 8.57371 14.3183 8.88391L21.4085 18.4058C21.5493 18.5609 21.6719 18.7295 21.7802 18.9049L21.8307 18.9723H21.8235C22.0039 19.2892 22.1338 19.6298 22.2024 19.9805C22.3792 20.8875 22.141 21.8619 21.5565 22.6037C21.0189 23.2916 20.1962 23.7771 19.2978 23.9356C18.3921 24.094 17.4215 23.9187 16.6493 23.4533C16.3101 23.2477 16.0107 22.9914 15.7617 22.6947L15.74 22.6644C15.6714 22.5801 15.6065 22.4924 15.5452 22.4014L11.1178 16.4569L6.87102 22.162C6.79156 22.3037 6.70137 22.4418 6.60389 22.5734C5.93287 23.4467 4.81064 23.9963 3.64167 23.9963C2.80442 23.9963 1.97461 23.7198 1.32517 23.2173C0.603399 22.6611 0.127182 21.8416 0.0225627 20.9684C-0.0604778 20.2873 0.0874466 19.5792 0.437467 18.9723H0.433897L0.466338 18.9251C0.513215 18.8442 0.567387 18.7632 0.625129 18.6891C0.700877 18.5845 0.780196 18.4868 0.866808 18.3924L7.91736 8.92437L7.9065 8.92774Z" fill="#7200E0"/>
</svg>
