<svg width="40" height="40" viewBox="0 0 40 40" fill="none" xmlns="http://www.w3.org/2000/svg">
<path d="M0 4C0 1.79086 1.79086 0 4 0H36C38.2091 0 40 1.79086 40 4V36C40 38.2091 38.2091 40 36 40H4C1.79086 40 0 38.2091 0 36V4Z" fill="#F1E6FC"/>
<path d="M16.9508 13.2852C16.7236 12.9884 16.4132 12.7423 16.0489 12.5906C15.7637 12.4692 15.4499 12.4085 15.1323 12.4051H15.1178C14.4142 12.4085 13.7142 12.7389 13.2957 13.2784L13.3173 13.2919L13.0936 13.592C12.8699 14.0269 12.8049 14.5327 12.9277 15.0048C13.09 15.6488 13.5989 16.2085 14.2592 16.4648C14.923 16.721 15.7168 16.6603 16.3303 16.2995C16.9688 15.9219 17.3839 15.2374 17.3839 14.5125C17.3839 14.1753 17.29 13.8415 17.1241 13.5414L16.9508 13.2818V13.2852ZM31.4667 12.4051C30.7704 12.4085 30.0812 12.7288 29.659 13.2582C29.1719 13.8685 29.0745 14.7317 29.4389 15.433C29.8069 16.1411 30.626 16.6266 31.4811 16.6232C32.2858 16.6232 33.0689 16.1883 33.4585 15.5173C33.8445 14.8564 33.8157 13.9966 33.3574 13.3492C32.9461 12.7693 32.2173 12.3984 31.4667 12.4017V12.4051ZM29.2152 17.1829V21.9338C29.8322 21.4786 30.6007 21.2021 31.4163 21.192H31.4849C32.2967 21.192 33.0977 21.4584 33.7328 21.927V17.1863C33.6281 17.2639 33.5162 17.338 33.4007 17.4055C32.6322 17.8539 31.6797 18.0191 30.7848 17.8607C30.2147 17.7595 29.6699 17.5235 29.2152 17.1863V17.1829ZM11.6504 15.5308L7.43228 21.1954C7.50446 21.192 7.57306 21.192 7.64524 21.192C8.56166 21.1954 9.47094 21.5325 10.1385 22.126C10.5859 22.5205 10.9215 23.0262 11.1091 23.5758L14.2699 19.3308C14.2699 19.3308 11.9967 16.2692 11.9209 16.1343C11.8092 15.9421 11.7226 15.7432 11.654 15.5375L11.6504 15.5308ZM18.5997 15.5308C18.3436 16.2827 17.8059 16.9469 17.0952 17.3785C16.4493 17.7696 15.6662 17.9551 14.8977 17.9146L19.1338 23.6062C19.2565 23.2319 19.4441 22.8745 19.6967 22.5609C20.357 21.7349 21.4251 21.2088 22.5544 21.1954H22.623C22.6879 21.1954 22.7492 21.1954 22.8143 21.1987L18.5962 15.5341L18.5997 15.5308ZM9.65503 25.5214C9.90028 25.0459 9.96175 24.4795 9.78495 23.9602C9.59372 23.3938 9.13536 22.9116 8.5508 22.6655C8.26581 22.5441 7.94823 22.4834 7.63438 22.48H7.61994C6.98494 22.48 6.36421 22.7498 5.93845 23.1915L5.62816 23.6062C5.28901 24.2097 5.28186 24.9751 5.63546 25.5887C5.95288 26.1418 6.55188 26.5498 7.21218 26.6644C7.9158 26.7858 8.67 26.5767 9.18953 26.1115C9.20753 26.0946 9.22554 26.0777 9.2437 26.0609L9.65131 25.5146L9.65503 25.5214ZM33.7292 24.5334C33.7039 23.7512 33.1842 22.9993 32.3941 22.6688C32.109 22.5475 31.7914 22.4868 31.4776 22.4834H31.4631C30.8064 22.4834 30.1605 22.77 29.7348 23.242C29.1899 23.8523 29.0493 24.756 29.428 25.4978C29.7312 26.0946 30.3518 26.5463 31.0482 26.6712C31.5895 26.7656 32.1703 26.6712 32.6467 26.398C33.2961 26.0271 33.7219 25.3426 33.7292 24.6177V24.5975V24.5368V24.5334ZM24.3188 23.2151C23.8966 22.77 23.2725 22.4868 22.623 22.4868H22.6086C21.7029 22.4901 20.8261 23.0397 20.4978 23.8591C20.2668 24.4424 20.3281 25.1134 20.6601 25.6562L20.8694 25.9395C21.2916 26.415 21.9446 26.7082 22.6122 26.7082C23.3229 26.7082 24.0303 26.3745 24.4487 25.8249C24.9323 25.1943 25.008 24.3109 24.604 23.6062L24.3153 23.2151H24.3188ZM35.1111 24.5975C35.1111 24.7526 35.1002 24.9077 35.0787 25.0628C34.9343 26.0473 34.3029 26.9543 33.4043 27.4837C32.4266 28.057 31.1493 28.1648 30.0703 27.7434C29.0709 27.3556 28.2771 26.5329 27.9704 25.5517C27.8729 25.2449 27.826 24.9212 27.826 24.6009V14.3304H27.8369C27.8549 14.0168 27.9162 13.7032 28.0245 13.4032C28.4467 12.2669 29.54 11.3734 30.8353 11.1609C31.0482 11.1272 31.2648 11.1104 31.4811 11.1104C32.3977 11.1137 33.307 11.4509 33.9744 12.0443C34.642 12.6344 35.0498 13.4639 35.1038 14.3304H35.1111V24.5941V24.5975ZM11.9065 12.9277C12.4225 12.0174 13.3932 11.343 14.4937 11.1609C14.7065 11.1272 14.923 11.1104 15.1396 11.1104C16.056 11.1137 16.9653 11.4509 17.6327 12.0443C17.907 12.2871 18.138 12.5737 18.3183 12.8839L25.4085 22.4058C25.5493 22.5609 25.6719 22.7295 25.7802 22.9049L25.8307 22.9723H25.8235C26.0039 23.2892 26.1338 23.6298 26.2024 23.9805C26.3792 24.8875 26.141 25.8619 25.5565 26.6037C25.0189 27.2916 24.1962 27.7771 23.2978 27.9356C22.3921 28.094 21.4215 27.9187 20.6493 27.4533C20.3101 27.2477 20.0107 26.9914 19.7617 26.6947L19.74 26.6644C19.6714 26.5801 19.6065 26.4924 19.5452 26.4014L15.1178 20.4569L10.871 26.162C10.7916 26.3037 10.7014 26.4418 10.6039 26.5734C9.93287 27.4467 8.81064 27.9963 7.64167 27.9963C6.80442 27.9963 5.97461 27.7198 5.32517 27.2173C4.6034 26.6611 4.12718 25.8416 4.02256 24.9684C3.93952 24.2873 4.08745 23.5792 4.43747 22.9723H4.4339L4.46634 22.9251C4.51322 22.8442 4.56739 22.7632 4.62513 22.6891C4.70088 22.5845 4.7802 22.4868 4.86681 22.3924L11.9174 12.9244L11.9065 12.9277Z" fill="#7200E0"/>
</svg>
