<svg width="255" height="209" viewBox="0 0 255 209" fill="none" xmlns="http://www.w3.org/2000/svg">
<path d="M205.01 79C204.73 80.3987 203.824 81.9022 203.108 83.1337C201.633 85.6715 200.009 88.4379 197.927 90.5192C196.507 91.9394 194.678 93.7532 192.802 94.5702C192.529 94.6888 190.286 95.1214 191.231 95.1214C193.186 95.1214 194.821 94.6931 196.605 93.8537C199.646 92.4223 202.736 90.8881 205.272 88.6453C207.26 86.886 209.022 85.061 210.714 83.0235C211.667 81.8768 212.403 80.5359 213.443 79.496" stroke="#C4C4C4" stroke-width="3" stroke-linecap="round"/>
<g filter="url(#filter0_d_2111_7995)">
<path d="M117.959 26.982C117.959 24.2305 120.19 22 122.941 22H216.769C219.52 22 221.751 24.2305 221.751 26.982V76.802C221.751 79.5535 219.52 81.784 216.769 81.784H122.941C120.189 81.784 117.959 79.5535 117.959 76.802V26.982Z" fill="white" shape-rendering="crispEdges"/>
<rect x="124.602" y="28.6426" width="90.5063" height="5.81233" rx="2.90617" fill="#B2AEB7" fill-opacity="0.5"/>
<rect x="124.602" y="37.7764" width="71.4087" height="5.81233" rx="2.90617" fill="#B2AEB7" fill-opacity="0.5"/>
<rect x="124.602" y="46.9102" width="46.4987" height="5.81233" rx="2.90617" fill="#B2AEB7" fill-opacity="0.5"/>
<path d="M125.017 67.2534C125.017 63.1262 128.363 59.7804 132.49 59.7804H150.757C154.884 59.7804 158.23 63.1262 158.23 67.2534C158.23 71.3806 154.884 74.7264 150.757 74.7264H132.49C128.363 74.7264 125.017 71.3806 125.017 67.2534Z" stroke="#918B97" stroke-width="0.830333"/>
<rect x="131.244" y="64.3472" width="20.7583" height="5.81233" rx="2.90617" fill="#918B97"/>
</g>
<path d="M114.451 112.756C113.531 111.562 112.273 110.571 110.798 109.96C109.643 109.471 108.372 109.227 107.086 109.213H107.027C104.178 109.227 101.342 110.557 99.6477 112.729L99.735 112.784L98.8292 113.992C97.9233 115.743 97.6599 117.779 98.1571 119.68C98.8147 122.273 100.875 124.527 103.55 125.559C106.238 126.59 109.453 126.346 111.938 124.893C114.524 123.373 116.205 120.617 116.205 117.698C116.205 116.34 115.824 114.996 115.152 113.788L114.451 112.743V112.756ZM173.24 109.213C170.42 109.227 167.629 110.516 165.919 112.648C163.946 115.105 163.552 118.581 165.028 121.404C166.518 124.255 169.835 126.21 173.299 126.197C176.557 126.197 179.729 124.445 181.307 121.744C182.87 119.083 182.753 115.621 180.898 113.014C179.232 110.679 176.28 109.186 173.24 109.2V109.213ZM164.122 128.45V147.579C166.621 145.746 169.733 144.633 173.036 144.592H173.314C176.601 144.592 179.846 145.664 182.418 147.551V128.464C181.994 128.776 181.541 129.075 181.073 129.346C177.961 131.152 174.103 131.817 170.479 131.179C168.17 130.772 165.963 129.821 164.122 128.464V128.45ZM92.9841 121.798L75.9007 144.605C76.1931 144.592 76.4709 144.592 76.7632 144.592C80.4747 144.605 84.1573 145.963 86.8611 148.352C88.6728 149.941 90.032 151.977 90.792 154.19L103.593 137.098C103.593 137.098 94.3866 124.771 94.0798 124.228C93.6271 123.454 93.2764 122.653 92.9985 121.825L92.9841 121.798ZM121.129 121.798C120.092 124.825 117.914 127.5 115.036 129.238C112.42 130.812 109.248 131.559 106.136 131.396L123.292 154.312C123.789 152.805 124.549 151.366 125.572 150.104C128.246 146.778 132.571 144.66 137.145 144.605H137.423C137.686 144.605 137.934 144.605 138.198 144.619L121.114 121.812L121.129 121.798ZM84.9029 162.023C85.8961 160.109 86.1451 157.828 85.429 155.738C84.6546 153.457 82.7982 151.516 80.4307 150.525C79.2765 150.036 77.9903 149.791 76.7192 149.778H76.6608C74.089 149.778 71.5751 150.864 69.8507 152.642L68.5941 154.312C67.2205 156.742 67.1915 159.824 68.6236 162.295C69.9092 164.521 72.3351 166.164 75.0093 166.625C77.859 167.114 80.9135 166.272 83.0176 164.399C83.0905 164.331 83.1634 164.263 83.237 164.196L84.8878 161.996L84.9029 162.023ZM182.403 158.046C182.301 154.896 180.196 151.869 176.996 150.538C175.841 150.049 174.555 149.805 173.284 149.791H173.226C170.566 149.791 167.95 150.945 166.226 152.846C164.019 155.303 163.45 158.942 164.984 161.929C166.211 164.331 168.725 166.15 171.545 166.653C173.737 167.033 176.09 166.653 178.019 165.553C180.649 164.059 182.374 161.304 182.403 158.385V158.304V158.059V158.046ZM144.291 152.737C142.581 150.945 140.054 149.805 137.423 149.805H137.365C133.697 149.819 130.146 152.031 128.816 155.33C127.881 157.679 128.129 160.381 129.474 162.566L130.321 163.707C132.031 165.621 134.676 166.802 137.379 166.802C140.258 166.802 143.123 165.458 144.817 163.245C146.776 160.707 147.082 157.15 145.446 154.312L144.277 152.737H144.291ZM188 158.304C188 158.928 187.956 159.552 187.869 160.177C187.284 164.141 184.727 167.793 181.087 169.924C177.128 172.233 171.955 172.667 167.585 170.97C163.537 169.409 160.322 166.096 159.08 162.146C158.685 160.91 158.495 159.607 158.495 158.317V116.965H158.539C158.612 115.702 158.861 114.44 159.299 113.232C161.009 108.657 165.437 105.059 170.683 104.204C171.545 104.068 172.422 104 173.299 104C177.011 104.014 180.693 105.371 183.396 107.761C186.1 110.136 187.752 113.476 187.97 116.965H188V158.29V158.304ZM94.0213 111.317C96.1109 107.652 100.042 104.937 104.499 104.204C105.361 104.068 106.238 104 107.115 104C110.827 104.014 114.509 105.371 117.213 107.761C118.323 108.738 119.259 109.892 119.989 111.141L148.704 149.479C149.274 150.104 149.771 150.782 150.21 151.488L150.414 151.76H150.385C151.116 153.036 151.642 154.407 151.92 155.819C152.636 159.471 151.671 163.394 149.304 166.381C147.126 169.151 143.795 171.105 140.156 171.744C136.488 172.382 132.557 171.676 129.43 169.802C128.056 168.974 126.843 167.942 125.835 166.748L125.747 166.625C125.469 166.286 125.206 165.933 124.958 165.566L107.027 141.632L89.8276 164.603C89.5058 165.173 89.1405 165.729 88.7458 166.259C86.0281 169.775 81.4831 171.988 76.7488 171.988C73.3579 171.988 69.9972 170.875 67.3669 168.852C64.4438 166.612 62.5151 163.313 62.0914 159.797C61.7551 157.055 62.3542 154.204 63.7717 151.76H63.7573L63.8887 151.57C64.0785 151.244 64.2979 150.918 64.5318 150.62C64.8386 150.199 65.1598 149.805 65.5106 149.425L94.0653 111.304L94.0213 111.317Z" fill="url(#paint0_linear_2111_7995)"/>
<path d="M61.6111 96.5795C59.2334 90.7434 59.5578 85.8878 66.1456 83.4378C69.2841 82.2706 78.0817 83.8658 77.0201 88.938C76.1773 92.9645 68.0861 87.8918 66.9014 86.8387C61.7997 82.3038 65.8235 77.8354 70.3862 74.8306C74.2293 72.2998 79.1747 72.3783 81.2607 77.0139C81.9187 78.4762 82.3569 80.6031 82.0165 82.2202C81.7324 83.5695 77.1352 77.1504 76.8941 76.72C75.7341 74.6486 74.4589 71.6019 74.4589 69.1625C74.4589 67.3036 76.3208 66.5394 77.8178 65.9715C81.1925 64.6915 86.6482 64.3867 89.574 66.7273" stroke="#83A1ED" stroke-width="3" stroke-linecap="round"/>
<path d="M199.832 156.344C204.136 156.344 207.737 154.878 207.65 150.18C207.622 148.675 206.644 147.214 205.127 146.747C204.259 146.48 204.75 150.089 205.127 150.511C205.651 151.099 208.106 150.924 208.767 150.594C210.237 149.859 212.085 147.936 212.862 146.499C214.108 144.193 215.692 139.27 213.978 136.985" stroke="#83A1ED" stroke-width="3" stroke-linecap="round"/>
<defs>
<filter id="filter0_d_2111_7995" x="113.959" y="20.04" width="111.791" height="67.7842" filterUnits="userSpaceOnUse" color-interpolation-filters="sRGB">
<feFlood flood-opacity="0" result="BackgroundImageFix"/>
<feColorMatrix in="SourceAlpha" type="matrix" values="0 0 0 0 0 0 0 0 0 0 0 0 0 0 0 0 0 0 127 0" result="hardAlpha"/>
<feOffset dy="2.04"/>
<feGaussianBlur stdDeviation="2"/>
<feComposite in2="hardAlpha" operator="out"/>
<feColorMatrix type="matrix" values="0 0 0 0 0.439216 0 0 0 0 0.439216 0 0 0 0 0.439216 0 0 0 0.1 0"/>
<feBlend mode="normal" in2="BackgroundImageFix" result="effect1_dropShadow_2111_7995"/>
<feBlend mode="normal" in="SourceGraphic" in2="effect1_dropShadow_2111_7995" result="shape"/>
</filter>
<linearGradient id="paint0_linear_2111_7995" x1="125" y1="104" x2="125" y2="172" gradientUnits="userSpaceOnUse">
<stop stop-color="#00DEFE"/>
<stop offset="1" stop-color="#893EC4"/>
</linearGradient>
</defs>
</svg>
