<svg width="36" height="36" viewBox="0 0 36 36" fill="none" xmlns="http://www.w3.org/2000/svg">
<path d="M14.5697 10.4466C14.314 10.1128 13.9648 9.83593 13.555 9.66525C13.2342 9.52868 12.8811 9.4604 12.5238 9.45661H12.5076C11.716 9.4604 10.9285 9.83214 10.4577 10.4391L10.482 10.4542L10.2303 10.7918C9.97869 11.2812 9.90553 11.8502 10.0436 12.3812C10.2263 13.1057 10.7987 13.7354 11.5416 14.0237C12.2884 14.312 13.1814 14.2437 13.8715 13.8378C14.59 13.413 15.0569 12.6429 15.0569 11.8274C15.0569 11.4481 14.9512 11.0725 14.7646 10.7349L14.5697 10.4429V10.4466ZM30.9 9.45661C30.1167 9.4604 29.3414 9.82076 28.8664 10.4163C28.3184 11.1029 28.2088 12.074 28.6188 12.863C29.0328 13.6595 29.9543 14.2058 30.9163 14.202C31.8215 14.202 32.7025 13.7126 33.1408 12.9578C33.5751 12.2143 33.5426 11.247 33.0271 10.5187C32.5644 9.86629 31.7445 9.44903 30.9 9.45282V9.45661ZM28.3671 14.8317V20.1764C29.0613 19.6643 29.9258 19.3532 30.8433 19.3418H30.9205C31.8337 19.3418 32.735 19.6415 33.4494 20.1688V14.8355C33.3317 14.9227 33.2058 15.0062 33.0758 15.082C32.2113 15.5865 31.1396 15.7724 30.1329 15.5941C29.4915 15.4803 28.8786 15.2148 28.3671 14.8355V14.8317ZM8.60668 12.973L3.86132 19.3456C3.94252 19.3418 4.0197 19.3418 4.10089 19.3418C5.13187 19.3456 6.15481 19.725 6.90586 20.3926C7.40913 20.8364 7.78665 21.4054 7.99777 22.0237L11.5536 17.248C11.5536 17.248 8.99627 13.8037 8.91105 13.652C8.78532 13.4357 8.68788 13.2119 8.6107 12.9806L8.60668 12.973ZM16.4247 12.973C16.1366 13.8189 15.5317 14.5661 14.7321 15.0517C14.0055 15.4917 13.1245 15.7003 12.26 15.6548L17.0256 22.0578C17.1635 21.6368 17.3747 21.2347 17.6588 20.8819C18.4016 19.9526 19.6032 19.3608 20.8737 19.3456H20.9509C21.0239 19.3456 21.0929 19.3456 21.1661 19.3494L16.4207 12.9768L16.4247 12.973ZM6.36191 24.2124C6.63782 23.6775 6.70696 23.0403 6.50807 22.4561C6.29293 21.8188 5.77728 21.2764 5.11965 20.9995C4.79904 20.8629 4.44176 20.7947 4.08867 20.7909H4.07244C3.35805 20.7909 2.65974 21.0943 2.18075 21.5912L1.83168 22.0578C1.45013 22.7368 1.4421 23.5978 1.83989 24.2882C2.19699 24.9104 2.87086 25.3694 3.61371 25.4983C4.40527 25.6349 5.25375 25.3996 5.83822 24.8762C5.85848 24.8572 5.87874 24.8382 5.89916 24.8193L6.35772 24.2048L6.36191 24.2124ZM33.4453 23.101C33.4169 22.2209 32.8322 21.375 31.9434 21.0033C31.6226 20.8667 31.2654 20.7985 30.9123 20.7947H30.896C30.1572 20.7947 29.4306 21.1171 28.9516 21.6482C28.3387 22.3347 28.1805 23.3513 28.6066 24.1859C28.9476 24.8572 29.6457 25.3655 30.4293 25.5059C31.0382 25.6121 31.6916 25.5059 32.2275 25.1987C32.9581 24.7813 33.4371 24.0113 33.4453 23.1958V23.173V23.1048V23.101ZM22.8587 21.6178C22.3837 21.1171 21.6815 20.7985 20.9509 20.7985H20.9347C19.9158 20.8023 18.9293 21.4206 18.56 22.3423C18.3002 22.9986 18.3691 23.7534 18.7426 24.3641L18.978 24.6828C19.453 25.2177 20.1877 25.5476 20.9387 25.5476C21.7383 25.5476 22.534 25.1722 23.0048 24.5538C23.5488 23.8445 23.634 22.8506 23.1795 22.0578L22.8547 21.6178H22.8587ZM35 23.173C35 23.3475 34.9878 23.522 34.9635 23.6965C34.8011 24.8041 34.0907 25.8245 33.0799 26.42C31.9799 27.065 30.5429 27.1863 29.3291 26.7122C28.2047 26.2759 27.3117 25.3504 26.9667 24.2466C26.857 23.9014 26.8043 23.5372 26.8043 23.1768V11.6226H26.8165C26.8368 11.2698 26.9057 10.917 27.0276 10.5794C27.5026 9.30109 28.7325 8.29587 30.1897 8.0569C30.4293 8.01897 30.6728 8 30.9163 8C31.9474 8.00379 32.9704 8.38312 33.7212 9.05073C34.4723 9.71456 34.931 10.6477 34.9918 11.6226H35V23.1692V23.173ZM8.89481 10.0446C9.47526 9.02039 10.5673 8.26174 11.8054 8.0569C12.0448 8.01897 12.2884 8 12.532 8C13.563 8.00379 14.5859 8.38312 15.3368 9.05073C15.6454 9.32385 15.9052 9.64628 16.1081 9.99525L24.0845 20.7074C24.2429 20.8819 24.3809 21.0716 24.5027 21.2688L24.5595 21.3447H24.5515C24.7544 21.7013 24.9005 22.0844 24.9777 22.4789C25.1766 23.4993 24.9086 24.5955 24.2511 25.43C23.6462 26.2039 22.7207 26.75 21.71 26.9284C20.6911 27.1066 19.5992 26.9094 18.7304 26.3859C18.3489 26.1545 18.012 25.8662 17.7319 25.5324L17.7075 25.4983C17.6303 25.4035 17.5573 25.3048 17.4883 25.2024L12.5076 18.5149L7.7299 24.9332C7.6405 25.0925 7.53904 25.2479 7.42938 25.3959C6.67448 26.3784 5.41197 26.9967 4.09688 26.9967C3.15497 26.9967 2.22143 26.6857 1.49081 26.1204C0.678823 25.4946 0.14308 24.5727 0.0253831 23.5903C-0.0680375 22.8241 0.0983774 22.0275 0.49215 21.3447H0.488134L0.52463 21.2916C0.577367 21.2005 0.638311 21.1095 0.70327 21.0261C0.788487 20.9085 0.877721 20.7985 0.975159 20.6923L8.90703 10.0408L8.89481 10.0446Z" fill="#00DEFE"/>
</svg>
