<svg width="24" height="24" viewBox="0 0 24 24" fill="none" xmlns="http://www.w3.org/2000/svg">
<path d="M9.71313 6.96411C9.5427 6.74157 9.30987 6.55696 9.03664 6.44317C8.82279 6.35213 8.5874 6.30661 8.34921 6.30408H8.33838C7.81067 6.30661 7.28565 6.55444 6.97179 6.95906L6.98797 6.96917L6.82022 7.19423C6.65246 7.52045 6.60368 7.89978 6.69577 8.25382C6.81754 8.73683 7.19914 9.15661 7.69437 9.34881C8.19228 9.541 8.78763 9.49547 9.2477 9.22489C9.72663 8.94166 10.0379 8.42831 10.0379 7.88461C10.0379 7.63173 9.96749 7.38137 9.84304 7.1563L9.71313 6.96158V6.96411ZM20.6 6.30408C20.0778 6.30661 19.5609 6.54685 19.2443 6.94388C18.8789 7.4016 18.8058 8.04898 19.0792 8.57498C19.3552 9.10604 19.9695 9.47019 20.6109 9.46766C21.2143 9.46766 21.8017 9.14144 22.0939 8.6382C22.3834 8.14255 22.3617 7.49769 22.0181 7.01216C21.7096 6.5772 21.163 6.29902 20.6 6.30155V6.30408ZM18.9114 9.88744V13.4506C19.3742 13.1092 19.9506 12.9018 20.5622 12.8942H20.6136C21.2225 12.8942 21.8233 13.094 22.2996 13.4455V9.88998C22.2211 9.94814 22.1372 10.0038 22.0506 10.0544C21.4742 10.3907 20.7597 10.5146 20.0886 10.3957C19.661 10.3199 19.2524 10.1429 18.9114 9.88998V9.88744ZM5.73779 8.64832L2.57421 12.8968C2.62834 12.8942 2.6798 12.8942 2.73393 12.8942C3.42125 12.8968 4.10321 13.1497 4.60391 13.5947C4.93942 13.8906 5.1911 14.2699 5.33185 14.6821L7.70241 11.4983C7.70241 11.4983 5.99751 9.20214 5.9407 9.10098C5.85688 8.95684 5.79192 8.80763 5.74047 8.65338L5.73779 8.64832ZM10.9498 8.64832C10.7577 9.21225 10.3545 9.71043 9.82139 10.0341C9.33699 10.3275 8.74968 10.4666 8.17331 10.4362L11.3504 14.7049C11.4424 14.4242 11.5831 14.1561 11.7725 13.9209C12.2677 13.3014 13.0688 12.9069 13.9158 12.8968H13.9673C14.0159 12.8968 14.0619 12.8968 14.1107 12.8993L10.9471 8.65084L10.9498 8.64832ZM4.24127 16.1413C4.42521 15.7847 4.47131 15.3599 4.33871 14.9704C4.19529 14.5456 3.85152 14.1839 3.4131 13.9993C3.19936 13.9083 2.96118 13.8628 2.72578 13.8603H2.71496C2.2387 13.8603 1.77316 14.0626 1.45383 14.3938L1.22112 14.7049C0.966754 15.1575 0.961398 15.7316 1.22659 16.1918C1.46466 16.6066 1.91391 16.9126 2.40914 16.9985C2.93685 17.0896 3.5025 16.9328 3.89214 16.5838C3.90565 16.5712 3.91916 16.5585 3.93277 16.5459L4.23848 16.1362L4.24127 16.1413ZM22.2969 15.4003C22.2779 14.8136 21.8882 14.2497 21.2956 14.0019C21.0818 13.9108 20.8436 13.8653 20.6082 13.8628H20.5973C20.1048 13.8628 19.6204 14.0777 19.3011 14.4318C18.8925 14.8895 18.787 15.5672 19.071 16.1236C19.2984 16.5712 19.7638 16.91 20.2862 17.0036C20.6921 17.0744 21.1277 17.0036 21.485 16.7988C21.9721 16.5205 22.2914 16.0072 22.2969 15.4635V15.4484V15.4028V15.4003ZM15.2391 14.4115C14.9225 14.0777 14.4544 13.8653 13.9673 13.8653H13.9565C13.2772 13.8678 12.6195 14.28 12.3733 14.8945C12.2001 15.332 12.2461 15.8353 12.4951 16.2424L12.652 16.4549C12.9687 16.8115 13.4584 17.0314 13.9591 17.0314C14.4922 17.0314 15.0227 16.7811 15.3366 16.3689C15.6992 15.896 15.756 15.2334 15.453 14.7049L15.2364 14.4115H15.2391ZM23.3333 15.4484C23.3333 15.5647 23.3252 15.681 23.309 15.7974C23.2007 16.5357 22.7272 17.216 22.0532 17.613C21.3199 18.043 20.362 18.1239 19.5528 17.8078C18.8032 17.517 18.2078 16.8999 17.9778 16.164C17.9047 15.9339 17.8695 15.6911 17.8695 15.4509V7.74805H17.8777C17.8912 7.51287 17.9372 7.27768 18.0184 7.05262C18.3351 6.2004 19.155 5.53026 20.1265 5.37094C20.2862 5.34565 20.4486 5.33301 20.6109 5.33301C21.2983 5.33554 21.9802 5.58842 22.4808 6.0335C22.9815 6.47605 23.2873 7.09814 23.3279 7.74805H23.3333V15.4458V15.4484ZM5.92987 6.69605C6.31684 6.01327 7.04489 5.5075 7.87028 5.37094C8.02988 5.34565 8.19228 5.33301 8.35468 5.33301C9.042 5.33554 9.72396 5.58842 10.2245 6.0335C10.4302 6.21557 10.6035 6.43052 10.7387 6.66317L16.0564 13.8046C16.1619 13.9209 16.2539 14.0474 16.3352 14.1789L16.373 14.2295H16.3676C16.5029 14.4672 16.6004 14.7226 16.6518 14.9856C16.7844 15.6658 16.6057 16.3967 16.1674 16.953C15.7641 17.469 15.1471 17.833 14.4733 17.9519C13.7941 18.0707 13.0661 17.9393 12.4869 17.5902C12.2326 17.436 12.008 17.2438 11.8213 17.0213L11.805 16.9985C11.7535 16.9353 11.7049 16.8696 11.6589 16.8013L8.33838 12.3429L5.15327 16.6218C5.09367 16.728 5.02603 16.8316 4.95292 16.9303C4.44965 17.5853 3.60798 17.9975 2.73125 17.9975C2.10331 17.9975 1.48096 17.7901 0.993875 17.4132C0.452549 16.996 0.0953864 16.3815 0.016922 15.7265C-0.0453583 15.2157 0.0655849 14.6847 0.3281 14.2295H0.325423L0.349753 14.1941C0.384911 14.1334 0.425541 14.0727 0.468847 14.017C0.525658 13.9386 0.585147 13.8653 0.650106 13.7945L5.93802 6.69352L5.92987 6.69605Z" fill="#7200E0"/>
</svg>
