<svg width="16" height="17" viewBox="0 0 16 17" fill="none" xmlns="http://www.w3.org/2000/svg">
<path d="M14 4.48659C11.78 4.26659 9.54667 4.15325 7.32 4.15325C6 4.15325 4.68 4.21992 3.36 4.35325L2 4.48659M5.66667 3.81325L5.81333 2.93992C5.92 2.30659 6 1.83325 7.12667 1.83325H8.87333C10 1.83325 10.0867 2.33325 10.1867 2.94659L10.3333 3.81325M12.5667 6.59325L12.1333 13.3066C12.06 14.3533 12 15.1666 10.14 15.1666H5.86C4 15.1666 3.94 14.3533 3.86667 13.3066L3.43333 6.59325M6.88667 11.4999H9.10667M6.33333 8.83325H9.66667" stroke="#7200E0" stroke-linecap="round" stroke-linejoin="round"/>
</svg>
