<svg width="32" height="32" viewBox="0 0 32 32" fill="none" xmlns="http://www.w3.org/2000/svg">
<path d="M16.6679 24.6685C18.2712 24.6679 19.8474 24.2544 21.2445 23.4678C22.6416 22.6813 23.8126 21.5481 24.6446 20.1776C25.4767 18.8071 25.9417 17.2453 25.9949 15.6429C26.0481 14.0404 25.6877 12.4513 24.9485 11.0286C24.2092 9.60586 23.116 8.39752 21.7741 7.51997C20.4323 6.64243 18.887 6.12527 17.2873 6.01833C15.6875 5.91138 14.0872 6.21825 12.6405 6.90937C11.1937 7.60049 9.94941 8.65257 9.02734 9.96422" stroke="#7B7382" stroke-width="1.5" stroke-miterlimit="10"/>
<circle cx="0.666667" cy="0.666667" r="0.666667" transform="matrix(1 0 0 -1 6.66699 15.9992)" fill="#7B7382"/>
<path d="M8.04297 18.9011C8.6332 20.327 9.56805 21.5841 10.7637 22.5599C11.9593 23.5356 13.3784 24.1994 14.8937 24.4917" stroke="#7B7382" stroke-width="1.5" stroke-linecap="round" stroke-linejoin="round"/>
<path d="M9.02734 5.14584V10.2395H14.121" stroke="#7B7382" stroke-width="1.5" stroke-miterlimit="10"/>
<path d="M16.334 11.8143V17.1477L19.0007 19.8143" stroke="#7B7382" stroke-width="1.5"/>
</svg>
