<svg width="43" height="26" viewBox="0 0 43 26" fill="none" xmlns="http://www.w3.org/2000/svg">
<path d="M1 12.9863C1 19.5786 6.39377 24.9724 12.9861 24.9724C19.5785 24.9724 24.9723 19.5786 24.9723 12.9863C24.9723 6.39388 19.5785 1.00012 12.9861 1.00012C6.39377 1.00012 1 6.39388 1 12.9863Z" fill="#F0C8C8" stroke="white"/>
<path d="M9.39038 12.9863C9.39038 19.5786 14.7841 24.9724 21.3765 24.9724C27.9689 24.9724 33.3627 19.5786 33.3627 12.9863C33.3627 6.39388 27.9689 1.00012 21.3765 1.00012C14.7841 1.00012 9.39038 6.39388 9.39038 12.9863Z" fill="#F8DBB9" stroke="white"/>
<path d="M17.7805 12.9863C17.7805 19.5786 23.1743 24.9724 29.7667 24.9724C36.359 24.9724 41.7528 19.5786 41.7528 12.9863C41.7528 6.39388 36.359 1.00012 29.7667 1.00012C23.1743 1.00012 17.7805 6.39388 17.7805 12.9863Z" fill="#D0E4C4" stroke="white"/>
<path d="M40.5064 19.9876L38.5527 20.6468C38.0133 20.8266 37.5818 21.2461 37.402 21.7975L36.7428 23.7513C36.1794 25.4413 33.8062 25.4053 33.2788 23.7153L31.0613 16.5835C30.6298 15.1692 31.9363 13.8507 33.3387 14.2942L40.4825 16.5116C42.1605 17.039 42.1845 19.4242 40.5064 19.9876Z" fill="white" stroke="#34537A" stroke-linecap="round" stroke-linejoin="round"/>
</svg>
