<svg width="124" height="34" viewBox="0 0 124 34" fill="none" xmlns="http://www.w3.org/2000/svg">
<g filter="url(#filter0_d_1264_10222)">
<rect x="3" y="1" width="24" height="24" rx="2" fill="#F1E6FC" shape-rendering="crispEdges"/>
<rect x="3.5" y="1.5" width="23" height="23" rx="1.5" stroke="#C596F2" shape-rendering="crispEdges"/>
<path d="M7.75 7.75C7.75 6.64543 8.64543 5.75 9.75 5.75H20.25C21.3546 5.75 22.25 6.64543 22.25 7.75V15.25C22.25 16.3546 21.3546 17.25 20.25 17.25H17.625L15 20.25L12.375 17.25H9.75C8.64543 17.25 7.75 16.3546 7.75 15.25V7.75Z" stroke="#7200E0" stroke-width="1.5" stroke-linecap="round" stroke-linejoin="round"/>
<path d="M12.5 12C12.5 12.2761 12.2761 12.5 12 12.5C11.7239 12.5 11.5 12.2761 11.5 12C11.5 11.7239 11.7239 11.5 12 11.5C12.2761 11.5 12.5 11.7239 12.5 12Z" stroke="#7200E0" stroke-linecap="round" stroke-linejoin="round"/>
<path d="M15.5 12C15.5 12.2761 15.2761 12.5 15 12.5C14.7239 12.5 14.5 12.2761 14.5 12C14.5 11.7239 14.7239 11.5 15 11.5C15.2761 11.5 15.5 11.7239 15.5 12Z" stroke="#7200E0" stroke-linecap="round" stroke-linejoin="round"/>
<path d="M18.5 12C18.5 12.2761 18.2761 12.5 18 12.5C17.7239 12.5 17.5 12.2761 17.5 12C17.5 11.7239 17.7239 11.5 18 11.5C18.2761 11.5 18.5 11.7239 18.5 12Z" stroke="#7200E0" stroke-linecap="round" stroke-linejoin="round"/>
</g>
<g filter="url(#filter1_d_1264_10222)">
<path d="M34.5289 19.7808L32.5751 20.4401C32.0358 20.6199 31.6043 21.0394 31.4245 21.5907L30.7652 23.5445C30.2019 25.2345 27.8286 25.1986 27.3012 23.5085L25.0838 16.3767C24.6523 14.9624 25.9588 13.6439 27.3612 14.0874L34.5049 16.3048C36.183 16.8322 36.2069 19.2174 34.5289 19.7808Z" fill="black" stroke="white" stroke-linecap="round" stroke-linejoin="round"/>
</g>
<path d="M52.25 9.5C53.2165 9.5 54 8.7165 54 7.75C54 6.7835 53.2165 6 52.25 6C51.2835 6 50.5 6.7835 50.5 7.75C50.5 8.7165 51.2835 9.5 52.25 9.5Z" stroke="#7B7382" stroke-width="1.5" stroke-miterlimit="10"/>
<path d="M41.75 14.75C42.7165 14.75 43.5 13.9665 43.5 13C43.5 12.0335 42.7165 11.25 41.75 11.25C40.7835 11.25 40 12.0335 40 13C40 13.9665 40.7835 14.75 41.75 14.75Z" stroke="#7B7382" stroke-width="1.5" stroke-miterlimit="10"/>
<path d="M52.25 20C53.2165 20 54 19.2165 54 18.25C54 17.2835 53.2165 16.5 52.25 16.5C51.2835 16.5 50.5 17.2835 50.5 18.25C50.5 19.2165 51.2835 20 52.25 20Z" stroke="#7B7382" stroke-width="1.5" stroke-miterlimit="10"/>
<path d="M50.5 8.625L43.5 12.125" stroke="#7B7382" stroke-width="1.5" stroke-miterlimit="10"/>
<path d="M50.5 17.375L43.5 13.875" stroke="#7B7382" stroke-width="1.5" stroke-miterlimit="10"/>
<path d="M75.6244 11.1768C75.4732 10.7819 75.0772 10.4873 74.6525 10.4873H70.8277C70.3416 10.4873 69.9954 10.8727 70.0404 11.3544L70 18.8687C70 18.8905 70.001 18.9115 70.004 18.9335C70.0714 19.4327 70.5322 19.839 71.0321 19.839H75.914C76.3906 19.839 76.7283 19.4671 76.6991 18.9985L75.6398 11.1708C75.6344 11.1728 75.6294 11.175 75.6244 11.1768Z" fill="#7B7382"/>
<path d="M87.9929 13.7309C87.9447 13.1626 87.657 12.7458 87.2824 12.448C87.5646 12.2472 87.7329 11.9552 87.7689 11.5871C87.8171 11.0947 87.6882 10.3221 87.1696 9.76301C86.9072 9.48099 86.437 9.14497 85.6885 9.14497H82.2073C82.2005 8.64094 82.2005 7.85088 82.2367 7.14923C82.2901 6.13656 81.7234 4.90148 81.1632 4.25383C80.8686 3.91241 80.57 3.7212 80.2747 3.68479C80.1799 3.67299 80.0821 3.66699 79.9825 3.66699C79.3407 3.66699 78.5818 3.92341 78.4338 4.48625C78.3686 4.73087 78.4292 4.98928 78.4942 5.2617C78.5792 5.62433 78.6868 6.07536 78.5744 6.7052C78.3844 7.77448 76.7693 10.3591 76.2465 10.8337L77.3359 18.8858C78.053 19.1641 79.7105 19.7697 80.5814 19.7697H84.9359C85.2321 19.7697 86.2227 19.7051 86.5208 18.8722C86.6634 18.471 86.6092 18.0926 86.4704 17.7698C86.4688 17.7384 86.4676 17.7116 86.4668 17.6936C86.4668 17.6868 86.4658 17.679 86.4656 17.671C87.0094 17.5257 87.3614 17.1639 87.4548 16.6281C87.5672 15.981 87.3728 15.5334 87.1776 15.2636C87.7531 14.9954 88.0539 14.4575 87.9929 13.7309Z" fill="#7B7382"/>
<path d="M112.443 4.53613H114.394V10.0149H114.484C114.687 9.45392 115.015 9.02421 115.469 8.7258C115.934 8.41545 116.477 8.26028 117.098 8.26028C118.28 8.26028 119.193 8.68999 119.837 9.54941C120.482 10.3969 120.804 11.5905 120.804 13.1303C120.804 14.6701 120.482 15.8697 119.837 16.7291C119.193 17.5766 118.28 18.0004 117.098 18.0004C116.477 18.0004 115.934 17.8452 115.469 17.5348C115.015 17.2245 114.687 16.7948 114.484 16.2457H114.394V17.7855H112.443V4.53613ZM116.507 16.3173C117.187 16.3173 117.731 16.1025 118.136 15.6728C118.542 15.2311 118.745 14.6522 118.745 13.936V12.3246C118.745 11.6084 118.542 11.0355 118.136 10.6058C117.731 10.1641 117.187 9.94331 116.507 9.94331C115.91 9.94331 115.409 10.0925 115.003 10.3909C114.597 10.6774 114.394 11.0594 114.394 11.5368V14.7238C114.394 15.2013 114.597 15.5892 115.003 15.8876C115.409 16.1741 115.91 16.3173 116.507 16.3173Z" fill="#7B7382"/>
<path d="M109.438 17.786C108.925 17.786 108.531 17.6427 108.256 17.3563C107.982 17.0579 107.814 16.6819 107.755 16.2283H107.665C107.486 16.8132 107.158 17.2548 106.681 17.5532C106.203 17.8516 105.624 18.0008 104.944 18.0008C103.977 18.0008 103.231 17.7502 102.706 17.2488C102.192 16.7475 101.936 16.0731 101.936 15.2256C101.936 14.2946 102.27 13.5963 102.938 13.1308C103.619 12.6653 104.61 12.4325 105.911 12.4325H107.594V11.6447C107.594 11.0718 107.438 10.6301 107.128 10.3198C106.818 10.0094 106.334 9.85425 105.678 9.85425C105.129 9.85425 104.681 9.97361 104.335 10.2123C103.989 10.4511 103.696 10.7554 103.458 11.1255L102.294 10.0691C102.604 9.5439 103.04 9.11419 103.601 8.77997C104.162 8.43382 104.896 8.26074 105.803 8.26074C107.009 8.26074 107.934 8.54125 108.578 9.10226C109.223 9.66327 109.545 10.469 109.545 11.5194V16.1925H110.53V17.786H109.438ZM105.499 16.5147C106.108 16.5147 106.609 16.3834 107.003 16.1208C107.397 15.8463 107.594 15.4823 107.594 15.0287V13.6858H105.946C104.598 13.6858 103.923 14.1036 103.923 14.9391V15.2614C103.923 15.6792 104.06 15.9955 104.335 16.2104C104.621 16.4133 105.009 16.5147 105.499 16.5147Z" fill="#7B7382"/>
<path d="M99 13H123" stroke="#7B7382" stroke-width="1.5" stroke-linecap="round"/>
<defs>
<filter id="filter0_d_1264_10222" x="0.5" y="0.5" width="29" height="29" filterUnits="userSpaceOnUse" color-interpolation-filters="sRGB">
<feFlood flood-opacity="0" result="BackgroundImageFix"/>
<feColorMatrix in="SourceAlpha" type="matrix" values="0 0 0 0 0 0 0 0 0 0 0 0 0 0 0 0 0 0 127 0" result="hardAlpha"/>
<feOffset dy="2"/>
<feGaussianBlur stdDeviation="1.25"/>
<feComposite in2="hardAlpha" operator="out"/>
<feColorMatrix type="matrix" values="0 0 0 0 0 0 0 0 0 0 0 0 0 0 0 0 0 0 0.25 0"/>
<feBlend mode="normal" in2="BackgroundImageFix" result="effect1_dropShadow_1264_10222"/>
<feBlend mode="normal" in="SourceGraphic" in2="effect1_dropShadow_1264_10222" result="shape"/>
</filter>
<filter id="filter1_d_1264_10222" x="20.4998" y="13.499" width="19.7758" height="19.7949" filterUnits="userSpaceOnUse" color-interpolation-filters="sRGB">
<feFlood flood-opacity="0" result="BackgroundImageFix"/>
<feColorMatrix in="SourceAlpha" type="matrix" values="0 0 0 0 0 0 0 0 0 0 0 0 0 0 0 0 0 0 127 0" result="hardAlpha"/>
<feOffset dy="4"/>
<feGaussianBlur stdDeviation="2"/>
<feComposite in2="hardAlpha" operator="out"/>
<feColorMatrix type="matrix" values="0 0 0 0 0 0 0 0 0 0 0 0 0 0 0 0 0 0 0.25 0"/>
<feBlend mode="normal" in2="BackgroundImageFix" result="effect1_dropShadow_1264_10222"/>
<feBlend mode="normal" in="SourceGraphic" in2="effect1_dropShadow_1264_10222" result="shape"/>
</filter>
</defs>
</svg>
