<svg width="48" height="48" viewBox="0 0 48 48" fill="none" xmlns="http://www.w3.org/2000/svg">
<rect width="48" height="48" rx="8" fill="#F1E6FC"/>
<path d="M9.5 13.5C9.5 11.2909 11.2909 9.5 13.5 9.5H34.5C36.7092 9.5 38.5 11.2909 38.5 13.5V28.5C38.5 30.7092 36.7092 32.5 34.5 32.5H29.25L24 38.5L18.75 32.5H13.5C11.2909 32.5 9.5 30.7092 9.5 28.5V13.5Z" stroke="#50009D" stroke-width="2" stroke-linecap="round" stroke-linejoin="round"/>
<path d="M19 22C19 22.5522 18.5523 23 18 23C17.4477 23 17 22.5522 17 22C17 21.4478 17.4477 21 18 21C18.5523 21 19 21.4478 19 22Z" stroke="#50009D" stroke-width="2" stroke-linecap="round" stroke-linejoin="round"/>
<path d="M25 22C25 22.5522 24.5522 23 24 23C23.4478 23 23 22.5522 23 22C23 21.4478 23.4478 21 24 21C24.5522 21 25 21.4478 25 22Z" stroke="#50009D" stroke-width="2" stroke-linecap="round" stroke-linejoin="round"/>
<path d="M31 22C31 22.5522 30.5522 23 30 23C29.4478 23 29 22.5522 29 22C29 21.4478 29.4478 21 30 21C30.5522 21 31 21.4478 31 22Z" stroke="#50009D" stroke-width="2" stroke-linecap="round" stroke-linejoin="round"/>
</svg>
