<svg width="20" height="22" viewBox="0 0 20 22" fill="none" xmlns="http://www.w3.org/2000/svg">
<path d="M19 4.98012C15.67 4.65012 12.32 4.48012 8.98 4.48012C7 4.48012 5.02 4.58012 3.04 4.78012L1 4.98012M6.5 3.97012L6.72 2.66012C6.88 1.71012 7 1.00012 8.69 1.00012H11.31C13 1.00012 13.13 1.75012 13.28 2.67012L13.5 3.97012M16.85 8.14012L16.2 18.2101C16.09 19.7801 16 21.0001 13.21 21.0001H6.79C4 21.0001 3.91 19.7801 3.8 18.2101L3.15 8.14012M8.33 15.5001H11.66M7.5 11.5001H12.5" stroke="#7A7A7A" stroke-width="1.5" stroke-linecap="round" stroke-linejoin="round"/>
</svg>
