<svg width="25" height="24" viewBox="0 0 25 24" fill="none" xmlns="http://www.w3.org/2000/svg">
<path d="M17.02 5.65039L13.92 3.25039C13.52 2.85039 12.62 2.65039 12.02 2.65039H8.21998C7.01998 2.65039 5.71998 3.55039 5.41998 4.75039L3.01998 12.0504C2.51998 13.4504 3.41998 14.6504 4.91998 14.6504H8.91998C9.51998 14.6504 10.02 15.1504 9.91998 15.8504L9.41998 19.0504C9.21998 19.9504 9.81998 20.9504 10.72 21.2504C11.52 21.5504 12.52 21.1504 12.92 20.5504L17.02 14.4504" stroke="#7200E0" stroke-width="1.5" stroke-miterlimit="10"/>
<path d="M22.12 5.65V15.45C22.12 16.85 21.52 17.35 20.12 17.35H19.12C17.72 17.35 17.12 16.85 17.12 15.45V5.65C17.12 4.25 17.72 3.75 19.12 3.75H20.12C21.52 3.75 22.12 4.25 22.12 5.65Z" stroke="#7200E0" stroke-width="1.5" stroke-linecap="round" stroke-linejoin="round"/>
</svg>
