<svg width="24" height="24" viewBox="0 0 24 24" fill="none" xmlns="http://www.w3.org/2000/svg">
<path d="M16.52 5.64954L13.42 3.24954C13.02 2.84954 12.12 2.64954 11.52 2.64954L7.72 2.64954C6.52 2.64954 5.22 3.54954 4.92 4.74954L2.52 12.0495C2.02 13.4495 2.92 14.6495 4.42 14.6495L8.42 14.6495C9.02 14.6495 9.52 15.1495 9.42 15.8495L8.92 19.0495C8.72 19.9495 9.32 20.9495 10.22 21.2495C11.02 21.5495 12.02 21.1495 12.42 20.5495L16.52 14.4495" stroke="white" stroke-width="1.5" stroke-miterlimit="10"/>
<path d="M21.62 5.64961L21.62 15.4496C21.62 16.8496 21.02 17.3496 19.62 17.3496L18.62 17.3496C17.22 17.3496 16.62 16.8496 16.62 15.4496L16.62 5.64961C16.62 4.24961 17.22 3.74961 18.62 3.74961L19.62 3.74961C21.02 3.74961 21.62 4.24961 21.62 5.64961Z" stroke="white" stroke-width="1.5" stroke-linecap="round" stroke-linejoin="round"/>
</svg>
