<svg width="120" height="120" viewBox="0 0 120 120" fill="none" xmlns="http://www.w3.org/2000/svg">
<path d="M23.75 33.75C23.75 28.2272 28.2272 23.75 33.75 23.75H86.25C91.773 23.75 96.25 28.2272 96.25 33.75V71.25C96.25 76.773 91.773 81.25 86.25 81.25H73.125L60 96.25L46.875 81.25H33.75C28.2272 81.25 23.75 76.773 23.75 71.25V33.75Z" stroke="#918B97" stroke-width="4" stroke-linecap="round" stroke-linejoin="round"/>
<path d="M84 50C84 54.4176 80.4176 58 76 58C71.5824 58 68 54.4176 68 50C68 45.5824 71.5824 42 76 42C80.4176 42 84 45.5824 84 50Z" stroke="#918B97" stroke-width="3" stroke-linecap="round" stroke-linejoin="round"/>
<path d="M52 50C52 54.4176 48.4176 58 44 58C39.5824 58 36 54.4176 36 50C36 45.5824 39.5824 42 44 42C48.4176 42 52 45.5824 52 50Z" stroke="#918B97" stroke-width="3" stroke-linecap="round" stroke-linejoin="round"/>
<path d="M48 53C48 55.761 46.2088 58 44 58C41.7912 58 40 55.761 40 53C40 50.239 41.7912 48 44 48C46.2088 48 48 50.239 48 53Z" fill="#918B97"/>
<path d="M80 53C80 55.761 78.2088 58 76 58C73.7912 58 72 55.761 72 53C72 50.239 73.7912 48 76 48C78.2088 48 80 50.239 80 53Z" fill="#918B97"/>
<path d="M65 68.5C65 70.4327 62.9849 72 60.5 72C58.0151 72 56 70.4327 56 68.5C56 66.5673 58.0151 65 60.5 65C62.9849 65 65 66.5673 65 68.5Z" stroke="#918B97" stroke-width="3" stroke-linecap="round" stroke-linejoin="round"/>
</svg>
