<svg width="24" height="24" viewBox="0 0 24 24" fill="none" xmlns="http://www.w3.org/2000/svg">
<path d="M11.3875 0.474523C11.7481 0.195189 12.2519 0.195189 12.6125 0.474523L14.8308 2.19324C15.0144 2.33553 15.2419 2.40943 15.4741 2.40226L18.279 2.3157C18.7349 2.30163 19.1425 2.59779 19.27 3.03569L20.0544 5.73006C20.1194 5.95312 20.2599 6.14661 20.452 6.2773L22.7721 7.85595C23.1492 8.11251 23.3049 8.59171 23.1506 9.02092L22.2015 11.6618C22.123 11.8804 22.123 12.1196 22.2015 12.3382L23.1506 14.9791C23.3049 15.4083 23.1492 15.8875 22.7721 16.1441L20.452 17.7227C20.2599 17.8534 20.1194 18.0469 20.0544 18.2699L19.27 20.9643C19.1425 21.4022 18.7349 21.6984 18.279 21.6843L15.4741 21.5977C15.2419 21.5906 15.0144 21.6645 14.8308 21.8068L12.6125 23.5255C12.2519 23.8048 11.7481 23.8048 11.3875 23.5255L9.1692 21.8068C8.98556 21.6645 8.7581 21.5906 8.52589 21.5977L5.72099 21.6843C5.26512 21.6984 4.85749 21.4022 4.73 20.9643L3.94557 18.2699C3.88063 18.0469 3.74005 17.8534 3.54798 17.7227L1.22788 16.1441C0.850808 15.8875 0.695108 15.4083 0.849359 14.9791L1.79845 12.3382C1.87702 12.1196 1.87702 11.8804 1.79845 11.6618L0.849359 9.02092C0.695108 8.59171 0.850808 8.11251 1.22788 7.85595L3.54798 6.2773C3.74005 6.14661 3.88063 5.95312 3.94557 5.73006L4.73 3.03569C4.85749 2.59779 5.26512 2.30163 5.72099 2.3157L8.52589 2.40226C8.7581 2.40943 8.98556 2.33553 9.1692 2.19324L11.3875 0.474523Z" fill="url(#paint0_linear_1629_2981)"/>
<path d="M7 12.25L10.7984 16L17.8889 9" stroke="white" stroke-width="2" stroke-linecap="round" stroke-linejoin="round"/>
<defs>
<linearGradient id="paint0_linear_1629_2981" x1="12" y1="0" x2="12" y2="24" gradientUnits="userSpaceOnUse">
<stop stop-color="#AA52FF"/>
<stop offset="1" stop-color="#00DEFE"/>
</linearGradient>
</defs>
</svg>
