<svg width="49" height="48" viewBox="0 0 49 48" fill="none" xmlns="http://www.w3.org/2000/svg">
<path d="M36.46 21.58V29.58C36.46 30.1 36.44 30.6 36.38 31.08C35.92 36.48 32.74 39.16 26.88 39.16H26.08C25.58 39.16 25.1 39.4 24.8 39.8L22.4 43C21.34 44.42 19.62 44.42 18.56 43L16.16 39.8C15.9 39.46 15.32 39.16 14.88 39.16H14.08C7.70002 39.16 4.5 37.58 4.5 29.58V21.58C4.5 15.72 7.20002 12.54 12.58 12.08C13.06 12.02 13.56 12 14.08 12H26.88C33.26 12 36.46 15.2 36.46 21.58Z" stroke="#959595" stroke-width="2" stroke-miterlimit="10" stroke-linecap="round" stroke-linejoin="round"/>
<path d="M44.4581 13.58V21.58C44.4581 27.46 41.7581 30.62 36.3781 31.08C36.4381 30.6 36.4581 30.1 36.4581 29.58V21.58C36.4581 15.2 33.2581 12 26.8781 12H14.0781C13.5581 12 13.0581 12.02 12.5781 12.08C13.0381 6.70002 16.2181 4 22.0781 4H34.8781C41.2581 4 44.4581 7.20002 44.4581 13.58Z" stroke="#959595" stroke-width="2" stroke-miterlimit="10" stroke-linecap="round" stroke-linejoin="round"/>
<path d="M27.491 26.5H27.509" stroke="#959595" stroke-width="2" stroke-linecap="round" stroke-linejoin="round"/>
<path d="M20.491 26.5H20.509" stroke="#959595" stroke-width="2" stroke-linecap="round" stroke-linejoin="round"/>
<path d="M13.491 26.5H13.509" stroke="#959595" stroke-width="2" stroke-linecap="round" stroke-linejoin="round"/>
</svg>
