<svg width="24" height="24" viewBox="0 0 24 24" fill="none" xmlns="http://www.w3.org/2000/svg">
<g clip-path="url(#clip0_2745_17050)">
<path d="M12 24C5.38 24 0 18.62 0 12C0 5.38 5.38 0 12 0C18.62 0 24 5.38 24 12C24 18.62 18.62 24 12 24ZM12 1.5C6.21 1.5 1.5 6.21 1.5 12C1.5 17.79 6.21 22.5 12 22.5C17.79 22.5 22.5 17.79 22.5 12C22.5 6.21 17.79 1.5 12 1.5Z" fill="#7B7382"/>
<path d="M11.92 14.67C11.51 14.67 11.17 14.33 11.17 13.92V13.55C11.17 11.84 12.39 11 12.97 10.59C13.66 10.12 14.09 9.67 14.09 8.92C14.09 7.72 13.12 6.75 11.92 6.75C10.72 6.75 9.75 7.72 9.75 8.92C9.75 9.33 9.41 9.67 9 9.67C8.59 9.67 8.25 9.33 8.25 8.92C8.25 6.9 9.9 5.25 11.92 5.25C13.94 5.25 15.59 6.9 15.59 8.92C15.59 10.62 14.35 11.46 13.82 11.83C13.09 12.33 12.67 12.78 12.67 13.55V13.92C12.67 14.33 12.33 14.67 11.92 14.67Z" fill="#7B7382"/>
<path d="M11.9701 19.4196C12.7378 19.4196 13.3601 18.7973 13.3601 18.0296C13.3601 17.262 12.7378 16.6396 11.9701 16.6396C11.2024 16.6396 10.5801 17.262 10.5801 18.0296C10.5801 18.7973 11.2024 19.4196 11.9701 19.4196Z" fill="#7B7382"/>
</g>
<defs>
<clipPath id="clip0_2745_17050">
<rect width="24" height="24" fill="white"/>
</clipPath>
</defs>
</svg>
