<svg width="24" height="24" viewBox="0 0 24 24" fill="none" xmlns="http://www.w3.org/2000/svg">
<g clip-path="url(#clip0_1840_7419)">
<path d="M23.25 12C23.25 5.7868 18.2132 0.75 12 0.75C5.7868 0.75 0.75 5.7868 0.75 12C0.75 18.2132 5.7868 23.25 12 23.25C18.2132 23.25 23.25 18.2132 23.25 12Z" stroke="#7200E0" stroke-width="1.5"/>
<path d="M11.9201 13.916V13.5466C11.9201 12.3504 12.6589 11.7171 13.3978 11.207C14.119 10.7144 14.8401 10.0812 14.8401 8.92017C14.8401 7.3018 13.5384 6 11.9201 6C10.3017 6 9 7.3018 9 8.92017" stroke="#7200E0" stroke-width="1.5" stroke-linecap="round" stroke-linejoin="round"/>
<path d="M11.9136 16.6206C11.0852 16.6206 10.4136 17.2921 10.4136 18.1206C10.4136 18.949 11.0852 19.6206 11.9136 19.6206V16.6206ZM11.9295 19.6206C12.7579 19.6206 13.4295 18.949 13.4295 18.1206C13.4295 17.2921 12.7579 16.6206 11.9295 16.6206V19.6206ZM11.9136 19.6206H11.9295V16.6206H11.9136V19.6206Z" fill="#7200E0"/>
</g>
<defs>
<clipPath id="clip0_1840_7419">
<rect width="24" height="24" fill="white"/>
</clipPath>
</defs>
</svg>
