<svg width="48" height="48" viewBox="0 0 48 48" fill="none" xmlns="http://www.w3.org/2000/svg">
<rect x="7" y="7" width="34" height="34" rx="17" stroke="#7B7382" stroke-width="2"/>
<path d="M23.8801 26.8739V26.3199C23.8801 24.5256 24.9884 23.5757 26.0966 22.8105C27.1785 22.0716 28.2602 21.1218 28.2602 19.3803C28.2602 16.9527 26.3076 15 23.8801 15C21.4525 15 19.5 16.9527 19.5 19.3803" stroke="#7B7382" stroke-width="2" stroke-linecap="round" stroke-linejoin="round"/>
<mask id="path-3-inside-1_411_3774" fill="white">
<path fill-rule="evenodd" clip-rule="evenodd" d="M23.8719 33.1811H23.8957H23.8719Z"/>
</mask>
<path d="M23.8719 31.1811C22.7673 31.1811 21.8719 32.0766 21.8719 33.1811C21.8719 34.2857 22.7673 35.1811 23.8719 35.1811V31.1811ZM23.8957 35.1811C25.0002 35.1811 25.8957 34.2857 25.8957 33.1811C25.8957 32.0766 25.0002 31.1811 23.8957 31.1811V35.1811ZM23.8719 35.1811H23.8957V31.1811H23.8719V35.1811Z" fill="#7B7382" mask="url(#path-3-inside-1_411_3774)"/>
</svg>
