<svg width="24" height="24" viewBox="0 0 24 24" fill="none" xmlns="http://www.w3.org/2000/svg">
<rect x="0.75" y="0.75" width="22.5" height="22.5" rx="11.25" stroke="#7B7382" stroke-width="1.5"/>
<path d="M11.9201 13.916V13.5466C11.9201 12.3504 12.6589 11.7171 13.3978 11.207C14.119 10.7144 14.8401 10.0812 14.8401 8.92017C14.8401 7.3018 13.5384 6 11.9201 6C10.3017 6 9 7.3018 9 8.92017" stroke="#7B7382" stroke-width="1.5" stroke-linecap="round" stroke-linejoin="round"/>
<mask id="path-3-inside-1_2217_1088" fill="white">
<path fill-rule="evenodd" clip-rule="evenodd" d="M11.9146 18.1208H11.9304H11.9146Z"/>
</mask>
<path d="M11.9146 16.6208C11.0862 16.6208 10.4146 17.2923 10.4146 18.1208C10.4146 18.9492 11.0862 19.6208 11.9146 19.6208V16.6208ZM11.9304 19.6208C12.7589 19.6208 13.4304 18.9492 13.4304 18.1208C13.4304 17.2923 12.7589 16.6208 11.9304 16.6208V19.6208ZM11.9146 19.6208H11.9304V16.6208H11.9146V19.6208Z" fill="#7B7382" mask="url(#path-3-inside-1_2217_1088)"/>
</svg>
