<svg width="23" height="24" viewBox="0 0 23 24" fill="none" xmlns="http://www.w3.org/2000/svg">
<path d="M17.8474 10.0833C18.2689 10.9445 18.4466 11.688 18.4466 12C18.4466 12.9583 16.7695 17.9895 11.4987 17.9895C10.7978 17.9895 10.1604 17.9006 9.58203 17.744M6.70703 16.0907C5.13737 14.558 4.55078 12.5667 4.55078 12C4.55078 11.0416 6.22786 6.01038 11.4987 6.01038C13.2186 6.01038 14.5559 6.5461 15.5772 7.30123" stroke="#7200E0" stroke-width="1.5" stroke-linecap="round" stroke-linejoin="round"/>
<path d="M18.4466 5.05212L4.55078 18.948" stroke="#7200E0" stroke-width="1.5" stroke-linecap="round" stroke-linejoin="round"/>
<path d="M9.97529 13.5247C9.13324 12.6826 9.13324 11.3174 9.97529 10.4753C10.8174 9.63323 12.1826 9.63323 13.0247 10.4753" stroke="#7200E0" stroke-width="1.5" stroke-linecap="round" stroke-linejoin="round"/>
</svg>
