<svg width="401" height="263" viewBox="0 0 401 263" fill="none" xmlns="http://www.w3.org/2000/svg">
<rect width="401" height="263" fill="#460089"/>
<g clip-path="url(#clip0_5348_7971)">
<path d="M179 131.052C179 123.347 181.954 115.957 187.213 110.509C192.471 105.061 199.603 102 207.04 102C214.477 102 221.609 105.061 226.867 110.509C232.126 115.957 235.08 123.347 235.08 131.052C235.08 138.757 232.126 146.146 226.867 151.594C221.609 157.043 214.477 160.103 207.04 160.103C199.603 160.103 192.471 157.043 187.213 151.594C181.954 146.146 179 138.757 179 131.052ZM199.625 118.693C198.792 119.17 198.277 120.089 198.277 121.065V141.038C198.277 142.026 198.792 142.933 199.625 143.41C200.457 143.887 201.465 143.875 202.286 143.353L218.059 133.367C218.836 132.867 219.318 131.994 219.318 131.04C219.318 130.087 218.836 129.213 218.059 128.714L202.286 118.727C201.476 118.217 200.457 118.194 199.625 118.671V118.693Z" fill="white"/>
</g>
<path d="M70.1768 104H60.8721V90.0312H50.1143V104H40.8096V69.7344H50.1143V82.4375H60.8721V69.7344H70.1768V104ZM102.427 90.6641C102.427 92.8828 102.122 94.8516 101.513 96.5703C100.903 98.2891 100.021 99.7344 98.8643 100.906C97.708 102.078 96.3096 102.969 94.6689 103.578C93.0283 104.172 91.1768 104.469 89.1143 104.469C87.1924 104.469 85.4268 104.172 83.8174 103.578C82.2236 102.969 80.833 102.078 79.6455 100.906C78.458 99.7344 77.5361 98.2891 76.8799 96.5703C76.2393 94.8516 75.9189 92.8828 75.9189 90.6641C75.9189 87.7266 76.4502 85.2422 77.5127 83.2109C78.5908 81.1797 80.1221 79.6328 82.1064 78.5703C84.1064 77.5078 86.4893 76.9766 89.2549 76.9766C91.8018 76.9766 94.0674 77.5078 96.0518 78.5703C98.0361 79.6328 99.5908 81.1797 100.716 83.2109C101.856 85.2422 102.427 87.7266 102.427 90.6641ZM85.2236 90.6641C85.2236 92.1797 85.3564 93.4609 85.6221 94.5078C85.8877 95.5391 86.3096 96.3281 86.8877 96.875C87.4814 97.4062 88.2549 97.6719 89.208 97.6719C90.1611 97.6719 90.9189 97.4062 91.4814 96.875C92.0439 96.3281 92.4502 95.5391 92.7002 94.5078C92.9658 93.4609 93.0986 92.1797 93.0986 90.6641C93.0986 89.1484 92.9658 87.8828 92.7002 86.8672C92.4502 85.8516 92.0361 85.0859 91.458 84.5703C90.8955 84.0547 90.1299 83.7969 89.1611 83.7969C87.7705 83.7969 86.7627 84.375 86.1377 85.5312C85.5283 86.6875 85.2236 88.3984 85.2236 90.6641ZM130.528 104L127.739 92.375C127.599 91.7812 127.458 91.1094 127.317 90.3594C127.177 89.5938 127.036 88.8281 126.896 88.0625C126.771 87.2969 126.661 86.5938 126.567 85.9531C126.474 85.3125 126.403 84.8125 126.356 84.4531H126.216C126.169 84.8125 126.091 85.3203 125.981 85.9766C125.872 86.6172 125.747 87.3281 125.606 88.1094C125.466 88.8906 125.31 89.6875 125.138 90.5C124.981 91.2969 124.825 92.0391 124.669 92.7266L121.974 104H112.341L105.099 77.4453H114.122L116.278 87.6406C116.435 88.3906 116.591 89.2891 116.747 90.3359C116.919 91.3672 117.067 92.4219 117.192 93.5C117.333 94.5625 117.427 95.5156 117.474 96.3594H117.614C117.646 95.7188 117.716 94.9844 117.825 94.1562C117.95 93.3125 118.083 92.4766 118.224 91.6484C118.38 90.8203 118.521 90.0938 118.646 89.4688C118.771 88.8281 118.856 88.3906 118.903 88.1562L121.364 77.4453H131.489L133.739 88.2969C133.88 88.9062 134.036 89.6875 134.208 90.6406C134.396 91.5781 134.567 92.5625 134.724 93.5938C134.896 94.6094 135.021 95.5312 135.099 96.3594H135.239C135.302 95.5 135.396 94.5234 135.521 93.4297C135.646 92.3359 135.786 91.2734 135.942 90.2422C136.114 89.1953 136.278 88.3281 136.435 87.6406L138.778 77.4453H147.614L140.325 104H130.528ZM38.1143 159.758C37.0674 159.758 36.1533 159.703 35.3721 159.594C34.5752 159.5 33.8877 159.391 33.3096 159.266V152.07C33.8096 152.164 34.3408 152.266 34.9033 152.375C35.4658 152.5 36.0752 152.562 36.7314 152.562C37.8408 152.562 38.7002 152.336 39.3096 151.883C39.9346 151.43 40.3721 150.75 40.6221 149.844C40.8721 148.938 40.9971 147.805 40.9971 146.445V114.734H50.3018V145.648C50.3018 149.086 49.7861 151.836 48.7549 153.898C47.7236 155.961 46.2939 157.453 44.4658 158.375C42.6377 159.297 40.5205 159.758 38.1143 159.758ZM69.1455 121.977C71.7236 121.977 73.9502 122.43 75.8252 123.336C77.7002 124.227 79.1455 125.57 80.1611 127.367C81.1768 129.164 81.6846 131.414 81.6846 134.117V138.195H65.3018C65.3799 139.586 65.8955 140.727 66.8486 141.617C67.8174 142.508 69.2393 142.953 71.1143 142.953C72.7705 142.953 74.2861 142.789 75.6611 142.461C77.0518 142.133 78.4814 141.625 79.9502 140.938V147.523C78.6689 148.195 77.2705 148.688 75.7549 149C74.2393 149.312 72.3252 149.469 70.0127 149.469C67.3408 149.469 64.9502 148.992 62.8408 148.039C60.7314 147.086 59.0674 145.609 57.8486 143.609C56.6455 141.609 56.0439 139.039 56.0439 135.898C56.0439 132.711 56.5908 130.094 57.6846 128.047C58.7783 125.984 60.3096 124.461 62.2783 123.477C64.2471 122.477 66.5361 121.977 69.1455 121.977ZM69.4736 128.211C68.3955 128.211 67.4893 128.555 66.7549 129.242C66.0361 129.914 65.6143 130.977 65.4893 132.43H73.3643C73.3486 131.648 73.1924 130.938 72.8955 130.297C72.5986 129.656 72.1611 129.148 71.583 128.773C71.0205 128.398 70.3174 128.211 69.4736 128.211ZM95.1143 149.469C92.3799 149.469 90.1299 148.305 88.3643 145.977C86.5986 143.648 85.7158 140.242 85.7158 135.758C85.7158 131.227 86.6221 127.797 88.4346 125.469C90.2471 123.141 92.5908 121.977 95.4658 121.977C96.6533 121.977 97.6768 122.148 98.5361 122.492C99.3955 122.836 100.138 123.305 100.763 123.898C101.403 124.477 101.958 125.133 102.427 125.867H102.614C102.505 125.195 102.403 124.273 102.31 123.102C102.216 121.914 102.169 120.758 102.169 119.633V112.531H111.403V149H104.489L102.521 145.648H102.169C101.747 146.352 101.216 146.992 100.575 147.57C99.9502 148.148 99.1846 148.609 98.2783 148.953C97.3877 149.297 96.333 149.469 95.1143 149.469ZM98.8643 142.227C100.333 142.227 101.364 141.766 101.958 140.844C102.567 139.906 102.896 138.484 102.942 136.578V135.852C102.942 133.758 102.646 132.156 102.052 131.047C101.474 129.922 100.38 129.359 98.7705 129.359C97.6768 129.359 96.7705 129.891 96.0518 130.953C95.333 132.016 94.9736 133.664 94.9736 135.898C94.9736 138.102 95.333 139.711 96.0518 140.727C96.7861 141.727 97.7236 142.227 98.8643 142.227ZM126.005 149.469C123.271 149.469 121.021 148.305 119.255 145.977C117.489 143.648 116.606 140.242 116.606 135.758C116.606 131.227 117.513 127.797 119.325 125.469C121.138 123.141 123.481 121.977 126.356 121.977C127.544 121.977 128.567 122.148 129.427 122.492C130.286 122.836 131.028 123.305 131.653 123.898C132.294 124.477 132.849 125.133 133.317 125.867H133.505C133.396 125.195 133.294 124.273 133.2 123.102C133.106 121.914 133.06 120.758 133.06 119.633V112.531H142.294V149H135.38L133.411 145.648H133.06C132.638 146.352 132.106 146.992 131.466 147.57C130.841 148.148 130.075 148.609 129.169 148.953C128.278 149.297 127.224 149.469 126.005 149.469ZM129.755 142.227C131.224 142.227 132.255 141.766 132.849 140.844C133.458 139.906 133.786 138.484 133.833 136.578V135.852C133.833 133.758 133.536 132.156 132.942 131.047C132.364 129.922 131.271 129.359 129.661 129.359C128.567 129.359 127.661 129.891 126.942 130.953C126.224 132.016 125.864 133.664 125.864 135.898C125.864 138.102 126.224 139.711 126.942 140.727C127.677 141.727 128.614 142.227 129.755 142.227ZM170.208 149L168.521 142.578H157.388L155.653 149H145.481L156.661 114.594H169.013L180.333 149H170.208ZM166.599 134.984L165.122 129.359C164.966 128.75 164.739 127.883 164.442 126.758C164.146 125.617 163.849 124.445 163.552 123.242C163.271 122.023 163.052 121.023 162.896 120.242C162.755 121.023 162.552 121.992 162.286 123.148C162.036 124.289 161.771 125.422 161.489 126.547C161.224 127.672 160.989 128.609 160.786 129.359L159.31 134.984H166.599ZM184.06 149V114.734H193.364V149H184.06ZM86.2549 162.734L77.8174 197H66.8721L63.5908 182.07C63.5283 181.789 63.4268 181.312 63.2861 180.641C63.1611 179.969 63.0127 179.203 62.8408 178.344C62.6846 177.484 62.5361 176.641 62.3955 175.812C62.2705 174.969 62.1768 174.258 62.1143 173.68C62.0518 174.258 61.9502 174.969 61.8096 175.812C61.6689 176.641 61.5127 177.484 61.3408 178.344C61.1846 179.203 61.0283 179.969 60.8721 180.641C60.7314 181.312 60.6299 181.789 60.5674 182.07L57.2627 197H46.3174L37.833 162.734H46.7627L50.4893 179.914C50.583 180.336 50.708 180.938 50.8643 181.719C51.0361 182.484 51.208 183.328 51.3799 184.25C51.5674 185.156 51.7393 186.031 51.8955 186.875C52.0518 187.719 52.1611 188.422 52.2236 188.984C52.3486 188.016 52.5127 186.914 52.7158 185.68C52.9346 184.445 53.1689 183.195 53.4189 181.93C53.6846 180.648 53.9346 179.461 54.1689 178.367C54.4033 177.273 54.6064 176.383 54.7783 175.695L57.8018 162.734H66.3799L69.3096 175.695C69.4658 176.367 69.6611 177.258 69.8955 178.367C70.1455 179.461 70.3955 180.648 70.6455 181.93C70.9111 183.211 71.1533 184.477 71.3721 185.727C71.5908 186.961 71.7549 188.047 71.8643 188.984C71.958 188.203 72.1143 187.219 72.333 186.031C72.5518 184.828 72.7705 183.664 72.9893 182.539C73.2236 181.398 73.4033 180.539 73.5283 179.961L77.3252 162.734H86.2549ZM115.505 183.664C115.505 185.883 115.2 187.852 114.591 189.57C113.981 191.289 113.099 192.734 111.942 193.906C110.786 195.078 109.388 195.969 107.747 196.578C106.106 197.172 104.255 197.469 102.192 197.469C100.271 197.469 98.5049 197.172 96.8955 196.578C95.3018 195.969 93.9111 195.078 92.7236 193.906C91.5361 192.734 90.6143 191.289 89.958 189.57C89.3174 187.852 88.9971 185.883 88.9971 183.664C88.9971 180.727 89.5283 178.242 90.5908 176.211C91.6689 174.18 93.2002 172.633 95.1846 171.57C97.1846 170.508 99.5674 169.977 102.333 169.977C104.88 169.977 107.146 170.508 109.13 171.57C111.114 172.633 112.669 174.18 113.794 176.211C114.935 178.242 115.505 180.727 115.505 183.664ZM98.3018 183.664C98.3018 185.18 98.4346 186.461 98.7002 187.508C98.9658 188.539 99.3877 189.328 99.9658 189.875C100.56 190.406 101.333 190.672 102.286 190.672C103.239 190.672 103.997 190.406 104.56 189.875C105.122 189.328 105.528 188.539 105.778 187.508C106.044 186.461 106.177 185.18 106.177 183.664C106.177 182.148 106.044 180.883 105.778 179.867C105.528 178.852 105.114 178.086 104.536 177.57C103.974 177.055 103.208 176.797 102.239 176.797C100.849 176.797 99.8408 177.375 99.2158 178.531C98.6064 179.688 98.3018 181.398 98.3018 183.664ZM136.786 169.977C137.286 169.977 137.81 170.016 138.356 170.094C138.903 170.156 139.31 170.211 139.575 170.258L138.755 178.906C138.458 178.828 138.075 178.766 137.606 178.719C137.138 178.656 136.481 178.625 135.638 178.625C135.06 178.625 134.442 178.68 133.786 178.789C133.13 178.898 132.505 179.133 131.911 179.492C131.333 179.836 130.856 180.367 130.481 181.086C130.106 181.789 129.919 182.742 129.919 183.945V197H120.755V170.445H127.575L129.005 174.688H129.45C129.935 173.812 130.552 173.023 131.302 172.32C132.067 171.602 132.919 171.031 133.856 170.609C134.81 170.188 135.786 169.977 136.786 169.977ZM152.513 160.531V174.875C152.513 175.953 152.466 177.156 152.372 178.484C152.294 179.797 152.169 180.992 151.997 182.07H152.185C152.544 181.523 152.997 180.836 153.544 180.008C154.091 179.18 154.583 178.492 155.021 177.945L160.974 170.445H171.192L161.981 181.742L171.778 197H161.302L155.489 187.484L152.513 189.758V197H143.302V160.531H152.513ZM194.677 188.844C194.677 190.531 194.302 192.023 193.552 193.32C192.802 194.617 191.599 195.633 189.942 196.367C188.302 197.102 186.138 197.469 183.45 197.469C181.56 197.469 179.864 197.367 178.364 197.164C176.88 196.961 175.372 196.57 173.841 195.992V188.656C175.513 189.422 177.216 189.977 178.95 190.32C180.685 190.648 182.052 190.812 183.052 190.812C184.083 190.812 184.833 190.703 185.302 190.484C185.786 190.25 186.028 189.906 186.028 189.453C186.028 189.062 185.864 188.734 185.536 188.469C185.224 188.188 184.653 187.867 183.825 187.508C183.013 187.148 181.864 186.664 180.38 186.055C178.911 185.445 177.685 184.781 176.7 184.062C175.731 183.344 175.005 182.484 174.521 181.484C174.036 180.484 173.794 179.258 173.794 177.805C173.794 175.211 174.794 173.258 176.794 171.945C178.794 170.633 181.442 169.977 184.739 169.977C186.489 169.977 188.138 170.172 189.685 170.562C191.231 170.938 192.833 171.492 194.489 172.227L191.981 178.133C190.669 177.539 189.341 177.062 187.997 176.703C186.653 176.344 185.583 176.164 184.786 176.164C184.067 176.164 183.513 176.258 183.122 176.445C182.731 176.633 182.536 176.906 182.536 177.266C182.536 177.594 182.669 177.883 182.935 178.133C183.216 178.383 183.739 178.672 184.505 179C185.271 179.328 186.388 179.789 187.856 180.383C189.403 181.008 190.677 181.68 191.677 182.398C192.692 183.102 193.442 183.961 193.927 184.977C194.427 185.992 194.677 187.281 194.677 188.844Z" fill="white"/>
<defs>
<clipPath id="clip0_5348_7971">
<rect width="56.0798" height="58.1034" fill="white" transform="translate(179 102)"/>
</clipPath>
</defs>
</svg>
