<svg width="49" height="48" viewBox="0 0 49 48" fill="none" xmlns="http://www.w3.org/2000/svg">
<path d="M0.333008 8C0.333008 3.58172 3.91473 0 8.33301 0H40.333C44.7513 0 48.333 3.58172 48.333 8V40C48.333 44.4183 44.7513 48 40.333 48H8.33301C3.91473 48 0.333008 44.4183 0.333008 40V8Z" fill="#F1E6FC"/>
<g clip-path="url(#clip0_5183_9162)">
<path d="M21.2838 17.2855C21.0566 16.9887 20.7462 16.7426 20.3819 16.5909C20.0967 16.4695 19.7829 16.4088 19.4653 16.4054H19.4509C18.7472 16.4088 18.0472 16.7392 17.6287 17.2787L17.6503 17.2922L17.4266 17.5923C17.203 18.0273 17.1379 18.533 17.2607 19.0051C17.4231 19.6491 17.9319 20.2088 18.5922 20.4651C19.2561 20.7213 20.0498 20.6606 20.6633 20.2998C21.3019 19.9222 21.7169 19.2377 21.7169 18.5128C21.7169 18.1756 21.623 17.8418 21.4571 17.5417L21.2838 17.2821V17.2855ZM35.7997 16.4054C35.1034 16.4088 34.4142 16.7291 33.992 17.2585C33.5049 17.8688 33.4075 18.732 33.7719 19.4333C34.1399 20.1414 34.959 20.6269 35.8141 20.6235C36.6188 20.6235 37.4019 20.1886 37.7915 19.5176C38.1775 18.8567 38.1487 17.9969 37.6904 17.3495C37.2791 16.7696 36.5504 16.3987 35.7997 16.4021V16.4054ZM33.5482 21.1832V25.9341C34.1652 25.4789 34.9337 25.2024 35.7493 25.1923H35.8179C36.6297 25.1923 37.4308 25.4587 38.0658 25.9273V21.1866C37.9611 21.2642 37.8492 21.3384 37.7337 21.4058C36.9653 21.8542 36.0127 22.0194 35.1178 21.861C34.5477 21.7598 34.0029 21.5238 33.5482 21.1866V21.1832ZM15.9834 19.5311L11.7653 25.1957C11.8375 25.1923 11.9061 25.1923 11.9782 25.1923C12.8947 25.1957 13.804 25.5328 14.4715 26.1263C14.9189 26.5208 15.2545 27.0266 15.4421 27.5761L18.6029 23.3311C18.6029 23.3311 16.3297 20.2695 16.2539 20.1346C16.1422 19.9424 16.0556 19.7435 15.987 19.5378L15.9834 19.5311ZM22.9328 19.5311C22.6766 20.283 22.139 20.9472 21.4282 21.3788C20.7823 21.7699 19.9992 21.9554 19.2308 21.9149L23.4669 27.6065C23.5895 27.2322 23.7771 26.8748 24.0297 26.5612C24.69 25.7352 25.7581 25.2092 26.8874 25.1957H26.956C27.0209 25.1957 27.0822 25.1957 27.1473 25.199L22.9292 19.5344L22.9328 19.5311ZM13.988 29.5217C14.2333 29.0462 14.2948 28.4798 14.118 27.9605C13.9267 27.3941 13.4684 26.9119 12.8838 26.6658C12.5988 26.5444 12.2812 26.4837 11.9674 26.4803H11.953C11.3179 26.4803 10.6972 26.7501 10.2715 27.1918L9.96117 27.6065C9.62201 28.21 9.61487 28.9754 9.96846 29.589C10.2859 30.1421 10.8849 30.5501 11.5452 30.6647C12.2488 30.7861 13.003 30.577 13.5225 30.1118C13.5405 30.0949 13.5586 30.078 13.5767 30.0612L13.9843 29.5149L13.988 29.5217ZM38.0622 28.5337C38.0369 27.7515 37.5172 26.9996 36.7271 26.6691C36.442 26.5478 36.1244 26.4871 35.8106 26.4837H35.7961C35.1394 26.4837 34.4935 26.7703 34.0678 27.2424C33.5229 27.8526 33.3823 28.7563 33.7611 29.4981C34.0642 30.0949 34.6848 30.5466 35.3812 30.6715C35.9225 30.7659 36.5033 30.6715 36.9797 30.3984C37.6291 30.0274 38.0549 29.3429 38.0622 28.618V28.5978V28.5371V28.5337ZM28.6518 27.2154C28.2296 26.7703 27.6055 26.4871 26.956 26.4871H26.9416C26.0359 26.4904 25.1591 27.04 24.8308 27.8594C24.5998 28.4427 24.6611 29.1137 24.9931 29.6565L25.2024 29.9398C25.6246 30.4153 26.2776 30.7085 26.9452 30.7085C27.6559 30.7085 28.3633 30.3748 28.7817 29.8252C29.2653 29.1946 29.341 28.3112 28.937 27.6065L28.6483 27.2154H28.6518ZM39.4441 28.5978C39.4441 28.7529 39.4333 28.908 39.4117 29.0631C39.2673 30.0476 38.6359 30.9546 37.7373 31.484C36.7596 32.0573 35.4823 32.1651 34.4034 31.7437C33.4039 31.3559 32.6101 30.5332 32.3034 29.552C32.2059 29.2452 32.159 28.9215 32.159 28.6012V18.3307H32.1699C32.1879 18.0171 32.2492 17.7036 32.3575 17.4035C32.7797 16.2672 33.873 15.3737 35.1683 15.1612C35.3812 15.1275 35.5978 15.1107 35.8141 15.1107C36.7307 15.114 37.64 15.4512 38.3074 16.0446C38.975 16.6347 39.3828 17.4642 39.4368 18.3307H39.4441V28.5944V28.5978ZM16.2395 16.928C16.7555 16.0177 17.7262 15.3433 18.8267 15.1612C19.0395 15.1275 19.256 15.1107 19.4726 15.1107C20.389 15.114 21.2983 15.4512 21.9657 16.0446C22.24 16.2874 22.471 16.574 22.6513 16.8842L29.7415 26.4061C29.8823 26.5612 30.0049 26.7298 30.1132 26.9052L30.1637 26.9726H30.1565C30.3369 27.2896 30.4668 27.6301 30.5354 27.9808C30.7122 28.8878 30.474 29.8622 29.8896 30.604C29.3519 31.2919 28.5292 31.7774 27.6308 31.9359C26.7251 32.0943 25.7545 31.919 24.9823 31.4536C24.6431 31.248 24.3437 30.9918 24.0947 30.6951L24.073 30.6647C24.0044 30.5804 23.9395 30.4927 23.8782 30.4017L19.4509 24.4572L15.204 30.1623C15.1246 30.304 15.0344 30.4421 14.9369 30.5737C14.2659 31.447 13.1436 31.9966 11.9747 31.9966C11.1374 31.9966 10.3076 31.7201 9.65817 31.2176C8.93641 30.6614 8.46019 29.842 8.35557 28.9687C8.27253 28.2876 8.42045 27.5795 8.77047 26.9726H8.7669L8.79935 26.9254C8.84622 26.8445 8.9004 26.7636 8.95814 26.6894C9.03389 26.5848 9.1132 26.4871 9.19982 26.3927L16.2504 16.9247L16.2395 16.928Z" fill="#50009D"/>
</g>
<defs>
<clipPath id="clip0_5183_9162">
<rect x="8.33301" y="8" width="32" height="32" fill="white"/>
</clipPath>
</defs>
</svg>
