<svg width="48" height="48" viewBox="0 0 48 48" fill="none" xmlns="http://www.w3.org/2000/svg">
<path d="M20.9508 17.2852C20.7236 16.9884 20.4132 16.7423 20.0489 16.5906C19.7637 16.4692 19.4499 16.4085 19.1323 16.4051H19.1178C18.4142 16.4085 17.7142 16.7389 17.2957 17.2784L17.3173 17.2919L17.0936 17.592C16.8699 18.0269 16.8049 18.5327 16.9277 19.0048C17.09 19.6488 17.5989 20.2085 18.2592 20.4648C18.923 20.721 19.7168 20.6603 20.3303 20.2995C20.9688 19.9219 21.3839 19.2374 21.3839 18.5125C21.3839 18.1753 21.29 17.8415 21.1241 17.5414L20.9508 17.2818V17.2852ZM35.4667 16.4051C34.7704 16.4085 34.0812 16.7288 33.659 17.2582C33.1719 17.8685 33.0745 18.7317 33.4389 19.433C33.8069 20.1411 34.626 20.6266 35.4811 20.6232C36.2858 20.6232 37.0689 20.1883 37.4585 19.5173C37.8445 18.8564 37.8157 17.9966 37.3574 17.3492C36.9461 16.7693 36.2173 16.3984 35.4667 16.4017V16.4051ZM33.2152 21.1829V25.9338C33.8322 25.4786 34.6007 25.2021 35.4163 25.192H35.4849C36.2967 25.192 37.0977 25.4584 37.7328 25.927V21.1863C37.6281 21.2639 37.5162 21.338 37.4007 21.4055C36.6322 21.8539 35.6797 22.0191 34.7848 21.8607C34.2147 21.7595 33.6699 21.5235 33.2152 21.1863V21.1829ZM15.6504 19.5308L11.4323 25.1954C11.5045 25.192 11.5731 25.192 11.6452 25.192C12.5617 25.1954 13.4709 25.5325 14.1385 26.126C14.5859 26.5205 14.9215 27.0262 15.1091 27.5758L18.2699 23.3308C18.2699 23.3308 15.9967 20.2692 15.9209 20.1343C15.8092 19.9421 15.7226 19.7432 15.654 19.5375L15.6504 19.5308ZM22.5997 19.5308C22.3436 20.2827 21.8059 20.9469 21.0952 21.3785C20.4493 21.7696 19.6662 21.9551 18.8977 21.9146L23.1338 27.6062C23.2565 27.2319 23.4441 26.8745 23.6967 26.5609C24.357 25.7349 25.4251 25.2088 26.5544 25.1954H26.623C26.6879 25.1954 26.7492 25.1954 26.8143 25.1987L22.5962 19.5341L22.5997 19.5308ZM13.655 29.5214C13.9003 29.0459 13.9617 28.4795 13.7849 27.9602C13.5937 27.3938 13.1354 26.9116 12.5508 26.6655C12.2658 26.5441 11.9482 26.4834 11.6344 26.48H11.6199C10.9849 26.48 10.3642 26.7498 9.93845 27.1915L9.62816 27.6062C9.28901 28.2097 9.28186 28.9751 9.63546 29.5887C9.95288 30.1418 10.5519 30.5498 11.2122 30.6644C11.9158 30.7858 12.67 30.5767 13.1895 30.1115C13.2075 30.0946 13.2255 30.0776 13.2437 30.0609L13.6513 29.5146L13.655 29.5214ZM37.7292 28.5334C37.7039 27.7512 37.1842 26.9993 36.3941 26.6688C36.109 26.5475 35.7914 26.4868 35.4776 26.4834H35.4631C34.8064 26.4834 34.1605 26.77 33.7348 27.242C33.1899 27.8523 33.0493 28.756 33.428 29.4978C33.7312 30.0946 34.3518 30.5463 35.0482 30.6712C35.5895 30.7656 36.1703 30.6712 36.6467 30.398C37.2961 30.0271 37.7219 29.3426 37.7292 28.6177V28.5975V28.5368V28.5334ZM28.3188 27.2151C27.8966 26.77 27.2725 26.4868 26.623 26.4868H26.6086C25.7029 26.4901 24.8261 27.0397 24.4978 27.8591C24.2668 28.4424 24.3281 29.1134 24.6601 29.6562L24.8694 29.9395C25.2916 30.415 25.9446 30.7082 26.6122 30.7082C27.3229 30.7082 28.0303 30.3745 28.4487 29.8249C28.9323 29.1943 29.008 28.3109 28.604 27.6062L28.3153 27.2151H28.3188ZM39.1111 28.5975C39.1111 28.7526 39.1002 28.9077 39.0787 29.0628C38.9343 30.0473 38.3029 30.9543 37.4043 31.4837C36.4266 32.057 35.1493 32.1648 34.0703 31.7434C33.0709 31.3556 32.2771 30.5329 31.9704 29.5517C31.8729 29.2449 31.826 28.9212 31.826 28.6009V18.3304H31.8369C31.8549 18.0168 31.9162 17.7032 32.0245 17.4032C32.4467 16.2669 33.54 15.3734 34.8353 15.1609C35.0482 15.1272 35.2648 15.1104 35.4811 15.1104C36.3977 15.1137 37.307 15.4509 37.9744 16.0443C38.642 16.6344 39.0498 17.4639 39.1038 18.3304H39.1111V28.5941V28.5975ZM15.9065 16.9277C16.4224 16.0174 17.3932 15.343 18.4937 15.1609C18.7065 15.1272 18.923 15.1104 19.1396 15.1104C20.056 15.1137 20.9653 15.4509 21.6327 16.0443C21.907 16.2871 22.138 16.5737 22.3183 16.8839L29.4085 26.4058C29.5493 26.5609 29.6719 26.7295 29.7802 26.9049L29.8307 26.9723H29.8235C30.0039 27.2892 30.1338 27.6298 30.2024 27.9805C30.3792 28.8875 30.141 29.8619 29.5565 30.6037C29.0189 31.2916 28.1962 31.7771 27.2978 31.9356C26.3921 32.094 25.4215 31.9187 24.6493 31.4533C24.3101 31.2477 24.0107 30.9914 23.7617 30.6947L23.74 30.6644C23.6714 30.5801 23.6065 30.4924 23.5452 30.4014L19.1178 24.4569L14.871 30.162C14.7916 30.3037 14.7014 30.4418 14.6039 30.5734C13.9329 31.4467 12.8106 31.9963 11.6417 31.9963C10.8044 31.9963 9.97461 31.7198 9.32517 31.2173C8.6034 30.6611 8.12718 29.8416 8.02256 28.9684C7.93952 28.2873 8.08745 27.5792 8.43747 26.9723H8.4339L8.46634 26.9251C8.51322 26.8442 8.56739 26.7632 8.62513 26.6891C8.70088 26.5845 8.7802 26.4868 8.86681 26.3924L15.9174 16.9244L15.9065 16.9277Z" fill="#D8D2FA"/>
</svg>
