<svg width="32" height="32" viewBox="0 0 32 32" fill="none" xmlns="http://www.w3.org/2000/svg">
<path d="M12.9508 9.28564C12.7236 8.98893 12.4132 8.74278 12.0489 8.59106C11.7637 8.46967 11.4499 8.40898 11.1323 8.40561H11.1178C10.4142 8.40898 9.71419 8.73941 9.29572 9.27891L9.3173 9.29239L9.09362 9.59247C8.86995 10.0274 8.80491 10.5332 8.92769 11.0053C9.09005 11.6493 9.59886 12.209 10.2592 12.4652C10.923 12.7215 11.7168 12.6608 12.3303 12.3C12.9688 11.9224 13.3839 11.2379 13.3839 10.513C13.3839 10.1758 13.29 9.84198 13.1241 9.5419L12.9508 9.28227V9.28564ZM27.4667 8.40561C26.7704 8.40898 26.0812 8.72929 25.659 9.25867C25.1719 9.86897 25.0745 10.7321 25.4389 11.4335C25.8069 12.1415 26.626 12.6271 27.4811 12.6237C28.2858 12.6237 29.0689 12.1887 29.4585 11.5178C29.8445 10.8569 29.8157 9.99708 29.3574 9.34971C28.9461 8.76976 28.2173 8.39886 27.4667 8.40223V8.40561ZM25.2152 13.1834V17.9343C25.8322 17.4791 26.6007 17.2026 27.4163 17.1925H27.4849C28.2967 17.1925 29.0977 17.4588 29.7328 17.9275V13.1868C29.6281 13.2644 29.5162 13.3385 29.4007 13.406C28.6322 13.8544 27.6797 14.0196 26.7848 13.8612C26.2147 13.76 25.6699 13.524 25.2152 13.1868V13.1834ZM7.65038 11.5313L3.43228 17.1959C3.50446 17.1925 3.57306 17.1925 3.64524 17.1925C4.56166 17.1959 5.47094 17.533 6.13854 18.1265C6.58589 18.521 6.92147 19.0267 7.10913 19.5763L10.2699 15.3313C10.2699 15.3313 7.99668 12.2697 7.92094 12.1348C7.80917 11.9426 7.72256 11.7437 7.65395 11.538L7.65038 11.5313ZM14.5997 11.5313C14.3436 12.2832 13.8059 12.9474 13.0952 13.379C12.4493 13.7701 11.6662 13.9556 10.8977 13.9151L15.1338 19.6067C15.2565 19.2324 15.4441 18.875 15.6967 18.5614C16.357 17.7353 17.4251 17.2093 18.5544 17.1959H18.623C18.6879 17.1959 18.7492 17.1959 18.8143 17.1992L14.5962 11.5346L14.5997 11.5313ZM5.65503 21.5219C5.90028 21.0464 5.96175 20.48 5.78495 19.9607C5.59372 19.3943 5.13536 18.9121 4.5508 18.666C4.26581 18.5446 3.94823 18.4839 3.63438 18.4805H3.61994C2.98494 18.4805 2.36421 18.7503 1.93845 19.192L1.62816 19.6067C1.28901 20.2102 1.28186 20.9756 1.63546 21.5892C1.95288 22.1423 2.55188 22.5503 3.21218 22.6649C3.9158 22.7863 4.67 22.5772 5.18953 22.112C5.20753 22.095 5.22554 22.0781 5.2437 22.0614L5.65131 21.5151L5.65503 21.5219ZM29.7292 20.5339C29.7039 19.7517 29.1842 18.9998 28.3941 18.6693C28.109 18.5479 27.7914 18.4872 27.4776 18.4839H27.4631C26.8064 18.4839 26.1605 18.7705 25.7348 19.2425C25.1899 19.8528 25.0493 20.7565 25.428 21.4983C25.7312 22.095 26.3518 22.5468 27.0482 22.6717C27.5895 22.7661 28.1703 22.6717 28.6467 22.3985C29.2961 22.0276 29.7219 21.3431 29.7292 20.6182V20.598V20.5373V20.5339ZM20.3188 19.2156C19.8966 18.7705 19.2725 18.4872 18.623 18.4872H18.6086C17.7029 18.4906 16.8261 19.0402 16.4978 19.8596C16.2668 20.4429 16.3281 21.1139 16.6601 21.6567L16.8694 21.94C17.2916 22.4154 17.9446 22.7087 18.6122 22.7087C19.3229 22.7087 20.0303 22.375 20.4487 21.8254C20.9323 21.1948 21.008 20.3114 20.604 19.6067L20.3153 19.2156H20.3188ZM31.1111 20.598C31.1111 20.7531 31.1002 20.9082 31.0787 21.0633C30.9343 22.0478 30.3029 22.9548 29.4043 23.4842C28.4266 24.0575 27.1493 24.1653 26.0703 23.7439C25.0709 23.3561 24.2771 22.5334 23.9704 21.5522C23.8729 21.2454 23.826 20.9217 23.826 20.6014V10.3309H23.8369C23.8549 10.0173 23.9162 9.70374 24.0245 9.40366C24.4467 8.26736 25.54 7.37384 26.8353 7.16142C27.0482 7.1277 27.2648 7.11084 27.4811 7.11084C28.3977 7.11421 29.307 7.45139 29.9744 8.04483C30.642 8.63489 31.0498 9.46435 31.1038 10.3309H31.1111V20.5946V20.598ZM7.9065 8.92823C8.42245 8.01785 9.39319 7.34349 10.4937 7.16142C10.7065 7.1277 10.923 7.11084 11.1396 7.11084C12.056 7.11421 12.9653 7.45139 13.6327 8.04483C13.907 8.28759 14.138 8.5742 14.3183 8.88439L21.4085 18.4063C21.5493 18.5614 21.6719 18.73 21.7802 18.9054L21.8307 18.9728H21.8235C22.0039 19.2897 22.1338 19.6303 22.2024 19.9809C22.3792 20.888 22.141 21.8624 21.5565 22.6042C21.0189 23.2921 20.1962 23.7775 19.2978 23.9361C18.3921 24.0945 17.4215 23.9192 16.6493 23.4538C16.3101 23.2482 16.0107 22.9919 15.7617 22.6952L15.74 22.6649C15.6714 22.5806 15.6065 22.4929 15.5452 22.4019L11.1178 16.4574L6.87102 22.1625C6.79156 22.3042 6.70137 22.4423 6.60389 22.5738C5.93287 23.4472 4.81064 23.9968 3.64167 23.9968C2.80442 23.9968 1.97461 23.7203 1.32517 23.2178C0.603399 22.6616 0.127182 21.8421 0.0225627 20.9689C-0.0604778 20.2878 0.0874466 19.5797 0.437467 18.9728H0.433897L0.466338 18.9256C0.513215 18.8447 0.567387 18.7637 0.625129 18.6896C0.700877 18.585 0.780196 18.4872 0.866808 18.3928L7.91736 8.92486L7.9065 8.92823Z" fill="#7B7382"/>
</svg>
