<svg width="24" height="13" viewBox="0 0 24 13" fill="none" xmlns="http://www.w3.org/2000/svg">
<path d="M9.71313 1.96435C9.5427 1.74182 9.30987 1.55721 9.03664 1.44342C8.82279 1.35237 8.5874 1.30686 8.34921 1.30433H8.33838C7.81067 1.30686 7.28565 1.55468 6.97179 1.9593L6.98797 1.96941L6.82022 2.19448C6.65246 2.5207 6.60368 2.90002 6.69577 3.25406C6.81754 3.73707 7.19914 4.15686 7.69437 4.34905C8.19228 4.54124 8.78763 4.49572 9.2477 4.22513C9.72663 3.94191 10.0379 3.42855 10.0379 2.88486C10.0379 2.63197 9.96749 2.38161 9.84304 2.15655L9.71313 1.96183V1.96435ZM20.6 1.30433C20.0778 1.30686 19.5609 1.54709 19.2443 1.94413C18.8789 2.40185 18.8058 3.04923 19.0792 3.57522C19.3552 4.10628 19.9695 4.47043 20.6109 4.4679C21.2143 4.4679 21.8017 4.14168 22.0939 3.63845C22.3834 3.14279 22.3617 2.49794 22.0181 2.0124C21.7096 1.57744 21.163 1.29927 20.6 1.3018V1.30433ZM18.9114 4.88769V8.45083C19.3742 8.10943 19.9506 7.90207 20.5622 7.89448H20.6136C21.2225 7.89448 21.8233 8.09426 22.2996 8.44577V4.89022C22.2211 4.94839 22.1372 5.00402 22.0506 5.0546C21.4742 5.39093 20.7597 5.51484 20.0886 5.39598C19.661 5.32012 19.2524 5.14311 18.9114 4.89022V4.88769ZM5.73779 3.64856L2.57421 7.89701C2.62834 7.89448 2.6798 7.89448 2.73393 7.89448C3.42125 7.89701 4.10321 8.1499 4.60391 8.59497C4.93942 8.89084 5.1911 9.27017 5.33185 9.68237L7.70241 6.49856C7.70241 6.49856 5.99751 4.20238 5.9407 4.10122C5.85688 3.95708 5.79192 3.80787 5.74047 3.65362L5.73779 3.64856ZM10.9498 3.64856C10.7577 4.21249 10.3545 4.71068 9.82139 5.03436C9.33699 5.32771 8.74968 5.4668 8.17331 5.43645L11.3504 9.70513C11.4424 9.42443 11.5831 9.15637 11.7725 8.92119C12.2677 8.30163 13.0688 7.90712 13.9158 7.89701H13.9673C14.0159 7.89701 14.0619 7.89701 14.1107 7.89954L10.9471 3.65109L10.9498 3.64856ZM4.24127 11.1415C4.42521 10.7849 4.47131 10.3601 4.33871 9.97066C4.19529 9.54581 3.85152 9.18419 3.4131 8.99959C3.19936 8.90855 2.96118 8.86303 2.72578 8.8605H2.71496C2.2387 8.8605 1.77316 9.06281 1.45383 9.39408L1.22112 9.70513C0.966754 10.1578 0.961398 10.7318 1.22659 11.192C1.46466 11.6068 1.91391 11.9128 2.40914 11.9988C2.93685 12.0898 3.5025 11.933 3.89214 11.5841C3.90565 11.5714 3.91916 11.5587 3.93277 11.5461L4.23848 11.1364L4.24127 11.1415ZM22.2969 10.4006C22.2779 9.81387 21.8882 9.24994 21.2956 9.00211C21.0818 8.91108 20.8436 8.86555 20.6082 8.86303H20.5973C20.1048 8.86303 19.6204 9.07798 19.3011 9.43202C18.8925 9.88974 18.787 10.5675 19.071 11.1239C19.2984 11.5714 19.7638 11.9102 20.2862 12.0039C20.6921 12.0747 21.1277 12.0039 21.485 11.799C21.9721 11.5208 22.2914 11.0075 22.2969 10.4638V10.4486V10.4031V10.4006ZM15.2391 9.41179C14.9225 9.07798 14.4544 8.86555 13.9673 8.86555H13.9565C13.2772 8.86809 12.6195 9.28029 12.3733 9.89479C12.2001 10.3323 12.2461 10.8355 12.4951 11.2427L12.652 11.4551C12.9687 11.8117 13.4584 12.0316 13.9591 12.0316C14.4922 12.0316 15.0227 11.7814 15.3366 11.3691C15.6992 10.8962 15.756 10.2337 15.453 9.70513L15.2364 9.41179H15.2391ZM23.3333 10.4486C23.3333 10.5649 23.3252 10.6813 23.309 10.7976C23.2007 11.536 22.7272 12.2162 22.0532 12.6133C21.3199 13.0432 20.362 13.1241 19.5528 12.808C18.8032 12.5172 18.2078 11.9002 17.9778 11.1643C17.9047 10.9342 17.8695 10.6914 17.8695 10.4511V2.74829H17.8777C17.8912 2.51311 17.9372 2.27792 18.0184 2.05286C18.3351 1.20064 19.155 0.530502 20.1265 0.371185C20.2862 0.345896 20.4486 0.333252 20.6109 0.333252C21.2983 0.335781 21.9802 0.588665 22.4808 1.03374C22.9815 1.47629 23.2873 2.09839 23.3279 2.74829H23.3333V10.4461V10.4486ZM5.92987 1.69629C6.31684 1.01351 7.04489 0.507742 7.87028 0.371185C8.02988 0.345896 8.19228 0.333252 8.35468 0.333252C9.042 0.335781 9.72396 0.588665 10.2245 1.03374C10.4302 1.21582 10.6035 1.43077 10.7387 1.66342L16.0564 8.80486C16.1619 8.92119 16.2539 9.04764 16.3352 9.17914L16.373 9.22971H16.3676C16.5029 9.46742 16.6004 9.72283 16.6518 9.98583C16.7844 10.6661 16.6057 11.3969 16.1674 11.9533C15.7641 12.4692 15.1471 12.8333 14.4733 12.9522C13.7941 13.071 13.0661 12.9395 12.4869 12.5905C12.2326 12.4363 12.008 12.2441 11.8213 12.0215L11.805 11.9988C11.7535 11.9356 11.7049 11.8698 11.6589 11.8015L8.33838 7.34319L5.15327 11.622C5.09367 11.7282 5.02603 11.8319 4.95292 11.9305C4.44965 12.5855 3.60798 12.9977 2.73125 12.9977C2.10331 12.9977 1.48096 12.7904 0.993875 12.4135C0.452549 11.9963 0.0953864 11.3817 0.016922 10.7268C-0.0453583 10.216 0.0655849 9.6849 0.3281 9.22971H0.325423L0.349753 9.1943C0.384911 9.13361 0.425541 9.07292 0.468847 9.01729C0.525658 8.93889 0.585147 8.86555 0.650106 8.79475L5.93802 1.69377L5.92987 1.69629Z" fill="#00DEFE"/>
</svg>
