<svg width="48" height="48" viewBox="0 0 48 48" fill="none" xmlns="http://www.w3.org/2000/svg">
<rect width="48" height="48" rx="24" fill="#7200E0"/>
<path d="M35.126 26.7116C35.1385 21.8062 33.2449 17.0877 29.8446 13.5519C28.5568 12.0927 26.9051 11.001 25.0578 10.3881C25.4932 9.76956 25.7189 9.02777 25.702 8.27153C25.702 6.62398 24.7658 5.33337 23.5704 5.33337C22.3749 5.33337 21.4388 6.62398 21.4388 8.27153C21.4215 9.03337 21.6514 9.78033 22.0939 10.4007C17.1029 11.7663 12 19.6626 12 26.6868C11.9967 29.1512 12.7549 31.5565 14.171 33.5736C15.587 35.5906 17.5917 37.1208 19.9108 37.9547L19.8329 40.3096L18.3649 41.7781C18.2704 41.8758 18.2182 42.0068 18.2194 42.1428C18.2205 42.2787 18.2751 42.4087 18.3712 42.5049C18.4673 42.601 18.5974 42.6555 18.7333 42.6567C18.8692 42.6579 19.0002 42.6056 19.098 42.5112L20.344 41.2646L21.5906 42.5112C21.6884 42.6056 21.8193 42.6579 21.9553 42.6567C22.0912 42.6555 22.2213 42.601 22.3174 42.5049C22.4135 42.4087 22.468 42.2787 22.4692 42.1428C22.4704 42.0068 22.4181 41.8758 22.3237 41.7781L20.8695 40.3238L20.9373 38.2743C21.794 38.5039 22.6764 38.6237 23.5633 38.6308C24.506 38.6267 25.4441 38.4982 26.3532 38.2486L26.2854 40.3096L24.8169 41.778C24.768 41.826 24.729 41.8832 24.7023 41.9463C24.6756 42.0094 24.6617 42.0772 24.6614 42.1457C24.661 42.2142 24.6743 42.2821 24.7003 42.3455C24.7264 42.4088 24.7647 42.4664 24.8132 42.5149C24.8616 42.5633 24.9192 42.6017 24.9826 42.6277C25.046 42.6538 25.1139 42.667 25.1824 42.6667C25.2509 42.6664 25.3187 42.6524 25.3818 42.6257C25.4449 42.599 25.5021 42.5601 25.55 42.5111L26.7966 41.2646L28.0426 42.5111C28.0906 42.5601 28.1478 42.599 28.2109 42.6257C28.274 42.6524 28.3417 42.6664 28.4103 42.6667C28.4788 42.667 28.5467 42.6538 28.6101 42.6277C28.6734 42.6017 28.731 42.5633 28.7795 42.5149C28.8279 42.4664 28.8663 42.4088 28.8923 42.3455C28.9184 42.2821 28.9316 42.2142 28.9313 42.1457C28.9309 42.0772 28.917 42.0094 28.8903 41.9463C28.8636 41.8832 28.8247 41.826 28.7757 41.778L27.322 40.3238L27.4015 37.9089C29.584 37.0593 31.461 35.5735 32.7888 33.6441C32.8861 33.586 32.9611 33.4971 33.002 33.3914C33.0076 33.3678 33.0115 33.3438 33.0135 33.3196C34.2934 31.3443 35.0227 29.0631 35.126 26.7116ZM23.5704 6.37031C24.0883 6.37031 24.665 7.15105 24.665 8.27153C24.665 9.3915 24.0883 10.1722 23.5704 10.1722C23.0524 10.1722 22.4757 9.3915 22.4757 8.27153C22.4757 7.15105 23.0524 6.37031 23.5704 6.37031ZM23.5633 37.5939C21.9706 37.5522 20.4072 37.156 18.9869 36.434C17.5666 35.712 16.3252 34.6824 15.353 33.4202C16.5654 32.7091 19.3472 30.4241 19.3472 24.4012C19.3472 24.2637 19.2926 24.1319 19.1953 24.0346C19.0981 23.9374 18.9662 23.8828 18.8287 23.8828C18.6912 23.8828 18.5593 23.9374 18.4621 24.0346C18.3649 24.1319 18.3102 24.2637 18.3102 24.4012C18.3102 30.1185 15.6687 32.0669 14.751 32.5722C13.6232 30.8171 13.0279 28.7729 13.0369 26.6867C13.0369 19.0085 19.1613 11.2091 23.5632 11.2091C25.225 11.2091 27.2406 12.3241 29.0942 14.2673C32.303 17.5952 34.0942 22.039 34.0901 26.6619C33.997 28.7347 33.3771 30.7496 32.2889 32.5162C31.2885 31.9245 28.8305 29.9099 28.8305 24.4012C28.8305 24.2637 28.7758 24.1319 28.6786 24.0346C28.5814 23.9374 28.4495 23.8828 28.312 23.8828C28.1745 23.8828 28.0426 23.9374 27.9454 24.0346C27.8481 24.1319 27.7935 24.2637 27.7935 24.4012C27.7935 30.296 30.4559 32.6075 31.7061 33.3701C30.7732 34.6614 29.5507 35.7161 28.1366 36.4496C26.7225 37.1831 25.1562 37.575 23.5633 37.5939Z" fill="white"/>
<path d="M22.7858 18.7569C22.7858 18.5974 22.7385 18.4415 22.6499 18.3089C22.5613 18.1762 22.4354 18.0729 22.288 18.0118C22.1406 17.9508 21.9785 17.9348 21.822 17.9659C21.6656 17.9971 21.5219 18.0739 21.4091 18.1867C21.2963 18.2994 21.2195 18.4432 21.1883 18.5996C21.1572 18.756 21.1732 18.9182 21.2342 19.0656C21.2953 19.2129 21.3987 19.3389 21.5313 19.4275C21.6639 19.5161 21.8198 19.5634 21.9794 19.5634C22.1932 19.5634 22.3984 19.4785 22.5496 19.3272C22.7009 19.176 22.7858 18.9708 22.7858 18.7569Z" fill="white"/>
<path d="M25.1972 17.9504C25.0377 17.9504 24.8817 17.9977 24.7491 18.0863C24.6165 18.175 24.5131 18.3009 24.452 18.4483C24.391 18.5957 24.375 18.7578 24.4061 18.9143C24.4372 19.0707 24.514 19.2145 24.6268 19.3272C24.7396 19.44 24.8833 19.5169 25.0398 19.548C25.1962 19.5791 25.3584 19.5632 25.5058 19.5021C25.6531 19.4411 25.7791 19.3377 25.8677 19.2051C25.9564 19.0724 26.0037 18.9165 26.0037 18.757C26.0037 18.6511 25.9828 18.5462 25.9423 18.4484C25.9018 18.3505 25.8424 18.2616 25.7675 18.1867C25.6926 18.1118 25.6037 18.0524 25.5058 18.0118C25.408 17.9713 25.3031 17.9504 25.1972 17.9504Z" fill="white"/>
<path d="M24.8359 21.6174L23.5893 22.8639L22.3428 21.6174C22.2948 21.5684 22.2376 21.5295 22.1745 21.5028C22.1114 21.4761 22.0437 21.4621 21.9751 21.4618C21.9066 21.4615 21.8387 21.4747 21.7753 21.5008C21.712 21.5268 21.6544 21.5652 21.6059 21.6136C21.5575 21.6621 21.5191 21.7197 21.4931 21.783C21.467 21.8464 21.4538 21.9143 21.4541 21.9828C21.4545 22.0513 21.4684 22.1191 21.4951 22.1822C21.5218 22.2453 21.5607 22.3025 21.6097 22.3505L23.2228 23.9636C23.2709 24.0117 23.3281 24.0499 23.391 24.076C23.4539 24.1021 23.5213 24.1155 23.5894 24.1155C23.6574 24.1155 23.7248 24.1021 23.7877 24.076C23.8506 24.0499 23.9078 24.0117 23.9559 23.9636L25.569 22.3505C25.6646 22.2529 25.7179 22.1216 25.7172 21.985C25.7165 21.8484 25.6619 21.7176 25.5653 21.621C25.4688 21.5245 25.338 21.4699 25.2014 21.4692C25.0648 21.4685 24.9334 21.5218 24.8359 21.6174Z" fill="white"/>
</svg>
