<svg width="25" height="24" viewBox="0 0 25 24" fill="none" xmlns="http://www.w3.org/2000/svg">
<path d="M7.97998 18.3505L11.08 20.7505C11.48 21.1505 12.38 21.3505 12.98 21.3505H16.78C17.98 21.3505 19.28 20.4505 19.58 19.2505L21.98 11.9505C22.48 10.5505 21.58 9.35046 20.08 9.35046H16.08C15.48 9.35046 14.98 8.85046 15.08 8.15046L15.58 4.95046C15.78 4.05046 15.18 3.05046 14.28 2.75046C13.48 2.45046 12.48 2.85046 12.08 3.45046L7.97998 9.55046" stroke="#7200E0" stroke-width="1.5" stroke-miterlimit="10"/>
<path d="M2.88 18.3504V8.55039C2.88 7.15039 3.48 6.65039 4.88 6.65039H5.88C7.28 6.65039 7.88 7.15039 7.88 8.55039V18.3504C7.88 19.7504 7.28 20.2504 5.88 20.2504H4.88C3.48 20.2504 2.88 19.7504 2.88 18.3504Z" stroke="#7200E0" stroke-width="1.5" stroke-linecap="round" stroke-linejoin="round"/>
</svg>
