<svg width="48" height="48" viewBox="0 0 48 48" fill="none" xmlns="http://www.w3.org/2000/svg">
<path d="M13.8012 41.9176C12.9333 41.9176 12.0653 41.7467 11.2632 41.4146C10.2834 41.0103 9.40563 40.3659 8.7218 39.5538C8.65934 39.4815 8.60345 39.3993 8.55742 39.3171C8.00509 38.3637 7.65331 37.2788 7.54482 36.1774C7.43633 35.0925 7.55468 34.0174 7.8966 32.9818C8.37002 30.9566 9.34317 29.0662 10.7141 27.5144C10.7338 27.4914 10.7536 27.4684 10.7766 27.4454C16.2703 21.9024 25.8209 21.6854 31.2357 26.972C31.8702 27.4848 32.3798 28.1489 32.7151 28.8919C33.0636 29.6678 33.2214 30.5292 33.1688 31.3807C33.1688 31.4234 33.1622 31.4695 33.1557 31.5155C32.9551 32.9226 32.0576 34.2475 30.4171 35.5659C29.0954 36.6278 27.5009 37.5155 26.2582 38.1697C25.571 38.5314 23.73 39.4683 21.5009 40.3067C18.7229 41.3489 16.2999 41.8848 14.3042 41.8979C14.1399 41.9111 13.9722 41.9176 13.8078 41.9176H13.8012ZM11.9437 28.6026C10.7437 29.9604 9.8955 31.6174 9.48783 33.3895C9.48125 33.4158 9.47468 33.4421 9.4681 33.4651C9.19194 34.2903 9.09659 35.1484 9.18207 36.0163C9.26755 36.8842 9.54372 37.739 9.98097 38.4919C10.4971 39.1034 11.158 39.59 11.8944 39.8957C12.621 40.1982 13.4199 40.3231 14.199 40.2574C14.2188 40.2574 14.2418 40.2574 14.2615 40.2574C16.0664 40.2508 18.3086 39.7511 20.919 38.7714C23.0626 37.9659 24.828 37.0684 25.4889 36.7199C26.5738 36.1478 28.1584 35.2733 29.3847 34.287C30.6866 33.2415 31.3869 32.2585 31.5283 31.2821C31.5644 30.6969 31.456 30.1051 31.216 29.5692C30.9825 29.0498 30.6242 28.5862 30.1771 28.2311C30.154 28.2147 30.1343 28.195 30.1113 28.1752C25.3245 23.4673 16.8325 23.6679 11.9437 28.6026Z" fill="#FDB913"/>
<path d="M22.3265 37.5288C21.9977 37.5288 21.6492 37.5189 21.281 37.4992C19.5517 37.4071 17.4311 37.0948 14.9851 36.5753C11.9901 35.977 9.01472 35.109 6.15775 33.9945L5.99994 33.9222C3.72159 32.7452 2.07119 31.1671 1.09804 29.234C0.115034 27.2844 -0.203869 25.0094 0.124897 22.2773C0.368184 19.8839 1.16708 17.5234 2.42954 15.4653C3.69201 13.4072 5.42789 11.6352 7.45637 10.3398C12.5884 6.83189 18.9895 6.08559 23.4541 6.08231H23.4969C26.8733 6.08888 30.2333 6.55573 33.488 7.46641C36.6343 8.38695 40.1587 10.4187 42.9368 12.9009C44.3932 14.2028 45.5669 15.5508 46.4217 16.9053C47.4178 18.4801 47.9472 20.0154 47.9965 21.462C48.0721 23.7765 46.9642 26.9787 41.2436 29.086C36.9171 30.8154 32.1796 31.3184 27.567 30.5326L27.5078 30.5228C26.9686 30.4011 26.1138 30.1184 25.2064 29.8192C23.3358 29.2274 21.5243 28.6718 20.0547 28.4088C19.3413 28.2806 18.7462 28.228 18.2826 28.251C17.7993 28.274 17.5922 28.3759 17.5265 28.4187C17.5199 28.4219 17.4936 28.4548 17.4739 28.4877C17.4541 28.5239 17.441 28.5666 17.4377 28.6093V28.6554C17.4081 28.8954 17.4574 29.1156 17.5758 29.2965C17.6909 29.474 17.8618 29.6088 18.0591 29.6745L18.1215 29.6943C19.1933 30.1052 20.3013 30.3715 21.4289 30.4899L21.567 30.5096C22.4547 30.651 23.4541 30.8088 24.3023 31.0521C25.1012 31.2789 26.2355 31.6964 26.8799 32.6729L26.9193 32.7353C27.1527 33.143 27.2875 33.5638 27.3303 34.0077C27.373 34.4449 27.3237 34.8789 27.1823 35.2964C27.064 35.6778 26.8437 36.0493 26.5544 36.3485C26.2815 36.6345 25.9429 36.8614 25.5747 37.0027C24.779 37.3545 23.7106 37.5255 22.3265 37.5255V37.5288ZM6.7561 32.4625C9.52431 33.5408 12.4076 34.3858 15.3172 34.9644C17.6909 35.4674 19.7259 35.7666 21.3697 35.8553C23.0004 35.9408 24.1971 35.8192 24.927 35.4904L24.9763 35.4707C25.1242 35.4148 25.259 35.326 25.3708 35.211C25.4859 35.0926 25.5714 34.9447 25.6207 34.7868C25.6897 34.5764 25.716 34.3693 25.693 34.1655C25.6733 33.9584 25.6075 33.7545 25.5056 33.577C25.2492 33.1858 24.7067 32.8767 23.8486 32.6334C23.0958 32.4164 22.1884 32.2751 21.3139 32.1337L21.2514 32.1238C19.9823 31.989 18.7363 31.6899 17.5429 31.2329C16.9873 31.0488 16.504 30.674 16.1884 30.1775C15.8728 29.6778 15.7347 29.0795 15.8004 28.4943C15.8202 28.2082 15.9057 27.9222 16.0503 27.6724C16.1917 27.4258 16.3857 27.2121 16.6191 27.051C17.0399 26.7781 17.5528 26.64 18.207 26.6072C18.8021 26.5776 19.5056 26.6367 20.3506 26.7913C21.9188 27.074 23.7829 27.6461 25.716 28.2576C26.5938 28.5469 27.4125 28.8165 27.8464 28.9151C32.1598 29.6515 36.5883 29.1814 40.6584 27.554C44.5313 26.1272 46.4414 24.0987 46.3559 21.5179C46.3165 20.3672 45.8727 19.1113 45.0343 17.7831C44.2584 16.5568 43.1833 15.3272 41.842 14.1239C39.2382 11.7963 35.9505 9.89599 33.0475 9.04449C29.9374 8.17326 26.7253 7.72942 23.5001 7.72285H23.4607C19.2295 7.72613 13.1736 8.42312 8.36377 11.7042C6.52597 12.8812 4.96762 14.4724 3.83337 16.3201C2.69913 18.1677 1.98242 20.2916 1.76215 22.4548C1.47284 24.8713 1.73914 26.8406 2.57091 28.491C3.39612 30.1315 4.76707 31.4269 6.75939 32.4559L6.7561 32.4625Z" fill="#AA52FF"/>
<path d="M12.9696 34.5993C11.329 34.5993 9.69836 34.2278 8.21563 33.5144L8.08083 33.442C7.24906 32.9423 6.52906 32.242 5.99975 31.4201C5.47372 30.5982 5.13509 29.6514 5.02002 28.6815V28.6519C4.84907 26.9522 5.32906 25.0486 6.45016 22.9906C7.28851 21.4552 8.31755 20.1599 8.9422 19.5155C11.4178 16.9676 14.3438 15.018 17.6413 13.7259C22.6517 11.7205 28.2309 11.566 33.3465 13.2953L33.3827 13.3084C36.7788 14.4755 39.5635 17.2931 40.1519 20.1665C40.3656 21.2876 40.2736 22.4218 39.8955 23.4739C39.5174 24.5226 38.8665 25.4464 38.0117 26.1533C35.2961 28.5303 32.1859 30.3779 28.7865 31.6207C26.4523 32.5281 24.0128 33.2415 21.5471 33.7445C18.9433 34.3034 16.2671 34.5894 13.5942 34.5828C13.3871 34.596 13.18 34.5993 12.9696 34.5993ZM8.92905 32.0349C10.3559 32.722 11.9438 33.0344 13.5186 32.939H13.5679C13.5844 32.939 13.6041 32.939 13.6205 32.939C16.1652 32.939 18.7197 32.6694 21.2085 32.1335C23.592 31.6503 25.9427 30.9599 28.2046 30.082C31.4298 28.9018 34.3657 27.1593 36.9465 24.8974C37.5941 24.3648 38.0709 23.6843 38.3503 22.915C38.6298 22.1424 38.6955 21.304 38.5443 20.4985C38.0676 18.1741 35.7366 15.8629 32.8731 14.8733L32.8533 14.8668C28.0994 13.2492 22.9148 13.3906 18.2529 15.258C15.1723 16.4679 12.4403 18.2859 10.1258 20.6662C9.67864 21.1232 8.70878 22.2936 7.90001 23.7796C6.95646 25.5122 6.52577 27.1396 6.65728 28.4842C6.74276 29.2141 6.99591 29.921 7.38714 30.5325C7.77837 31.144 8.31426 31.6634 8.93234 32.0349H8.92905Z" fill="#00DEFE"/>
</svg>
