<svg width="161" height="40" viewBox="0 0 161 40" fill="none" xmlns="http://www.w3.org/2000/svg">
<path d="M15.4015 40C14.4326 40 13.4638 39.8092 12.5684 39.4385C11.4748 38.9872 10.495 38.2679 9.73171 37.3615C9.66198 37.2807 9.5996 37.189 9.54822 37.0972C8.9317 36.033 8.53904 34.822 8.41794 33.5926C8.29684 32.3816 8.42895 31.1816 8.8106 30.0257C9.33904 27.7651 10.4253 25.655 11.9556 23.9229C11.9776 23.8972 11.9996 23.8715 12.0253 23.8458C18.1574 17.6586 28.818 17.4164 34.8621 23.3174C35.5703 23.8899 36.1391 24.6311 36.5135 25.4605C36.9025 26.3266 37.0786 27.288 37.0199 28.2385C37.0199 28.2862 37.0125 28.3376 37.0052 28.389C36.7814 29.9596 35.7795 31.4385 33.9483 32.9101C32.4731 34.0954 30.6933 35.0862 29.3061 35.8165C28.5391 36.2202 26.4841 37.2661 23.996 38.2018C20.8951 39.3651 18.1905 39.9633 15.9629 39.978C15.7794 39.9927 15.5923 40 15.4088 40H15.4015ZM13.3281 25.1376C11.9886 26.6532 11.0418 28.5027 10.5868 30.4807C10.5794 30.5101 10.5721 30.5394 10.5647 30.5651C10.2565 31.4862 10.1501 32.444 10.2455 33.4128C10.3409 34.3816 10.6491 35.3358 11.1372 36.1761C11.7134 36.8587 12.451 37.4018 13.273 37.7431C14.084 38.0807 14.9758 38.2202 15.8455 38.1468C15.8675 38.1468 15.8932 38.1468 15.9152 38.1468C17.9299 38.1394 20.4327 37.5816 23.3464 36.4881C25.7391 35.589 27.7098 34.5871 28.4474 34.1982C29.6584 33.5596 31.4272 32.5835 32.796 31.4825C34.2492 30.3156 35.0309 29.2183 35.1887 28.1284C35.2291 27.4752 35.108 26.8146 34.8401 26.2165C34.5795 25.6366 34.1795 25.1192 33.6804 24.7229C33.6547 24.7045 33.6327 24.6825 33.607 24.6605C28.2639 19.4054 18.785 19.6293 13.3281 25.1376Z" fill="#FDB913"/>
<path d="M24.9212 35.1011C24.5542 35.1011 24.1652 35.09 23.7542 35.068C21.8239 34.9653 19.4569 34.6166 16.7266 34.0368C13.3835 33.3689 10.0624 32.4001 6.87338 31.1561L6.69724 31.0753C4.15411 29.7616 2.3119 28.0001 1.22566 25.8423C0.128403 23.6661 -0.227562 21.1267 0.139412 18.0771C0.410973 15.4056 1.30272 12.7707 2.7119 10.4734C4.12108 8.17618 6.0587 6.19819 8.32293 4.75231C14.0514 0.8367 21.1964 0.00366974 26.1799 0H26.2276C29.9964 0.00733948 33.7469 0.528442 37.3799 1.54496C40.8919 2.57249 44.8258 4.84039 47.9268 7.61104C49.5524 9.06426 50.8625 10.5688 51.8167 12.0808C52.9286 13.8386 53.5194 15.5524 53.5745 17.167C53.6589 19.7505 52.4222 23.3249 46.0368 25.6772C41.2075 27.6074 35.9194 28.1689 30.7707 27.2919L30.7047 27.2808C30.1028 27.1451 29.1487 26.8295 28.1359 26.4955C26.0478 25.835 24.0257 25.2148 22.3854 24.9212C21.589 24.7781 20.9248 24.7194 20.4074 24.7451C19.8679 24.7707 19.6367 24.8845 19.5633 24.9322C19.556 24.9359 19.5266 24.9726 19.5046 25.0093C19.4826 25.0496 19.4679 25.0973 19.4643 25.1451V25.1964C19.4312 25.4643 19.4863 25.7102 19.6184 25.912C19.7468 26.1102 19.9377 26.2607 20.1578 26.334L20.2276 26.3561C21.4239 26.8148 22.6606 27.112 23.9193 27.2441L24.0735 27.2662C25.0643 27.424 26.1799 27.6001 27.1267 27.8717C28.0184 28.1249 29.2845 28.5909 30.0038 29.6808L30.0478 29.7506C30.3083 30.2056 30.4588 30.6754 30.5065 31.1708C30.5542 31.6588 30.4992 32.1432 30.3414 32.6093C30.2093 33.035 29.9634 33.4497 29.6404 33.7836C29.3359 34.1029 28.9579 34.3561 28.5469 34.5139C27.6588 34.9066 26.4661 35.0974 24.9212 35.0974V35.1011ZM7.54128 29.446C10.6312 30.6497 13.8496 31.5928 17.0973 32.2387C19.7468 32.8001 22.0184 33.1341 23.8533 33.2332C25.6735 33.3286 27.0092 33.1928 27.8239 32.8258L27.879 32.8038C28.0441 32.7414 28.1946 32.6423 28.3193 32.5139C28.4478 32.3818 28.5432 32.2166 28.5982 32.0405C28.6753 31.8056 28.7047 31.5744 28.679 31.3469C28.657 31.1157 28.5836 30.8882 28.4698 30.69C28.1836 30.2533 27.5781 29.9084 26.6203 29.6368C25.7799 29.3946 24.767 29.2368 23.7909 29.079L23.7212 29.068C22.3046 28.9175 20.9138 28.5836 19.5817 28.0735C18.9615 27.868 18.4221 27.4496 18.0698 26.8955C17.7175 26.3377 17.5633 25.6698 17.6367 25.0166C17.6587 24.6973 17.7542 24.3781 17.9156 24.0992C18.0734 23.8239 18.2899 23.5854 18.5505 23.4056C19.0202 23.101 19.5927 22.9469 20.323 22.9102C20.9872 22.8772 21.7725 22.9432 22.7156 23.1157C24.4661 23.4313 26.5469 24.0698 28.7047 24.7524C29.6845 25.0753 30.5982 25.3762 31.0827 25.4863C35.8974 26.3084 40.8405 25.7836 45.3836 23.9671C49.7066 22.3744 51.8387 20.1102 51.7433 17.2294C51.6992 15.945 51.2038 14.5432 50.268 13.0606C49.402 11.6918 48.202 10.3193 46.7047 8.97618C43.7983 6.37801 40.1286 4.2569 36.8882 3.30643C33.4166 2.33395 29.8313 1.83854 26.2313 1.8312H26.1872C21.4643 1.83487 14.7046 2.61285 9.33578 6.27525C7.28439 7.58902 5.54494 9.36517 4.27888 11.4276C3.01282 13.49 2.21281 15.8606 1.96694 18.2753C1.64401 20.9726 1.94125 23.1707 2.8697 25.0129C3.7908 26.8441 5.32108 28.29 7.54495 29.4386L7.54128 29.446Z" fill="#AA52FF"/>
<path d="M14.4773 31.8312C12.6461 31.8312 10.8259 31.4165 9.17082 30.6202L9.02036 30.5395C8.09192 29.9817 7.28825 29.2 6.69742 28.2826C6.11026 27.3652 5.73228 26.3083 5.60384 25.2257V25.1927C5.41301 23.2954 5.94879 21.1706 7.20017 18.8734C8.13596 17.1596 9.28458 15.7137 9.98183 14.9945C12.7451 12.1504 16.0112 9.97426 19.692 8.53205C25.2846 6.29351 31.5122 6.12103 37.2223 8.05131L37.2627 8.06599C41.0535 9.36875 44.1618 12.5137 44.8187 15.7211C45.0572 16.9725 44.9544 18.2385 44.5324 19.4128C44.1104 20.5835 43.3838 21.6147 42.4297 22.4037C39.3985 25.0569 35.9269 27.1193 32.1324 28.5064C29.5269 29.5193 26.8039 30.3156 24.0516 30.8771C21.1452 31.5009 18.158 31.8202 15.1745 31.8129C14.9433 31.8276 14.7121 31.8312 14.4773 31.8312ZM9.96715 28.9688C11.5598 29.7358 13.3323 30.0844 15.0901 29.978H15.1452C15.1635 29.978 15.1855 29.978 15.2039 29.978C18.0443 29.978 20.8956 29.6771 23.6736 29.0789C26.3342 28.5395 28.9581 27.7688 31.4828 26.789C35.0829 25.4716 38.3599 23.5266 41.2407 21.0018C41.9636 20.4073 42.4957 19.6477 42.8077 18.789C43.1196 17.9266 43.193 16.9908 43.0242 16.0917C42.4921 13.4972 39.8902 10.9174 36.6939 9.81279L36.6718 9.80545C31.3654 7.99994 25.5782 8.15774 20.3745 10.2421C16.936 11.5926 13.8864 13.622 11.3029 16.2789C10.8039 16.789 9.72128 18.0954 8.81853 19.7541C7.76531 21.6881 7.28458 23.5046 7.43137 25.0055C7.52678 25.8202 7.80935 26.6092 8.24605 27.2918C8.68275 27.9743 9.28091 28.5541 9.97082 28.9688H9.96715Z" fill="#00DEFE"/>
<path d="M67.5423 36.1473C66.2124 36.2061 64.8804 36.0951 63.5784 35.8177L63.9853 31.2439C64.698 31.3587 65.4189 31.4138 66.1406 31.4088C67.1053 31.4088 67.5724 30.914 67.5724 29.9093V12.2896H73.2396V30.7041C73.2374 31.1665 73.1972 31.6279 73.1189 32.0836C72.9063 33.1418 72.3816 34.1128 71.6116 34.8728C71.1239 35.3 70.5549 35.6262 69.9387 35.8325C69.1637 36.0726 68.3535 36.1789 67.5423 36.1473ZM72.8476 9.77032C72.181 10.3773 71.3099 10.7138 70.4062 10.7138C69.5024 10.7138 68.6313 10.3773 67.9644 9.77032C67.6435 9.43889 67.3939 9.04587 67.2307 8.61536C67.0672 8.18482 66.9939 7.72577 67.015 7.2661C66.9954 6.81107 67.0697 6.35684 67.2329 5.93137C67.3961 5.5059 67.6453 5.11815 67.9644 4.7918C68.6281 4.17836 69.5003 3.83746 70.4062 3.83746C71.3117 3.83746 72.1843 4.17836 72.8476 4.7918C73.459 5.4754 73.7967 6.35858 73.7967 7.27357C73.7967 8.18859 73.459 9.07166 72.8476 9.7553V9.77032Z" fill="#3A1A7D"/>
<path d="M92.7431 21.7651V23.1897H80.9266C81.1863 24.0181 81.7259 24.7319 82.4538 25.2101C83.1816 25.6883 84.0531 25.9016 84.9209 25.8139C86.752 25.7566 88.5522 25.3279 90.211 24.5542L91.9445 28.3631C89.5499 29.4887 86.9362 30.0774 84.2877 30.0876C81.8775 30.0876 79.5656 29.135 77.8614 27.4392C76.1569 25.7434 75.1995 23.4435 75.1995 21.0453C75.1995 18.6471 76.1569 16.3472 77.8614 14.6515C79.5656 12.9557 81.8775 12.003 84.2877 12.003C85.474 11.9255 86.6617 12.1283 87.754 12.5948C88.8463 13.0613 89.8121 13.7783 90.5729 14.6872C92.1117 16.7184 92.8805 19.2251 92.7431 21.7651ZM84.2576 16.2017C83.8242 16.1899 83.3927 16.2648 82.9887 16.4219C82.585 16.5791 82.2169 16.8152 81.9065 17.1164C81.2544 17.8158 80.8428 18.7033 80.7308 19.6507H87.5886C87.272 17.3563 86.1717 16.2017 84.2576 16.2017Z" fill="#3A1A7D"/>
<path d="M106.067 12.394V5.18121H111.719V25.65C111.747 26.0984 111.654 26.5462 111.45 26.9469C111.246 27.3477 110.938 27.6869 110.558 27.9294C108.207 29.4184 105.461 30.1707 102.675 30.0887C101.491 30.1294 100.311 29.9267 99.2087 29.4933C98.1066 29.0598 97.106 28.4049 96.2697 27.5695C94.6672 25.7767 93.7816 23.4608 93.7816 21.0614C93.7816 18.662 94.6672 16.3462 96.2697 14.5534C97.1002 13.7081 98.099 13.0447 99.2022 12.6057C100.305 12.1667 101.488 11.9619 102.675 12.0041C103.816 12.023 104.952 12.1536 106.067 12.394ZM103.052 25.3202C104.081 25.2914 105.099 25.0991 106.067 24.7503V17.0426C105.084 16.7744 104.07 16.6383 103.052 16.6378C102.537 16.6218 102.025 16.7228 101.555 16.9333C101.085 17.1438 100.669 17.4581 100.339 17.8524C99.658 18.7539 99.2899 19.8511 99.2899 20.9789C99.2899 22.1067 99.658 23.204 100.339 24.1055C100.671 24.501 101.089 24.816 101.562 25.0265C102.035 25.2369 102.55 25.3374 103.067 25.3202H103.052Z" fill="#3A1A7D"/>
<path d="M125.903 12.394V5.18121H131.57V25.65C131.595 26.098 131.501 26.5446 131.297 26.9448C131.094 27.345 130.787 27.6847 130.409 27.9294C128.053 29.4188 125.302 30.171 122.512 30.0887C121.329 30.1291 120.152 29.9262 119.052 29.4927C117.952 29.0592 116.955 28.4045 116.121 27.5695C114.509 25.7812 113.617 23.4636 113.617 21.0614C113.617 18.6592 114.509 16.3417 116.121 14.5534C116.948 13.7085 117.945 13.0452 119.045 12.6062C120.146 12.1672 121.326 11.9621 122.512 12.0041C123.652 12.023 124.788 12.1536 125.903 12.394ZM122.888 25.3202C123.917 25.2914 124.935 25.0991 125.903 24.7503V17.0426C124.921 16.7731 123.907 16.637 122.888 16.6378C122.373 16.6218 121.861 16.7228 121.391 16.9333C120.921 17.1438 120.505 17.4581 120.175 17.8524C119.44 18.7222 119.064 19.8365 119.12 20.9714C119.073 22.1047 119.437 23.2172 120.145 24.1055C120.482 24.5072 120.908 24.8258 121.388 25.0365C121.87 25.2472 122.393 25.3443 122.919 25.3202H122.888Z" fill="#3A1A7D"/>
<path d="M140.025 30.088C139.185 30.0998 138.349 29.9679 137.554 29.6981C136.94 29.5075 136.377 29.1791 135.911 28.7384C135.515 28.3464 135.188 27.89 134.946 27.3888C134.708 26.9155 134.541 26.4104 134.449 25.8893C134.371 25.4385 134.33 24.982 134.328 24.5247V5.21051H139.995V23.6999C139.958 23.905 139.971 24.1161 140.033 24.3151C140.096 24.5141 140.206 24.6952 140.354 24.8426C140.502 24.99 140.684 25.0995 140.884 25.1617C141.084 25.2238 141.297 25.2368 141.503 25.1994L142.663 25.1245L142.995 29.863C142.016 30.0429 141.021 30.1183 140.025 30.088Z" fill="#3A1A7D"/>
<path d="M160.657 21.7658V23.1904H148.841C149.101 24.0188 149.64 24.7326 150.368 25.2108C151.096 25.689 151.967 25.9023 152.835 25.8146C154.671 25.7564 156.476 25.3278 158.14 24.5549L159.859 28.3637C157.465 29.4922 154.851 30.081 152.202 30.0883C149.792 30.0883 147.48 29.1357 145.775 27.4399C144.071 25.7441 143.114 23.4442 143.114 21.046C143.114 18.6478 144.071 16.3479 145.775 14.6522C147.48 12.9564 149.792 12.0037 152.202 12.0037C153.389 11.9322 154.578 12.1376 155.671 12.6036C156.765 13.0696 157.734 13.7833 158.502 14.6878C160.03 16.7241 160.792 19.2284 160.657 21.7658ZM152.172 16.2024C151.738 16.1906 151.307 16.2655 150.903 16.4226C150.499 16.5798 150.131 16.8159 149.821 17.1171C149.169 17.8165 148.757 18.704 148.645 19.6514H155.503C155.186 17.357 154.086 16.2024 152.172 16.2024Z" fill="#3A1A7D"/>
</svg>
