<svg width="24" height="24" viewBox="0 0 24 24" fill="none" xmlns="http://www.w3.org/2000/svg">
<rect width="24" height="24" fill="#1E1E1E"/>
<g id="Workspace Document" clip-path="url(#clip0_14_130)">
<rect width="1920" height="1253" transform="translate(-1504 -169)" fill="#FCFAFF"/>
<g id="Frame 1388">
<g id="Frame 1386">
<g id="Frame 1371">
<g id="Frame 1315">
<g id="Frame 1313">
<g id="feedback">
<g id="vuesax/linear/messages">
<g id="messages">
<g id="Group">
<path id="Vector" d="M17.98 10.79V14.79C17.98 15.05 17.97 15.3 17.94 15.54C17.71 18.24 16.12 19.58 13.19 19.58H12.79C12.54 19.58 12.3 19.7 12.15 19.9L10.95 21.5C10.42 22.21 9.56 22.21 9.03 21.5L7.82999 19.9C7.69999 19.73 7.41 19.58 7.19 19.58H6.79001C3.60001 19.58 2 18.79 2 14.79V10.79C2 7.86001 3.35001 6.27001 6.04001 6.04001C6.28001 6.01001 6.53001 6 6.79001 6H13.19C16.38 6 17.98 7.60001 17.98 10.79Z" stroke="#7200E0" stroke-width="1.5" stroke-miterlimit="10" stroke-linecap="round" stroke-linejoin="round"/>
</g>
<path id="Vector_2" d="M21.9791 6.79001V10.79C21.9791 13.73 20.6291 15.31 17.9391 15.54C17.9691 15.3 17.9791 15.05 17.9791 14.79V10.79C17.9791 7.60001 16.3791 6 13.1891 6H6.78906C6.52906 6 6.27906 6.01001 6.03906 6.04001C6.26906 3.35001 7.85906 2 10.7891 2H17.1891C20.3791 2 21.9791 3.60001 21.9791 6.79001Z" stroke="#7200E0" stroke-width="1.5" stroke-miterlimit="10" stroke-linecap="round" stroke-linejoin="round"/>
<path id="Vector_3" d="M13.4955 13.25H13.5045" stroke="#7200E0" stroke-width="2" stroke-linecap="round" stroke-linejoin="round"/>
<path id="Vector_4" d="M9.9955 13.25H10.0045" stroke="#7200E0" stroke-width="2" stroke-linecap="round" stroke-linejoin="round"/>
<path id="Vector_5" d="M6.4955 13.25H6.5045" stroke="#7200E0" stroke-width="2" stroke-linecap="round" stroke-linejoin="round"/>
</g>
</g>
</g>
</g>
<rect x="-11.5" y="-7.5" width="187" height="39" rx="19.5" stroke="#7200E0"/>
</g>
</g>
</g>
</g>
</g>
<defs>
<clipPath id="clip0_14_130">
<rect width="1920" height="1253" fill="white" transform="translate(-1504 -169)"/>
</clipPath>
</defs>
</svg>
