<svg width="32" height="32" viewBox="0 0 32 32" fill="none" xmlns="http://www.w3.org/2000/svg">
<path d="M15.9999 8.5865V13.0265M16.0265 2.6665C11.1199 2.6665 7.14653 6.63984 7.14653 11.5465V14.3465C7.14653 15.2532 6.7732 16.6132 6.30653 17.3865L4.6132 20.2132C3.5732 21.9598 4.2932 23.9065 6.2132 24.5465C12.5882 26.6665 19.4782 26.6665 25.8532 24.5465C26.2739 24.4062 26.6576 24.1731 26.9761 23.8646C27.2946 23.556 27.5397 23.1799 27.6933 22.7639C27.8469 22.3479 27.9051 21.9027 27.8635 21.4612C27.822 21.0197 27.6817 20.5932 27.4532 20.2132L25.7599 17.3865C25.2932 16.6132 24.9199 15.2398 24.9199 14.3465V11.5465C24.9065 6.6665 20.9065 2.6665 16.0265 2.6665Z" stroke="#7200E0" stroke-width="1.5" stroke-miterlimit="10" stroke-linecap="round"/>
<path d="M20.4396 25.0933C20.4396 27.5333 18.4396 29.5333 15.9996 29.5333C14.7862 29.5333 13.6662 29.0266 12.8662 28.2266C12.0662 27.4266 11.5596 26.3066 11.5596 25.0933" stroke="#7200E0" stroke-width="1.5" stroke-miterlimit="10"/>
</svg>
