<svg width="36" height="36" viewBox="0 0 36 36" fill="none" xmlns="http://www.w3.org/2000/svg">
<path d="M27.0001 10.74C26.9101 10.725 26.8051 10.725 26.7151 10.74C24.6451 10.665 22.9951 8.97 22.9951 6.87C22.9951 4.725 24.7201 3 26.8651 3C29.0101 3 30.7351 4.74 30.7351 6.87C30.7201 8.97 29.0701 10.665 27.0001 10.74Z" stroke="#301B72" stroke-width="2" stroke-linecap="round" stroke-linejoin="round"/>
<path d="M25.4552 21.6602C27.5102 22.0052 29.7752 21.6452 31.3652 20.5802C33.4802 19.1702 33.4802 16.8602 31.3652 15.4502C29.7602 14.3852 27.4652 14.0252 25.4102 14.3852" stroke="#301B72" stroke-width="2" stroke-linecap="round" stroke-linejoin="round"/>
<path d="M8.95522 10.74C9.04522 10.725 9.15022 10.725 9.24022 10.74C11.3102 10.665 12.9602 8.97 12.9602 6.87C12.9602 4.725 11.2352 3 9.09022 3C6.94522 3 5.22021 4.74 5.22021 6.87C5.23521 8.97 6.88522 10.665 8.95522 10.74Z" stroke="#301B72" stroke-width="2" stroke-linecap="round" stroke-linejoin="round"/>
<path d="M10.5002 21.6602C8.44515 22.0052 6.18016 21.6452 4.59016 20.5802C2.47516 19.1702 2.47516 16.8602 4.59016 15.4502C6.19516 14.3852 8.49015 14.0252 10.5452 14.3852" stroke="#301B72" stroke-width="2" stroke-linecap="round" stroke-linejoin="round"/>
<path d="M18.0001 21.9451C17.9101 21.9301 17.8051 21.9301 17.7151 21.9451C15.6451 21.8701 13.9951 20.1751 13.9951 18.0751C13.9951 15.9301 15.7201 14.2051 17.8651 14.2051C20.0101 14.2051 21.7351 15.9451 21.7351 18.0751C21.7201 20.1751 20.0701 21.8851 18.0001 21.9451Z" stroke="#301B72" stroke-width="2" stroke-linecap="round" stroke-linejoin="round"/>
<path d="M13.6351 26.67C11.5201 28.08 11.5201 30.39 13.6351 31.8C16.0351 33.405 19.9651 33.405 22.3651 31.8C24.4801 30.39 24.4801 28.08 22.3651 26.67C19.9801 25.08 16.0351 25.08 13.6351 26.67Z" stroke="#301B72" stroke-width="2" stroke-linecap="round" stroke-linejoin="round"/>
</svg>
