<svg width="32" height="32" viewBox="0 0 32 32" fill="none" xmlns="http://www.w3.org/2000/svg">
<path d="M19.0463 9.3976H8.89001C8.35646 9.3962 7.82787 9.50008 7.33453 9.70329C6.84119 9.9065 6.39279 10.2051 6.01502 10.5818C5.63724 10.9586 5.33752 11.4062 5.13301 11.899C4.92851 12.3919 4.82324 12.9202 4.82324 13.4537V19.5539C4.82324 20.6325 5.2517 21.6669 6.01437 22.4295C6.77704 23.1922 7.81144 23.6206 8.89001 23.6206H10.9234L13.9682 26.6654L17.0661 23.6206H19.0995C20.1781 23.6206 21.2125 23.1922 21.9752 22.4295C22.7378 21.6669 23.1663 20.6325 23.1663 19.5539V13.4537C23.1664 12.9156 23.0594 12.3829 22.8515 11.8866C22.6437 11.3903 22.3392 10.9403 21.9558 10.5628C21.5724 10.1853 21.1176 9.88787 20.6181 9.68782C20.1186 9.48778 19.5843 9.38912 19.0463 9.3976Z" stroke="#7200E0" stroke-width="1.5" stroke-miterlimit="10"/>
<path d="M23.1127 19.5564C23.6486 19.5564 24.1791 19.4505 24.6739 19.2448C25.1687 19.0391 25.618 18.7376 25.9959 18.3577C26.3738 17.9778 26.6729 17.527 26.876 17.0311C27.0792 16.5353 27.1823 16.0041 27.1795 15.4683V9.40008C27.1795 8.32151 26.751 7.28711 25.9883 6.52444C25.2257 5.76178 24.1913 5.33331 23.1127 5.33331H12.9564C11.8778 5.33331 10.8434 5.76178 10.0808 6.52444C9.31811 7.28711 8.88965 8.32151 8.88965 9.40008" stroke="#7200E0" stroke-width="1.5" stroke-miterlimit="10"/>
<path d="M8.88965 16.5121H10.923" stroke="#7200E0" stroke-width="1.5" stroke-miterlimit="10"/>
<path d="M12.9561 16.5121H14.9894" stroke="#7200E0" stroke-width="1.5" stroke-miterlimit="10"/>
<path d="M17.0117 16.5121H19.0451" stroke="#7200E0" stroke-width="1.5" stroke-miterlimit="10"/>
</svg>
