<svg width="24" height="24" viewBox="0 0 24 24" fill="none" xmlns="http://www.w3.org/2000/svg">
<g clip-path="url(#clip0_1128_10624)">
<path d="M11.2266 4.5H9.72656C5.97656 4.5 4.47656 6 4.47656 9.75V14.25C4.47656 18 5.97656 19.5 9.72656 19.5H14.2266C17.9766 19.5 19.4766 18 19.4766 14.25V12.75" stroke="#7200E0" stroke-width="1.5" stroke-linecap="round" stroke-linejoin="round"/>
<path d="M19.4081 5.67017C18.4856 7.97267 16.1681 11.1077 14.2331 12.6602L13.0481 13.6052C12.8981 13.7177 12.7481 13.8077 12.5756 13.8752C12.5756 13.7627 12.5681 13.6502 12.5531 13.5302C12.4856 13.0277 12.2606 12.5552 11.8556 12.1577C11.4431 11.7452 10.9481 11.5127 10.4381 11.4452C10.3181 11.4377 10.1981 11.4302 10.0781 11.4377C10.1456 11.2502 10.2431 11.0777 10.3706 10.9352L11.3156 9.75017C12.8681 7.81517 16.0106 5.48267 18.3056 4.56017C18.6581 4.42517 19.0031 4.53017 19.2206 4.74767C19.4456 4.97267 19.5506 5.31767 19.4081 5.67017Z" stroke="#7200E0" stroke-width="1.5" stroke-linecap="round" stroke-linejoin="round"/>
<path d="M12.586 13.8683C12.586 14.5283 12.331 15.1583 11.8585 15.6383C11.491 16.0058 10.996 16.2608 10.4035 16.3358L8.92605 16.4933C8.12355 16.5833 7.43355 15.9008 7.52355 15.0833L7.68105 13.6058C7.82355 12.2933 8.91855 11.4533 10.0885 11.4308C10.2085 11.4233 10.3285 11.4308 10.4485 11.4383C10.9585 11.5058 11.4535 11.7383 11.866 12.1508C12.271 12.5558 12.496 13.0208 12.5635 13.5233C12.5785 13.6433 12.586 13.7633 12.586 13.8683Z" stroke="#7200E0" stroke-width="1.5" stroke-linecap="round" stroke-linejoin="round"/>
<path d="M14.8659 11.9851C14.8659 10.4176 13.5984 9.14258 12.0234 9.14258" stroke="#7200E0" stroke-width="1.5" stroke-linecap="round" stroke-linejoin="round"/>
</g>
<defs>
<clipPath id="clip0_1128_10624">
<rect width="18" height="18" fill="white" transform="translate(3 3)"/>
</clipPath>
</defs>
</svg>
