<svg width="24" height="25" viewBox="0 0 24 25" fill="none" xmlns="http://www.w3.org/2000/svg">
<path d="M12 24.5C18.6276 24.5 24 19.1276 24 12.5C24 5.8724 18.6276 0.5 12 0.5C5.3724 0.5 0 5.8724 0 12.5C0 19.1276 5.3724 24.5 12 24.5Z" fill="#A6A6A6"/>
<path d="M10.6368 14.885V11.8601C11.5934 11.8213 12.3169 11.6274 12.8072 11.2784C13.3094 10.9164 13.5605 10.3606 13.5605 9.6108V9.33934C13.5605 8.7964 13.4111 8.37627 13.1121 8.07895C12.8132 7.78163 12.4126 7.63296 11.9103 7.63296C11.3722 7.63296 10.9357 7.80748 10.6009 8.15651C10.278 8.49261 10.0508 8.93213 9.91928 9.47507L8 8.62188C8.10762 8.22114 8.26308 7.83333 8.46637 7.45845C8.66966 7.08356 8.93274 6.75392 9.25561 6.46953C9.57848 6.17221 9.96712 5.93952 10.4215 5.77147C10.8759 5.59049 11.4021 5.5 12 5.5C12.6099 5.5 13.1599 5.59695 13.6502 5.79086C14.1405 5.97184 14.559 6.23684 14.9058 6.58587C15.2526 6.92198 15.5217 7.32918 15.713 7.80748C15.9043 8.28578 16 8.81579 16 9.39751C16 9.9663 15.9103 10.4769 15.7309 10.9294C15.5635 11.3689 15.3303 11.7567 15.0314 12.0928C14.7324 12.416 14.3916 12.681 14.009 12.8878C13.6263 13.0817 13.2317 13.2175 12.8251 13.295V14.885H10.6368ZM11.7489 19.5C11.2466 19.5 10.8819 19.3707 10.6547 19.1122C10.4275 18.8536 10.3139 18.524 10.3139 18.1233V17.7355C10.3139 17.3347 10.4275 17.0051 10.6547 16.7465C10.8819 16.488 11.2466 16.3587 11.7489 16.3587C12.2631 16.3587 12.6338 16.488 12.861 16.7465C13.0882 17.0051 13.2018 17.3347 13.2018 17.7355V18.1233C13.2018 18.524 13.0882 18.8536 12.861 19.1122C12.6338 19.3707 12.2631 19.5 11.7489 19.5Z" fill="white"/>
</svg>
