<svg width="40" height="24" viewBox="0 0 40 24" fill="none" xmlns="http://www.w3.org/2000/svg">
<g style="mix-blend-mode:multiply">
<path fill-rule="evenodd" clip-rule="evenodd" d="M0 20C0 20.5523 0.447715 21 1 21H27C27.5523 21 28 20.5523 28 20V4C28 3.44772 27.5523 3 27 3H1C0.447715 3 0 3.44772 0 4V20Z" fill="#F0C8C8"/>
</g>
<path d="M9.786 17L8.967 14.543H5.574L4.781 17H3.286L6.38 7.926H8.226L11.32 17H9.786ZM7.303 9.278H7.238L5.925 13.282H8.603L7.303 9.278ZM12.6214 7.38H14.0384V11.358H14.1034C14.2508 10.9507 14.4891 10.6387 14.8184 10.422C15.1564 10.1967 15.5508 10.084 16.0014 10.084C16.8594 10.084 17.5224 10.396 17.9904 11.02C18.4584 11.6353 18.6924 12.502 18.6924 13.62C18.6924 14.738 18.4584 15.609 17.9904 16.233C17.5224 16.8483 16.8594 17.156 16.0014 17.156C15.5508 17.156 15.1564 17.0433 14.8184 16.818C14.4891 16.5927 14.2508 16.2807 14.1034 15.882H14.0384V17H12.6214V7.38ZM15.5724 15.934C16.0664 15.934 16.4608 15.778 16.7554 15.466C17.0501 15.1453 17.1974 14.725 17.1974 14.205V13.035C17.1974 12.515 17.0501 12.099 16.7554 11.787C16.4608 11.4663 16.0664 11.306 15.5724 11.306C15.1391 11.306 14.7751 11.4143 14.4804 11.631C14.1858 11.839 14.0384 12.1163 14.0384 12.463V14.777C14.0384 15.1237 14.1858 15.4053 14.4804 15.622C14.7751 15.83 15.1391 15.934 15.5724 15.934ZM22.9278 17.156C22.4424 17.156 22.0091 17.0737 21.6278 16.909C21.2464 16.7443 20.9258 16.5103 20.6658 16.207C20.4058 15.895 20.2064 15.5223 20.0678 15.089C19.9291 14.647 19.8598 14.1573 19.8598 13.62C19.8598 13.0827 19.9291 12.5973 20.0678 12.164C20.2064 11.722 20.4058 11.3493 20.6658 11.046C20.9258 10.734 21.2464 10.4957 21.6278 10.331C22.0091 10.1663 22.4424 10.084 22.9278 10.084C23.6038 10.084 24.1584 10.2357 24.5918 10.539C25.0251 10.8423 25.3414 11.2453 25.5408 11.748L24.3708 12.294C24.2754 11.982 24.1064 11.735 23.8638 11.553C23.6298 11.3623 23.3178 11.267 22.9278 11.267C22.4078 11.267 22.0134 11.4317 21.7448 11.761C21.4848 12.0817 21.3548 12.502 21.3548 13.022V14.231C21.3548 14.751 21.4848 15.1757 21.7448 15.505C22.0134 15.8257 22.4078 15.986 22.9278 15.986C23.3438 15.986 23.6731 15.8863 23.9158 15.687C24.1671 15.479 24.3664 15.206 24.5138 14.868L25.5928 15.44C25.3674 15.9947 25.0294 16.4193 24.5788 16.714C24.1281 17.0087 23.5778 17.156 22.9278 17.156Z" fill="black"/>
<path d="M35.9308 20.3967C36.2969 21.1734 37.0884 21.7143 38 21.7143C38.6857 21.7143 39.1429 22.1714 39.1429 22.8571C39.1429 23.5429 38.6857 24 38 24C37.0715 24 36.1954 23.6857 35.4781 23.199C34.9581 22.8461 34.2106 22.8712 33.6943 23.2294C32.9716 23.7308 32.0841 24 31.1429 24C30.4571 24 30 23.5429 30 22.8571C30 22.1714 30.4571 21.7143 31.1429 21.7143C32.0545 21.7143 32.8459 21.1734 33.2121 20.3967C33.4476 19.8971 32.9809 19.4286 32.4286 19.4286H32.1429C31.5906 19.4286 31.1429 18.9809 31.1429 18.4286V18.1429C31.1429 17.5906 31.5906 17.1429 32.1429 17.1429H32.4286C32.9809 17.1429 33.4286 16.6951 33.4286 16.1429V4.57143C33.4286 3.31429 32.4 2.28571 31.1429 2.28571C30.4571 2.28571 30 1.82857 30 1.14286C30 0.457143 30.4571 0 31.1429 0C32.0713 0 32.9474 0.314294 33.6647 0.801027C34.1847 1.15387 34.9322 1.12879 35.4486 0.770586C36.1713 0.269178 37.0587 0 38 0C38.6857 0 39.1429 0.457143 39.1429 1.14286C39.1429 1.82857 38.6857 2.28571 38 2.28571C36.7429 2.28571 35.7143 3.31429 35.7143 4.57143V16.1429C35.7143 16.6951 36.162 17.1429 36.7143 17.1429H37C37.5523 17.1429 38 17.5906 38 18.1429V18.4286C38 18.9809 37.5523 19.4286 37 19.4286H36.7143C36.162 19.4286 35.6952 19.8971 35.9308 20.3967Z" fill="#6F6F6F"/>
</svg>
