<svg width="24" height="24" viewBox="0 0 24 24" fill="none" xmlns="http://www.w3.org/2000/svg">
<path d="M12 22C17.5228 22 22 17.5228 22 12C22 6.47715 17.5228 2 12 2C6.47715 2 2 6.47715 2 12C2 17.5228 6.47715 22 12 22Z" stroke="#7200E0" stroke-width="1.5" stroke-linecap="round" stroke-linejoin="round"/>
<path d="M8.01172 14.5099C8.19172 14.8099 8.41171 15.09 8.66171 15.34C10.5017 17.18 13.4917 17.18 15.3417 15.34C16.0917 14.59 16.5217 13.6399 16.6617 12.6699" stroke="#7200E0" stroke-width="1.5" stroke-linecap="round" stroke-linejoin="round"/>
<path d="M7.33984 11.3303C7.47984 10.3503 7.90985 9.41027 8.65985 8.66027C10.4999 6.82027 13.4898 6.82027 15.3398 8.66027C15.5998 8.92027 15.8098 9.20029 15.9898 9.49029" stroke="#7200E0" stroke-width="1.5" stroke-linecap="round" stroke-linejoin="round"/>
<path d="M7.82031 17.1807V14.5107H10.4903" stroke="#7200E0" stroke-width="1.5" stroke-linecap="round" stroke-linejoin="round"/>
<path d="M16.1817 6.82031V9.4903H13.5117" stroke="#7200E0" stroke-width="1.5" stroke-linecap="round" stroke-linejoin="round"/>
</svg>
