<svg width="98" height="59" viewBox="0 0 98 59" fill="none" xmlns="http://www.w3.org/2000/svg">
<rect y="15.5" width="23" height="13" rx="2" fill="#CE99FF" fill-opacity="0.5"/>
<rect y="30.5" width="23" height="13" rx="2" fill="#CE99FF" fill-opacity="0.5"/>
<rect y="45.5" width="23" height="13" rx="2" fill="#CE99FF" fill-opacity="0.5"/>
<rect x="25" y="0.5" width="23" height="13" rx="2" fill="#CE99FF" fill-opacity="0.5"/>
<rect y="0.5" width="23" height="13" rx="2" fill="#F3F3F3"/>
<rect x="25.5" y="16" width="22" height="12" rx="1.5" stroke="#CFCFCF"/>
<rect x="25.5" y="31" width="22" height="12" rx="1.5" stroke="#CFCFCF"/>
<rect x="25.5" y="46" width="22" height="12" rx="1.5" stroke="#CFCFCF"/>
<rect x="50" y="0.5" width="23" height="13" rx="2" fill="#CE99FF" fill-opacity="0.5"/>
<rect x="50.5" y="16" width="22" height="12" rx="1.5" stroke="#CFCFCF"/>
<rect x="50.5" y="31" width="22" height="12" rx="1.5" stroke="#CFCFCF"/>
<rect x="50.5" y="46" width="22" height="12" rx="1.5" stroke="#CFCFCF"/>
<rect x="75" y="0.5" width="23" height="13" rx="2" fill="#CE99FF" fill-opacity="0.5"/>
<rect x="75.5" y="16" width="22" height="12" rx="1.5" stroke="#CFCFCF"/>
<rect x="75.5" y="31" width="22" height="12" rx="1.5" stroke="#CFCFCF"/>
<rect x="75.5" y="46" width="22" height="12" rx="1.5" stroke="#CFCFCF"/>
</svg>
