<svg width="49" height="48" viewBox="0 0 49 48" fill="none" xmlns="http://www.w3.org/2000/svg">
<rect x="0.666992" width="48" height="48" rx="4" fill="#F1E6FC"/>
<rect x="9.88477" y="9.21741" width="8.52174" height="8.52174" rx="2" fill="#C596F2"/>
<rect x="20.4062" y="9.21741" width="8.52174" height="8.52174" rx="2" fill="#50009D"/>
<path d="M22.2998 13.5804L23.8148 15.2142L27.0341 11.7424" stroke="white" stroke-linecap="round" stroke-linejoin="round"/>
<rect x="30.9277" y="9.21741" width="8.52174" height="8.52174" rx="2" fill="#50009D"/>
<path d="M32.8213 13.5804L34.3363 15.2142L37.5556 11.7424" stroke="white" stroke-linecap="round" stroke-linejoin="round"/>
<rect x="9.88477" y="19.7391" width="8.52174" height="8.52174" rx="2" fill="#C596F2"/>
<rect x="20.4062" y="19.7391" width="8.52174" height="8.52174" rx="2" fill="#C596F2"/>
<rect x="30.9277" y="19.7391" width="8.52174" height="8.52174" rx="2" fill="#C596F2"/>
<rect x="9.88477" y="30.2609" width="8.52174" height="8.52174" rx="2" fill="#C596F2"/>
<rect x="20.4062" y="30.2609" width="8.52174" height="8.52174" rx="2" fill="#C596F2"/>
<rect x="30.9277" y="30.2609" width="8.52174" height="8.52174" rx="2" fill="#50009D"/>
<path d="M32.8223 34.6238L34.3372 36.2576L37.5566 32.7858" stroke="white" stroke-linecap="round" stroke-linejoin="round"/>
</svg>
