<svg width="20" height="21" viewBox="0 0 20 21" fill="none" xmlns="http://www.w3.org/2000/svg">
<path d="M14.1334 5.6416C15.8 6.79993 16.95 8.6416 17.1834 10.7666" stroke="#7200E0" stroke-width="1.5" stroke-linecap="round" stroke-linejoin="round"/>
<path d="M2.90833 10.8086C3.12499 8.69193 4.25833 6.85026 5.90833 5.68359" stroke="#7200E0" stroke-width="1.5" stroke-linecap="round" stroke-linejoin="round"/>
<path d="M6.82501 17.9502C7.79168 18.4419 8.89168 18.7169 10.05 18.7169C11.1667 18.7169 12.2167 18.4669 13.1583 18.0085" stroke="#7200E0" stroke-width="1.5" stroke-linecap="round" stroke-linejoin="round"/>
<path d="M10.05 6.91654C11.3295 6.91654 12.3667 5.87933 12.3667 4.59987C12.3667 3.32041 11.3295 2.2832 10.05 2.2832C8.77054 2.2832 7.73334 3.32041 7.73334 4.59987C7.73334 5.87933 8.77054 6.91654 10.05 6.91654Z" stroke="#7200E0" stroke-width="1.5" stroke-linecap="round" stroke-linejoin="round"/>
<path d="M4.02498 17.1001C5.30444 17.1001 6.34165 16.0629 6.34165 14.7835C6.34165 13.504 5.30444 12.4668 4.02498 12.4668C2.74552 12.4668 1.70831 13.504 1.70831 14.7835C1.70831 16.0629 2.74552 17.1001 4.02498 17.1001Z" stroke="#7200E0" stroke-width="1.5" stroke-linecap="round" stroke-linejoin="round"/>
<path d="M15.975 17.1001C17.2545 17.1001 18.2917 16.0629 18.2917 14.7835C18.2917 13.504 17.2545 12.4668 15.975 12.4668C14.6955 12.4668 13.6583 13.504 13.6583 14.7835C13.6583 16.0629 14.6955 17.1001 15.975 17.1001Z" stroke="#7200E0" stroke-width="1.5" stroke-linecap="round" stroke-linejoin="round"/>
</svg>
