<svg width="10" height="17" viewBox="0 0 10 17" fill="none" xmlns="http://www.w3.org/2000/svg">
<path fill-rule="evenodd" clip-rule="evenodd" d="M1.66667 3.33346C2.58711 3.33346 3.33333 2.58727 3.33333 1.66679C3.33333 0.746311 2.58711 0.00012207 1.66667 0.00012207C0.746189 0.00012207 0 0.746311 0 1.66679C0 2.58727 0.746189 3.33346 1.66667 3.33346ZM1.66667 10.0001C2.58711 10.0001 3.33333 9.2539 3.33333 8.33346C3.33333 7.41301 2.58711 6.66679 1.66667 6.66679C0.746189 6.66679 0 7.41301 0 8.33346C0 9.2539 0.746189 10.0001 1.66667 10.0001ZM3.33333 15.0001C3.33333 15.9206 2.58711 16.6668 1.66667 16.6668C0.746189 16.6668 0 15.9206 0 15.0001C0 14.0797 0.746189 13.3335 1.66667 13.3335C2.58711 13.3335 3.33333 14.0797 3.33333 15.0001ZM8.33333 3.33346C9.25378 3.33346 10 2.58727 10 1.66679C10 0.746311 9.25378 0.00012207 8.33333 0.00012207C7.41289 0.00012207 6.66667 0.746311 6.66667 1.66679C6.66667 2.58727 7.41289 3.33346 8.33333 3.33346ZM10 8.33346C10 9.2539 9.25378 10.0001 8.33333 10.0001C7.41289 10.0001 6.66667 9.2539 6.66667 8.33346C6.66667 7.41301 7.41289 6.66679 8.33333 6.66679C9.25378 6.66679 10 7.41301 10 8.33346ZM8.33333 16.6668C9.25378 16.6668 10 15.9206 10 15.0001C10 14.0797 9.25378 13.3335 8.33333 13.3335C7.41289 13.3335 6.66667 14.0797 6.66667 15.0001C6.66667 15.9206 7.41289 16.6668 8.33333 16.6668Z" fill="#959595"/>
</svg>
