<svg width="40" height="40" viewBox="0 0 40 40" fill="none" xmlns="http://www.w3.org/2000/svg">
<rect x="0.5" y="0.5" width="39" height="39" rx="7.5" fill="white"/>
<rect x="0.5" y="0.5" width="39" height="39" rx="7.5" stroke="#A6A6A6"/>
<path d="M18.5 27.9V12.1C18.5 10.6 17.86 10 16.27 10H12.23C10.64 10 10 10.6 10 12.1V27.9C10 29.4 10.64 30 12.23 30H16.27C17.86 30 18.5 29.4 18.5 27.9Z" stroke="#575757" stroke-width="1.5" stroke-linecap="round" stroke-linejoin="round"/>
<path d="M30 20.9V12.1C30 10.6 29.36 10 27.77 10H23.73C22.14 10 21.5 10.6 21.5 12.1V20.9C21.5 22.4 22.14 23 23.73 23H27.77C29.36 23 30 22.4 30 20.9Z" stroke="#575757" stroke-width="1.5" stroke-linecap="round" stroke-linejoin="round"/>
</svg>
