<svg width="922" height="445" viewBox="0 0 922 445" fill="none" xmlns="http://www.w3.org/2000/svg">
<rect width="922" height="445" fill="#301B72" fill-opacity="0.4"/>
<path d="M162.141 166H143.531V138.062H122.016V166H103.406V97.4688H122.016V122.875H143.531V97.4688H162.141V166ZM226.641 139.328C226.641 143.766 226.031 147.703 224.812 151.141C223.594 154.578 221.828 157.469 219.516 159.812C217.203 162.156 214.406 163.938 211.125 165.156C207.844 166.344 204.141 166.938 200.016 166.938C196.172 166.938 192.641 166.344 189.422 165.156C186.234 163.938 183.453 162.156 181.078 159.812C178.703 157.469 176.859 154.578 175.547 151.141C174.266 147.703 173.625 143.766 173.625 139.328C173.625 133.453 174.688 128.484 176.812 124.422C178.969 120.359 182.031 117.266 186 115.141C190 113.016 194.766 111.953 200.297 111.953C205.391 111.953 209.922 113.016 213.891 115.141C217.859 117.266 220.969 120.359 223.219 124.422C225.5 128.484 226.641 133.453 226.641 139.328ZM192.234 139.328C192.234 142.359 192.5 144.922 193.031 147.016C193.562 149.078 194.406 150.656 195.562 151.75C196.75 152.812 198.297 153.344 200.203 153.344C202.109 153.344 203.625 152.812 204.75 151.75C205.875 150.656 206.688 149.078 207.188 147.016C207.719 144.922 207.984 142.359 207.984 139.328C207.984 136.297 207.719 133.766 207.188 131.734C206.688 129.703 205.859 128.172 204.703 127.141C203.578 126.109 202.047 125.594 200.109 125.594C197.328 125.594 195.312 126.75 194.062 129.062C192.844 131.375 192.234 134.797 192.234 139.328ZM282.844 166L277.266 142.75C276.984 141.562 276.703 140.219 276.422 138.719C276.141 137.188 275.859 135.656 275.578 134.125C275.328 132.594 275.109 131.188 274.922 129.906C274.734 128.625 274.594 127.625 274.5 126.906H274.219C274.125 127.625 273.969 128.641 273.75 129.953C273.531 131.234 273.281 132.656 273 134.219C272.719 135.781 272.406 137.375 272.062 139C271.75 140.594 271.438 142.078 271.125 143.453L265.734 166H246.469L231.984 112.891H250.031L254.344 133.281C254.656 134.781 254.969 136.578 255.281 138.672C255.625 140.734 255.922 142.844 256.172 145C256.453 147.125 256.641 149.031 256.734 150.719H257.016C257.078 149.438 257.219 147.969 257.438 146.312C257.688 144.625 257.953 142.953 258.234 141.297C258.547 139.641 258.828 138.188 259.078 136.938C259.328 135.656 259.5 134.781 259.594 134.312L264.516 112.891H284.766L289.266 134.594C289.547 135.812 289.859 137.375 290.203 139.281C290.578 141.156 290.922 143.125 291.234 145.188C291.578 147.219 291.828 149.062 291.984 150.719H292.266C292.391 149 292.578 147.047 292.828 144.859C293.078 142.672 293.359 140.547 293.672 138.484C294.016 136.391 294.344 134.656 294.656 133.281L299.344 112.891H317.016L302.438 166H282.844ZM98.0156 278.516C95.9219 278.516 94.0938 278.406 92.5312 278.188C90.9375 278 89.5625 277.781 88.4062 277.531V263.141C89.4062 263.328 90.4688 263.531 91.5938 263.75C92.7188 264 93.9375 264.125 95.25 264.125C97.4688 264.125 99.1875 263.672 100.406 262.766C101.656 261.859 102.531 260.5 103.031 258.688C103.531 256.875 103.781 254.609 103.781 251.891V188.469H122.391V250.297C122.391 257.172 121.359 262.672 119.297 266.797C117.234 270.922 114.375 273.906 110.719 275.75C107.062 277.594 102.828 278.516 98.0156 278.516ZM160.078 202.953C165.234 202.953 169.688 203.859 173.438 205.672C177.188 207.453 180.078 210.141 182.109 213.734C184.141 217.328 185.156 221.828 185.156 227.234V235.391H152.391C152.547 238.172 153.578 240.453 155.484 242.234C157.422 244.016 160.266 244.906 164.016 244.906C167.328 244.906 170.359 244.578 173.109 243.922C175.891 243.266 178.75 242.25 181.688 240.875V254.047C179.125 255.391 176.328 256.375 173.297 257C170.266 257.625 166.438 257.938 161.812 257.938C156.469 257.938 151.688 256.984 147.469 255.078C143.25 253.172 139.922 250.219 137.484 246.219C135.078 242.219 133.875 237.078 133.875 230.797C133.875 224.422 134.969 219.188 137.156 215.094C139.344 210.969 142.406 207.922 146.344 205.953C150.281 203.953 154.859 202.953 160.078 202.953ZM160.734 215.422C158.578 215.422 156.766 216.109 155.297 217.484C153.859 218.828 153.016 220.953 152.766 223.859H168.516C168.484 222.297 168.172 220.875 167.578 219.594C166.984 218.312 166.109 217.297 164.953 216.547C163.828 215.797 162.422 215.422 160.734 215.422ZM212.016 257.938C206.547 257.938 202.047 255.609 198.516 250.953C194.984 246.297 193.219 239.484 193.219 230.516C193.219 221.453 195.031 214.594 198.656 209.938C202.281 205.281 206.969 202.953 212.719 202.953C215.094 202.953 217.141 203.297 218.859 203.984C220.578 204.672 222.062 205.609 223.312 206.797C224.594 207.953 225.703 209.266 226.641 210.734H227.016C226.797 209.391 226.594 207.547 226.406 205.203C226.219 202.828 226.125 200.516 226.125 198.266V184.062H244.594V257H230.766L226.828 250.297H226.125C225.281 251.703 224.219 252.984 222.938 254.141C221.688 255.297 220.156 256.219 218.344 256.906C216.562 257.594 214.453 257.938 212.016 257.938ZM219.516 243.453C222.453 243.453 224.516 242.531 225.703 240.688C226.922 238.812 227.578 235.969 227.672 232.156V230.703C227.672 226.516 227.078 223.312 225.891 221.094C224.734 218.844 222.547 217.719 219.328 217.719C217.141 217.719 215.328 218.781 213.891 220.906C212.453 223.031 211.734 226.328 211.734 230.797C211.734 235.203 212.453 238.422 213.891 240.453C215.359 242.453 217.234 243.453 219.516 243.453ZM273.797 257.938C268.328 257.938 263.828 255.609 260.297 250.953C256.766 246.297 255 239.484 255 230.516C255 221.453 256.812 214.594 260.438 209.938C264.062 205.281 268.75 202.953 274.5 202.953C276.875 202.953 278.922 203.297 280.641 203.984C282.359 204.672 283.844 205.609 285.094 206.797C286.375 207.953 287.484 209.266 288.422 210.734H288.797C288.578 209.391 288.375 207.547 288.188 205.203C288 202.828 287.906 200.516 287.906 198.266V184.062H306.375V257H292.547L288.609 250.297H287.906C287.062 251.703 286 252.984 284.719 254.141C283.469 255.297 281.938 256.219 280.125 256.906C278.344 257.594 276.234 257.938 273.797 257.938ZM281.297 243.453C284.234 243.453 286.297 242.531 287.484 240.688C288.703 238.812 289.359 235.969 289.453 232.156V230.703C289.453 226.516 288.859 223.312 287.672 221.094C286.516 218.844 284.328 217.719 281.109 217.719C278.922 217.719 277.109 218.781 275.672 220.906C274.234 223.031 273.516 226.328 273.516 230.797C273.516 235.203 274.234 238.422 275.672 240.453C277.141 242.453 279.016 243.453 281.297 243.453ZM337.406 257H319.078V184.062H337.406V257ZM374.016 202.953C379.172 202.953 383.625 203.859 387.375 205.672C391.125 207.453 394.016 210.141 396.047 213.734C398.078 217.328 399.094 221.828 399.094 227.234V235.391H366.328C366.484 238.172 367.516 240.453 369.422 242.234C371.359 244.016 374.203 244.906 377.953 244.906C381.266 244.906 384.297 244.578 387.047 243.922C389.828 243.266 392.688 242.25 395.625 240.875V254.047C393.062 255.391 390.266 256.375 387.234 257C384.203 257.625 380.375 257.938 375.75 257.938C370.406 257.938 365.625 256.984 361.406 255.078C357.188 253.172 353.859 250.219 351.422 246.219C349.016 242.219 347.812 237.078 347.812 230.797C347.812 224.422 348.906 219.188 351.094 215.094C353.281 210.969 356.344 207.922 360.281 205.953C364.219 203.953 368.797 202.953 374.016 202.953ZM374.672 215.422C372.516 215.422 370.703 216.109 369.234 217.484C367.797 218.828 366.953 220.953 366.703 223.859H382.453C382.422 222.297 382.109 220.875 381.516 219.594C380.922 218.312 380.047 217.297 378.891 216.547C377.766 215.797 376.359 215.422 374.672 215.422ZM194.297 285.469L177.422 354H155.531L148.969 324.141C148.844 323.578 148.641 322.625 148.359 321.281C148.109 319.938 147.812 318.406 147.469 316.688C147.156 314.969 146.859 313.281 146.578 311.625C146.328 309.938 146.141 308.516 146.016 307.359C145.891 308.516 145.688 309.938 145.406 311.625C145.125 313.281 144.812 314.969 144.469 316.688C144.156 318.406 143.844 319.938 143.531 321.281C143.25 322.625 143.047 323.578 142.922 324.141L136.312 354H114.422L97.4531 285.469H115.312L122.766 319.828C122.953 320.672 123.203 321.875 123.516 323.438C123.859 324.969 124.203 326.656 124.547 328.5C124.922 330.312 125.266 332.062 125.578 333.75C125.891 335.438 126.109 336.844 126.234 337.969C126.484 336.031 126.812 333.828 127.219 331.359C127.656 328.891 128.125 326.391 128.625 323.859C129.156 321.297 129.656 318.922 130.125 316.734C130.594 314.547 131 312.766 131.344 311.391L137.391 285.469H154.547L160.406 311.391C160.719 312.734 161.109 314.516 161.578 316.734C162.078 318.922 162.578 321.297 163.078 323.859C163.609 326.422 164.094 328.953 164.531 331.453C164.969 333.922 165.297 336.094 165.516 337.969C165.703 336.406 166.016 334.438 166.453 332.062C166.891 329.656 167.328 327.328 167.766 325.078C168.234 322.797 168.594 321.078 168.844 319.922L176.438 285.469H194.297ZM252.797 327.328C252.797 331.766 252.188 335.703 250.969 339.141C249.75 342.578 247.984 345.469 245.672 347.812C243.359 350.156 240.562 351.938 237.281 353.156C234 354.344 230.297 354.938 226.172 354.938C222.328 354.938 218.797 354.344 215.578 353.156C212.391 351.938 209.609 350.156 207.234 347.812C204.859 345.469 203.016 342.578 201.703 339.141C200.422 335.703 199.781 331.766 199.781 327.328C199.781 321.453 200.844 316.484 202.969 312.422C205.125 308.359 208.188 305.266 212.156 303.141C216.156 301.016 220.922 299.953 226.453 299.953C231.547 299.953 236.078 301.016 240.047 303.141C244.016 305.266 247.125 308.359 249.375 312.422C251.656 316.484 252.797 321.453 252.797 327.328ZM218.391 327.328C218.391 330.359 218.656 332.922 219.188 335.016C219.719 337.078 220.562 338.656 221.719 339.75C222.906 340.812 224.453 341.344 226.359 341.344C228.266 341.344 229.781 340.812 230.906 339.75C232.031 338.656 232.844 337.078 233.344 335.016C233.875 332.922 234.141 330.359 234.141 327.328C234.141 324.297 233.875 321.766 233.344 319.734C232.844 317.703 232.016 316.172 230.859 315.141C229.734 314.109 228.203 313.594 226.266 313.594C223.484 313.594 221.469 314.75 220.219 317.062C219 319.375 218.391 322.797 218.391 327.328ZM295.359 299.953C296.359 299.953 297.406 300.031 298.5 300.188C299.594 300.312 300.406 300.422 300.938 300.516L299.297 317.812C298.703 317.656 297.938 317.531 297 317.438C296.062 317.312 294.75 317.25 293.062 317.25C291.906 317.25 290.672 317.359 289.359 317.578C288.047 317.797 286.797 318.266 285.609 318.984C284.453 319.672 283.5 320.734 282.75 322.172C282 323.578 281.625 325.484 281.625 327.891V354H263.297V300.891H276.938L279.797 309.375H280.688C281.656 307.625 282.891 306.047 284.391 304.641C285.922 303.203 287.625 302.062 289.5 301.219C291.406 300.375 293.359 299.953 295.359 299.953ZM326.812 281.062V309.75C326.812 311.906 326.719 314.312 326.531 316.969C326.375 319.594 326.125 321.984 325.781 324.141H326.156C326.875 323.047 327.781 321.672 328.875 320.016C329.969 318.359 330.953 316.984 331.828 315.891L343.734 300.891H364.172L345.75 323.484L365.344 354H344.391L332.766 334.969L326.812 339.516V354H308.391V281.062H326.812ZM411.141 337.688C411.141 341.062 410.391 344.047 408.891 346.641C407.391 349.234 404.984 351.266 401.672 352.734C398.391 354.203 394.062 354.938 388.688 354.938C384.906 354.938 381.516 354.734 378.516 354.328C375.547 353.922 372.531 353.141 369.469 351.984V337.312C372.812 338.844 376.219 339.953 379.688 340.641C383.156 341.297 385.891 341.625 387.891 341.625C389.953 341.625 391.453 341.406 392.391 340.969C393.359 340.5 393.844 339.812 393.844 338.906C393.844 338.125 393.516 337.469 392.859 336.938C392.234 336.375 391.094 335.734 389.438 335.016C387.812 334.297 385.516 333.328 382.547 332.109C379.609 330.891 377.156 329.562 375.188 328.125C373.25 326.688 371.797 324.969 370.828 322.969C369.859 320.969 369.375 318.516 369.375 315.609C369.375 310.422 371.375 306.516 375.375 303.891C379.375 301.266 384.672 299.953 391.266 299.953C394.766 299.953 398.062 300.344 401.156 301.125C404.25 301.875 407.453 302.984 410.766 304.453L405.75 316.266C403.125 315.078 400.469 314.125 397.781 313.406C395.094 312.688 392.953 312.328 391.359 312.328C389.922 312.328 388.812 312.516 388.031 312.891C387.25 313.266 386.859 313.812 386.859 314.531C386.859 315.188 387.125 315.766 387.656 316.266C388.219 316.766 389.266 317.344 390.797 318C392.328 318.656 394.562 319.578 397.5 320.766C400.594 322.016 403.141 323.359 405.141 324.797C407.172 326.203 408.672 327.922 409.641 329.953C410.641 331.984 411.141 334.562 411.141 337.688Z" fill="#E0D8FF"/>
<g clip-path="url(#clip0_4591_17640)">
<path d="M431 210C431 201.513 434.16 193.374 439.784 187.373C445.409 181.371 453.037 178 460.992 178C468.946 178 476.574 181.371 482.199 187.373C487.823 193.374 490.983 201.513 490.983 210C490.983 218.487 487.823 226.626 482.199 232.627C476.574 238.629 468.946 242 460.992 242C453.037 242 445.409 238.629 439.784 232.627C434.16 226.626 431 218.487 431 210ZM453.06 196.388C452.17 196.913 451.619 197.925 451.619 199V221C451.619 222.088 452.17 223.087 453.06 223.612C453.951 224.138 455.028 224.125 455.907 223.55L472.777 212.55C473.609 212 474.125 211.037 474.125 209.987C474.125 208.938 473.609 207.975 472.777 207.425L455.907 196.425C455.04 195.862 453.951 195.837 453.06 196.362V196.388Z" fill="white"/>
</g>
<defs>
<clipPath id="clip0_4591_17640">
<rect width="59.9833" height="64" fill="white" transform="translate(431 178)"/>
</clipPath>
</defs>
</svg>
