<svg width="36" height="36" viewBox="0 0 36 36" fill="none" xmlns="http://www.w3.org/2000/svg">
<path d="M33.0669 26.1296V14.4481C33.3501 14.2485 33.5755 13.9756 33.7196 13.6578C33.8637 13.3401 33.9213 12.989 33.8865 12.641C33.8516 12.2931 33.7256 11.9609 33.5214 11.679C33.3173 11.3971 33.0424 11.1757 32.7254 11.0378L18.7172 4.94881C18.3161 4.77447 17.8842 4.68457 17.4478 4.68457C17.0114 4.68457 16.5796 4.77447 16.1785 4.94881L2.17022 11.0378C1.81363 11.1931 1.5114 11.4536 1.30284 11.7854C1.09429 12.1173 0.989079 12.5051 1.0009 12.8984C1.01271 13.2917 1.14102 13.6723 1.3691 13.9906C1.59719 14.309 1.91451 14.5504 2.27976 14.6833L4.06462 15.3367V22.4056C4.06515 22.5407 4.10694 22.6723 4.18425 22.7822C4.26157 22.8922 4.37059 22.9752 4.49633 23.0198L16.2493 27.1618C16.6253 27.3449 17.0371 27.44 17.4543 27.44C17.8714 27.44 18.2832 27.3449 18.6592 27.1618L29.4263 23.0263C29.5507 22.9792 29.6577 22.8943 29.7327 22.7832C29.8076 22.6721 29.8469 22.5402 29.8452 22.4056V15.6764L31.7782 14.9773V26.1296C31.2656 26.1296 30.7739 26.3361 30.4114 26.7036C30.0488 27.0712 29.8452 27.5697 29.8452 28.0896V32.3362C29.8452 32.5961 29.947 32.8453 30.1283 33.0291C30.3095 33.2129 30.5554 33.3162 30.8117 33.3162H34.0335C34.2898 33.3162 34.5357 33.2129 34.7169 33.0291C34.8982 32.8453 35 32.5961 35 32.3362V28.0896C35 27.5697 34.7963 27.0712 34.4338 26.7036C34.0713 26.3361 33.5796 26.1296 33.0669 26.1296ZM2.29264 12.8606C2.28209 12.7236 2.31439 12.5867 2.38495 12.4694C2.45552 12.3522 2.56075 12.2604 2.6857 12.2072L16.6939 6.11826C16.9342 6.01402 17.1929 5.96027 17.4543 5.96027C17.7156 5.96027 17.9743 6.01402 18.2146 6.11826L32.2228 12.2072C32.3416 12.2592 32.4422 12.3462 32.5116 12.457C32.5809 12.5677 32.6158 12.6971 32.6116 12.8282C32.6074 12.9593 32.5644 13.0861 32.4882 13.1921C32.412 13.2981 32.306 13.3783 32.1842 13.4224L18.0986 18.551C17.6817 18.7005 17.2268 18.7005 16.8099 18.551L2.71792 13.4551C2.59643 13.4106 2.49092 13.3302 2.41509 13.2242C2.33926 13.1181 2.2966 12.9915 2.29264 12.8606ZM28.5565 21.9548L18.1759 25.9401H18.118C17.9118 26.0442 17.6846 26.0984 17.4543 26.0984C17.2239 26.0984 16.9968 26.0442 16.7906 25.9401L16.7133 25.9075L5.35976 21.9418V15.794L16.3653 19.7793C17.0654 20.0325 17.8303 20.0325 18.5303 19.7793L28.5565 16.1533V21.9548ZM33.7113 32.0095H31.1339V28.0896C31.1339 27.9163 31.2018 27.7501 31.3226 27.6276C31.4434 27.5051 31.6073 27.4362 31.7782 27.4362H33.0669C33.2378 27.4362 33.4017 27.5051 33.5226 27.6276C33.6434 27.7501 33.7113 27.9163 33.7113 28.0896V32.0095Z" fill="#301B72" stroke="#301B72" stroke-width="0.8"/>
</svg>
