<svg width="3" height="14" viewBox="0 0 3 14" fill="none" xmlns="http://www.w3.org/2000/svg">
<path d="M1.16116 13.4759C1.28244 13.5579 1.41871 13.615 1.56215 13.6442C1.70558 13.6733 1.85336 13.6737 1.99698 13.6455C2.1406 13.6174 2.27724 13.5611 2.39904 13.4799C2.52083 13.3987 2.62539 13.2943 2.70669 13.1726C2.788 13.0509 2.84445 12.9143 2.8728 12.7707C2.90116 12.6272 2.90086 12.4794 2.87191 12.3359C2.84297 12.1924 2.78597 12.0561 2.70416 11.9347C2.62236 11.8134 2.51738 11.7094 2.39526 11.6287C2.15045 11.4782 1.85684 11.4284 1.57611 11.4898C1.29538 11.5512 1.04938 11.7191 0.889775 11.958C0.730172 12.197 0.669394 12.4885 0.720207 12.7714C0.77102 13.0542 0.929471 13.3064 1.16227 13.4748L1.16116 13.4759ZM1.77876 8.10857C1.48416 8.10857 1.20163 7.99154 0.993313 7.78323C0.784999 7.57492 0.667969 7.29238 0.667969 6.99778C0.667969 6.70318 0.784999 6.42064 0.993313 6.21233C1.20163 6.00401 1.48416 5.88698 1.77876 5.88698C2.07337 5.88698 2.3559 6.00401 2.56421 6.21233C2.77253 6.42064 2.88956 6.70318 2.88956 6.99778C2.88956 7.29238 2.77253 7.57492 2.56421 7.78323C2.3559 7.99154 2.07337 8.10857 1.77876 8.10857ZM1.77876 2.5546C1.48416 2.5546 1.20163 2.43757 0.993313 2.22925C0.784999 2.02094 0.667969 1.7384 0.667969 1.4438C0.667969 1.1492 0.784999 0.866667 0.993313 0.658352C1.20163 0.450038 1.48416 0.333008 1.77876 0.333008C2.07337 0.333008 2.3559 0.450038 2.56421 0.658352C2.77253 0.866667 2.88956 1.1492 2.88956 1.4438C2.88956 1.7384 2.77253 2.02094 2.56421 2.22925C2.3559 2.43757 2.07337 2.5546 1.77876 2.5546Z" fill="#301B72"/>
<path d="M1.16116 13.4759C1.28244 13.5579 1.41871 13.615 1.56215 13.6442C1.70558 13.6733 1.85336 13.6737 1.99698 13.6455C2.1406 13.6174 2.27724 13.5611 2.39904 13.4799C2.52083 13.3987 2.62539 13.2943 2.70669 13.1726C2.788 13.0509 2.84445 12.9143 2.8728 12.7707C2.90116 12.6272 2.90086 12.4794 2.87191 12.3359C2.84297 12.1924 2.78597 12.0561 2.70416 11.9347C2.62236 11.8134 2.51738 11.7094 2.39526 11.6287C2.15045 11.4782 1.85684 11.4284 1.57611 11.4898C1.29538 11.5512 1.04938 11.7191 0.889775 11.958C0.730172 12.197 0.669394 12.4885 0.720207 12.7714C0.77102 13.0542 0.929471 13.3064 1.16227 13.4748L1.16116 13.4759ZM1.77876 8.10857C1.48416 8.10857 1.20163 7.99154 0.993313 7.78323C0.784999 7.57492 0.667969 7.29238 0.667969 6.99778C0.667969 6.70318 0.784999 6.42064 0.993313 6.21233C1.20163 6.00401 1.48416 5.88698 1.77876 5.88698C2.07337 5.88698 2.3559 6.00401 2.56421 6.21233C2.77253 6.42064 2.88956 6.70318 2.88956 6.99778C2.88956 7.29238 2.77253 7.57492 2.56421 7.78323C2.3559 7.99154 2.07337 8.10857 1.77876 8.10857ZM1.77876 2.5546C1.48416 2.5546 1.20163 2.43757 0.993313 2.22925C0.784999 2.02094 0.667969 1.7384 0.667969 1.4438C0.667969 1.1492 0.784999 0.866667 0.993313 0.658352C1.20163 0.450038 1.48416 0.333008 1.77876 0.333008C2.07337 0.333008 2.3559 0.450038 2.56421 0.658352C2.77253 0.866667 2.88956 1.1492 2.88956 1.4438C2.88956 1.7384 2.77253 2.02094 2.56421 2.22925C2.3559 2.43757 2.07337 2.5546 1.77876 2.5546Z" stroke="#301B72"/>
</svg>
