<svg width="18" height="18" viewBox="0 0 18 18" fill="none" xmlns="http://www.w3.org/2000/svg">
<path d="M15.1354 9.0001V14.4997C15.1354 15.6043 14.24 16.4997 13.1354 16.4997H3.5004C2.39583 16.4997 1.5004 15.6043 1.5004 14.4997V4.86469C1.5004 3.76012 2.39583 2.86469 3.5004 2.86469H9.68571" stroke="#8A2BE5" stroke-width="1.5" stroke-miterlimit="10"/>
<path d="M9.21477 11.514C9.07497 11.6538 8.89688 11.749 8.70298 11.7877L7.06193 12.1145C6.36277 12.2537 5.74662 11.6376 5.88586 10.9384L6.2127 9.29738C6.25131 9.10349 6.34653 8.92539 6.48633 8.7856L13.2073 2.06463C13.3863 1.88527 13.5989 1.74308 13.833 1.64624C14.0672 1.5494 14.3181 1.49983 14.5715 1.50037C15.083 1.50037 15.5735 1.70355 15.9352 2.06521C16.2968 2.42687 16.5 2.91738 16.5 3.42885C16.5005 3.68221 16.451 3.93318 16.3541 4.16731C16.2573 4.40144 16.1151 4.61411 15.9357 4.79307L9.21477 11.514Z" stroke="#8A2BE5" stroke-width="1.5" stroke-miterlimit="10"/>
</svg>
